<svg width="1311" height="784" viewBox="0 0 1311 784" fill="none" xmlns="http://www.w3.org/2000/svg">
<rect width="1311" height="784" fill="white"/>
<rect x="224" y="367" width="17" height="1" fill="#D9D9D9"/>
<rect x="224" y="365" width="17" height="1" fill="#D9D9D9"/>
<rect x="224" y="363" width="17" height="1" fill="#D9D9D9"/>
<rect x="224" y="361" width="17" height="1" fill="#D9D9D9"/>
<rect x="224" y="359" width="17" height="1" fill="#D9D9D9"/>
<rect x="224" y="357" width="17" height="1" fill="#D9D9D9"/>
<rect x="224" y="355" width="17" height="1" fill="#D9D9D9"/>
<rect x="224" y="353" width="17" height="1" fill="#D9D9D9"/>
<rect x="221" y="352" width="11" height="1" transform="rotate(-90 221 352)" fill="#D9D9D9"/>
<rect x="219" y="352" width="11" height="1" transform="rotate(-90 219 352)" fill="#D9D9D9"/>
<rect x="217" y="352" width="11" height="1" transform="rotate(-90 217 352)" fill="#D9D9D9"/>
<rect x="215" y="352" width="11" height="1" transform="rotate(-90 215 352)" fill="#D9D9D9"/>
<rect x="213" y="352" width="11" height="1" transform="rotate(-90 213 352)" fill="#D9D9D9"/>
<rect x="211" y="352" width="11" height="1" transform="rotate(-90 211 352)" fill="#D9D9D9"/>
<rect x="209" y="352" width="12" height="1" transform="rotate(-90 209 352)" fill="#D9D9D9"/>
<rect x="190" y="354" width="18" height="1" fill="#D9D9D9"/>
<rect x="190" y="356" width="18" height="1" fill="#D9D9D9"/>
<rect x="190" y="358" width="18" height="1" fill="#D9D9D9"/>
<rect x="190" y="360" width="18" height="1" fill="#D9D9D9"/>
<rect x="190" y="362" width="18" height="1" fill="#D9D9D9"/>
<rect x="190" y="364" width="18" height="1" fill="#D9D9D9"/>
<rect x="190" y="366" width="18" height="1" fill="#D9D9D9"/>
<rect x="190" y="368" width="20" height="1" fill="black"/>
<rect x="519" y="337" width="5" height="11" fill="black"/>
<rect x="519" y="357" width="5.19092" height="11.2681" fill="black"/>
<rect x="524" y="364" width="36" height="4" fill="black"/>
<rect x="500" y="341" width="2" height="43" fill="black"/>
<rect x="495" y="384" width="9" height="2" fill="black"/>
<rect x="519" y="368" width="5" height="18" fill="black"/>
<rect x="474" y="341" width="2" height="43" fill="black"/>
<rect x="470" y="384" width="10" height="2" fill="black"/>
<rect x="449" y="341" width="2" height="43" fill="black"/>
<rect x="420" y="384" width="35" height="2" fill="black"/>
<rect x="366" y="384" width="36" height="2" fill="black"/>
<rect x="341" y="384" width="10.002" height="1.77251" fill="black"/>
<rect x="313" y="384" width="13" height="2" fill="black"/>
<rect x="263" y="383" width="35" height="3" fill="black"/>
<rect x="238" y="384" width="10" height="2" fill="black"/>
<rect x="205" y="384" width="6.71022" height="2.02573" fill="black"/>
<rect x="221" y="384" width="6.83682" height="1.77251" fill="black"/>
<rect x="187" y="384" width="6" height="2" fill="black"/>
<rect x="370" y="341" width="3" height="43" fill="black"/>
<rect x="345" y="341" width="3" height="43" fill="black"/>
<rect x="319" y="341" width="3" height="43" fill="black"/>
<rect x="267" y="341" width="3" height="42" fill="black"/>
<rect x="241" y="341" width="3" height="43" fill="black"/>
<rect x="187" y="329" width="3" height="55" fill="black"/>
<rect x="190" y="338" width="21" height="2" fill="black"/>
<rect x="190" y="304" width="21" height="2" fill="black"/>
<rect x="188.337" y="294.495" width="1.89912" height="19.371" fill="black"/>
<rect x="208" y="352" width="16" height="17" rx="2" fill="black"/>
<rect x="345" y="417" width="3" height="43" fill="black"/>
<rect x="235" y="418" width="3" height="42" fill="black"/>
<rect x="211" y="418" width="3" height="45" fill="black"/>
<rect x="371" y="418" width="3" height="42" fill="black"/>
<rect x="342" y="415" width="10" height="3" fill="black"/>
<rect x="366" y="415" width="63" height="3" fill="black"/>
<rect x="444" y="415" width="106" height="3" fill="black"/>
<rect x="518" y="418" width="3" height="24" fill="black"/>
<rect x="503" y="418" width="3" height="42" fill="black"/>
<rect x="506" y="435" width="3" height="3" fill="black"/>
<rect x="515" y="435" width="3" height="3" fill="black"/>
<rect x="519" y="456" width="2" height="35" fill="black"/>
<rect x="232" y="415" width="96" height="3" fill="black"/>
<rect x="210" y="415" width="8" height="3" fill="black"/>
<rect x="188" y="415" width="7" height="3" fill="black"/>
<rect x="188" y="418" width="3" height="90" fill="black"/>
<rect x="190" y="463" width="40" height="2" fill="black"/>
<rect x="191" y="526" width="39" height="2" fill="black"/>
<rect x="190" y="606" width="40" height="2" fill="black"/>
<rect x="188" y="575" width="3" height="136" fill="black"/>
<rect x="188" y="521" width="3" height="38" fill="black"/>
<rect x="173" y="657" width="17" height="3" fill="black"/>
<rect x="78" y="658" width="88" height="2" fill="black"/>
<rect x="54" y="658" width="12" height="4" fill="black"/>
<rect x="162" y="660" width="2" height="51" fill="black"/>
<rect x="95" y="660" width="4" height="51" fill="black"/>
<rect x="86" y="612" width="2" height="26" fill="black"/>
<rect x="86" y="640" width="2" height="5" fill="black"/>
<rect x="86" y="638" width="24" height="2" fill="black"/>
<rect x="127" y="638" width="41" height="2" fill="black"/>
<rect x="132" y="612" width="3" height="26" fill="black"/>
<rect x="164" y="599" width="3" height="28" fill="black"/>
<rect x="165.19" y="524.97" width="1.89912" height="61.4048" fill="black"/>
<rect x="122" y="610" width="44" height="2" fill="black"/>
<rect x="122" y="526" width="44" height="3" fill="black"/>
<rect x="122" y="501" width="43" height="3" fill="black"/>
<rect x="122" y="471" width="43" height="2" fill="black"/>
<rect x="122" y="444" width="43" height="2" fill="black"/>
<rect x="122" y="416" width="43" height="2" fill="black"/>
<rect x="122" y="383" width="43" height="2" fill="black"/>
<rect x="122" y="349" width="43" height="2" fill="black"/>
<rect x="122" y="322" width="43" height="2" fill="black"/>
<rect x="122" y="298" width="43" height="2" fill="black"/>
<rect x="122" y="220" width="43" height="2" fill="black"/>
<rect x="86" y="658" width="6" height="2" transform="rotate(-90 86 658)" fill="black"/>
<rect x="165" y="494" width="2" height="15" fill="black"/>
<rect x="165" y="466" width="2" height="14" fill="black"/>
<rect x="165" y="438" width="2" height="14" fill="black"/>
<rect x="165" y="404" width="2" height="20" fill="black"/>
<rect x="165" y="373" width="2" height="17" fill="black"/>
<rect x="165" y="343" width="2" height="15" fill="black"/>
<rect x="165" y="318" width="2" height="11" fill="black"/>
<rect x="165" y="295" width="2" height="9" fill="black"/>
<rect x="165" y="156" width="2" height="124" fill="black"/>
<rect x="160" y="163" width="5" height="2" fill="black"/>
<rect x="160" y="198" width="5" height="3" fill="black"/>
<rect x="142" y="199" width="4" height="2" fill="black"/>
<rect x="141" y="165" width="2" height="56" fill="black"/>
<rect x="117.611" y="163.222" width="27.0941" height="1.77251" fill="black"/>
<rect x="115.712" y="156.005" width="1.89912" height="17.4719" fill="black"/>
<rect x="115.712" y="135.115" width="1.89912" height="6.71022" fill="black"/>
<rect x="66.3345" y="163.222" width="6.33039" height="1.77251" fill="black"/>
<rect x="93.0488" y="163.222" width="6.457" height="1.77251" fill="black"/>
<rect x="115.712" y="187.657" width="1.89912" height="27.9803" fill="black"/>
<rect x="44" y="133" width="122" height="2" fill="black"/>
<rect x="165.19" y="71.0515" width="1.89912" height="70.7738" fill="black"/>
<rect x="188" y="71" width="2" height="7" fill="black"/>
<rect x="188" y="91" width="2" height="5" fill="black"/>
<rect x="188" y="111" width="2" height="5" fill="black"/>
<rect x="188" y="130" width="2" height="10" fill="black"/>
<rect x="177" y="133" width="55" height="1" fill="black"/>
<rect x="190" y="112" width="42" height="2" fill="black"/>
<rect x="190" y="93" width="42" height="1" fill="black"/>
<rect x="190" y="164" width="42" height="1" fill="black"/>
<rect x="190" y="225" width="42" height="2" fill="black"/>
<rect x="188" y="156" width="2" height="39" fill="black"/>
<rect x="188" y="211" width="2" height="71" fill="black"/>
<rect x="111.534" y="96.6263" width="6.20378" height="7.09004" fill="black"/>
<rect x="74.0576" y="96.6263" width="6.33039" height="7.09004" fill="black"/>
<rect x="550" y="415" width="8" height="8" fill="black"/>
<rect x="596" y="415" width="8" height="8" fill="black"/>
<rect x="644" y="415" width="8" height="8" fill="black"/>
<rect x="692" y="415" width="9" height="8" fill="black"/>
<rect x="570" y="366" width="50" height="2" fill="black"/>
<rect x="642" y="366" width="49" height="2" fill="black"/>
<rect x="589" y="321" width="19" height="29" fill="black"/>
<rect x="608" y="321" width="3" height="5" fill="black"/>
<rect x="652" y="322" width="20" height="4" fill="black"/>
<rect x="654" y="326" width="18" height="24" fill="black"/>
<rect x="569" y="348" width="20" height="2" fill="black"/>
<rect x="672" y="348" width="19" height="2" fill="black"/>
<rect x="164" y="633" width="4" height="5" fill="black"/>
<rect x="738" y="368" width="5" height="18" fill="black"/>
<rect x="743" y="383" width="62" height="3" fill="black"/>
<rect x="820" y="383" width="69" height="3" fill="black"/>
<rect x="881" y="340" width="3" height="44" fill="black"/>
<rect x="909" y="340" width="3" height="44" fill="black"/>
<rect x="904" y="383" width="12" height="3" fill="black"/>
<rect x="747" y="415" width="3" height="46" fill="black"/>
<rect x="701" y="415" width="46" height="3" fill="black"/>
<rect x="730" y="418" width="2" height="24" fill="black"/>
<rect x="731" y="457" width="2" height="34" fill="black"/>
<rect x="732" y="434" width="3" height="2" fill="black"/>
<rect x="744" y="434" width="3" height="2" fill="black"/>
<rect x="750" y="415" width="57" height="3" fill="black"/>
<rect x="821" y="415" width="58" height="3" fill="black"/>
<rect x="879" y="415" width="3" height="46" fill="black"/>
<rect x="882" y="415" width="61" height="3" fill="black"/>
<rect x="930" y="383" width="67" height="3" fill="black"/>
<rect x="989" y="340" width="3" height="43" fill="black"/>
<rect x="957" y="415" width="45" height="3" fill="black"/>
<rect x="989" y="418" width="3" height="43" fill="black"/>
<rect x="1016" y="415" width="56" height="3" fill="black"/>
<rect x="1025" y="418" width="3" height="43" fill="black"/>
<rect x="1069" y="418" width="3" height="66" fill="black"/>
<rect x="1028" y="461" width="9" height="3" fill="black"/>
<rect x="1062" y="461" width="7" height="3" fill="black"/>
<rect x="1069" y="498" width="3" height="64" fill="black"/>
<rect x="1069" y="575" width="3" height="54" fill="black"/>
<rect x="1028" y="607" width="41" height="3" fill="black"/>
<rect x="1057" y="501" width="12" height="3" fill="black"/>
<rect x="1028" y="501" width="13" height="3" fill="black"/>
<rect x="1016" y="340" width="3" height="43" fill="black"/>
<rect x="1012" y="383" width="11" height="3" fill="black"/>
<rect x="1033" y="383" width="6" height="3" fill="black"/>
<rect x="1050" y="383" width="6" height="3" fill="black"/>
<rect x="1067" y="383" width="5" height="3" fill="black"/>
<rect x="1050" y="337" width="20" height="3" fill="black"/>
<rect x="1070" y="327" width="2" height="56" fill="black"/>
<rect x="1070" y="271" width="2" height="41" fill="black"/>
<rect x="1050" y="298" width="20" height="2" fill="black"/>
<rect x="506" y="469" width="13" height="2" fill="black"/>
<rect x="1031" y="245" width="39" height="3" fill="black"/>
<rect x="1070" y="215" width="2" height="41" fill="black"/>
<rect x="1031" y="187" width="39" height="2" fill="black"/>
<rect x="1070" y="181" width="2" height="20" fill="black"/>
<rect x="1072" y="185" width="12" height="5" fill="black"/>
<rect x="1096" y="185" width="59" height="5" fill="black"/>
<rect x="1110" y="170" width="3" height="59" fill="black"/>
<rect x="1031" y="161" width="39" height="2" fill="black"/>
<rect x="1070" y="123" width="2" height="45" fill="black"/>
<rect x="1031" y="132" width="39" height="2" fill="black"/>
<rect x="1070" y="98" width="2" height="11" fill="black"/>
<rect x="1031" y="101" width="39" height="2" fill="black"/>
<rect x="1031" y="78" width="21" height="2" fill="black"/>
<rect x="1047" y="75" width="2" height="3" fill="black"/>
<rect x="1068" y="78" width="2" height="2" fill="black"/>
<rect x="1070" y="37" width="2" height="47" fill="black"/>
<rect x="1047" y="37" width="2" height="25" fill="black"/>
<rect x="1110" y="37" width="3" height="28" fill="black"/>
<rect x="1110" y="78" width="3" height="33" fill="black"/>
<rect x="1110" y="126" width="3" height="31" fill="black"/>
<rect x="1113" y="133" width="3" height="3" fill="black"/>
<rect x="1131" y="133" width="12" height="3" fill="black"/>
<rect x="1143" y="125" width="3" height="60" fill="black"/>
<rect x="1143" y="103" width="3" height="9" fill="black"/>
<rect x="1113" y="100" width="123" height="4" fill="black"/>
<rect x="1165" y="133" width="7" height="6" fill="black"/>
<rect x="1189" y="133" width="6" height="6" fill="black"/>
<rect x="1214" y="133" width="6" height="6" fill="black"/>
<rect x="1110" y="243" width="3" height="13" fill="black"/>
<rect x="1113" y="249" width="42" height="2" fill="black"/>
<rect x="1110" y="270" width="3" height="16" fill="black"/>
<rect x="1113" y="279" width="42" height="2" fill="black"/>
<rect x="1110" y="299" width="3" height="11" fill="black"/>
<rect x="1113" y="302" width="42" height="2" fill="black"/>
<rect x="1110" y="323" width="3" height="14" fill="black"/>
<rect x="1113" y="327" width="42" height="2" fill="black"/>
<rect x="1110" y="350" width="3" height="13" fill="black"/>
<rect x="1113" y="354" width="42" height="3" fill="black"/>
<rect x="1110" y="377" width="3" height="18" fill="black"/>
<rect x="1113" y="383" width="42" height="3" fill="black"/>
<rect x="1110" y="408" width="3" height="15" fill="black"/>
<rect x="1113" y="413" width="42" height="3" fill="black"/>
<rect x="1110" y="436" width="3" height="13" fill="black"/>
<rect x="1113" y="440" width="42" height="3" fill="black"/>
<rect x="1113" y="467" width="42" height="3" fill="black"/>
<rect x="1110" y="463" width="3" height="97" fill="black"/>
<rect x="1110" y="573" width="3" height="16" fill="black"/>
<rect x="1113" y="579" width="42" height="3" fill="black"/>
<rect x="1110" y="602" width="3" height="46" fill="black"/>
<rect x="1113" y="610" width="42" height="3" fill="black"/>
<rect x="1143" y="613" width="2" height="53" fill="black"/>
<rect x="1110" y="661" width="3" height="5" fill="black"/>
<rect x="1110" y="666" width="42" height="2" fill="black"/>
<rect x="1167" y="666" width="36" height="2" fill="black"/>
<rect x="1203" y="613" width="3" height="60" fill="black"/>
<rect x="1069" y="643" width="3" height="109" fill="#070707"/>
<rect x="1072" y="697" width="13" height="3" fill="#070707"/>
<rect x="1099" y="697" width="64" height="3" fill="#070707"/>
<rect x="1110" y="700" width="3" height="52" fill="#070707"/>
<rect x="1118" y="707" width="13" height="3" fill="#070707"/>
<rect x="1143" y="721" width="3" height="31" fill="#070707"/>
<rect x="1178" y="697" width="30" height="3" fill="#070707"/>
<rect x="1203" y="687" width="2" height="10" fill="#070707"/>
<rect x="1193" y="700" width="3" height="52" fill="#070707"/>
<rect x="1223" y="697" width="10" height="3" fill="#070707"/>
<rect x="1131" y="707" width="20.7809" height="2.68567" transform="rotate(44.3595 1131 707)" fill="#070707"/>
<rect x="604" y="417" width="40" height="5" fill="black"/>
<rect x="40" y="67" width="196" height="4" fill="#346AF4"/>
<rect x="232" y="70" width="4" height="75" fill="#346AF4"/>
<rect x="232" y="145" width="4" height="162" fill="#346AF4"/>
<rect x="211" y="303" width="25" height="5" fill="#346AF4"/>
<rect x="211" y="307" width="5" height="31" fill="#346AF4"/>
<rect x="211" y="337" width="308" height="4" fill="#346AF4"/>
<rect x="40" y="71" width="4" height="149" fill="#346AF4"/>
<rect x="504.462" y="271.907" width="4.55788" height="67.1022" fill="#346AF4"/>
<rect x="509.02" y="271.907" width="25.3216" height="4.05145" fill="#346AF4"/>
<rect x="529.55" y="274.389" width="5.05011" height="98.0023" transform="rotate(-18.4176 529.55 274.389)" fill="#346AF4"/>
<rect x="564" y="299" width="5" height="67" fill="#346AF4"/>
<rect x="569" y="299" width="50" height="5" fill="#346AF4"/>
<rect x="612" y="279" width="5" height="20" fill="#346AF4"/>
<rect x="604" y="279" width="8" height="4" fill="#346AF4"/>
<rect x="589" y="279" width="8" height="4" fill="#346AF4"/>
<rect x="589" y="272" width="5" height="7" fill="#346AF4"/>
<rect x="589.289" y="238.609" width="4.30467" height="27.4739" fill="#346AF4"/>
<rect x="568.526" y="238.609" width="20.7637" height="4.05145" fill="#346AF4"/>
<rect x="572.324" y="199.487" width="4.30467" height="39.1218" fill="#346AF4"/>
<rect x="44" y="216" width="78" height="4" fill="#346AF4"/>
<rect x="117" y="220" width="5" height="392" fill="#346AF4"/>
<rect x="50" y="608" width="67" height="4" fill="#346AF4"/>
<rect x="50" y="612" width="4" height="89" fill="#346AF4"/>
<rect x="53" y="612" width="14" height="37" fill="#346AF4"/>
<rect x="54" y="692" width="8" height="23" fill="#346AF4"/>
<rect x="62" y="703" width="8" height="12" fill="#346AF4"/>
<rect x="70" y="711" width="176" height="4" fill="#346AF4"/>
<rect x="236" y="701" width="10" height="10" fill="#346AF4"/>
<rect x="246" y="690" width="10" height="17" fill="#346AF4"/>
<rect x="256" y="605" width="4" height="98" fill="#346AF4"/>
<rect x="235" y="605" width="25" height="19" fill="#346AF4"/>
<rect x="230" y="460" width="5" height="157" fill="#346AF4"/>
<rect x="235" y="460" width="271" height="5" fill="#346AF4"/>
<rect x="501" y="465" width="5" height="30" fill="#346AF4"/>
<rect x="506" y="491" width="37" height="4" fill="#346AF4"/>
<rect x="543" y="472" width="23" height="23" fill="#346AF4"/>
<rect x="566" y="491" width="2" height="4" fill="#346AF4"/>
<rect x="588.909" y="490.685" width="1.6459" height="4.05145" fill="#346AF4"/>
<rect x="590.555" y="471.188" width="20.7637" height="23.5491" fill="#346AF4"/>
<rect x="611.319" y="490.685" width="2.40555" height="4.05145" fill="#346AF4"/>
<rect x="634.995" y="490.685" width="2.53216" height="4.05145" fill="#346AF4"/>
<rect x="637.527" y="471.188" width="20.8903" height="23.5491" fill="#346AF4"/>
<rect x="658.417" y="490.685" width="2.53216" height="4.05145" fill="#346AF4"/>
<rect x="682" y="491" width="3" height="5" fill="#346AF4"/>
<rect x="685" y="471" width="22" height="25" fill="#346AF4"/>
<rect x="706" y="491" width="45" height="5" fill="#346AF4"/>
<rect x="747" y="462" width="4" height="29" fill="#346AF4"/>
<rect x="568.526" y="235.064" width="3.79824" height="3.54502" fill="#346AF4"/>
<rect x="572.324" y="180.876" width="4.30467" height="9.49559" fill="#346AF4"/>
<rect x="572.324" y="129.473" width="4.30467" height="43.6797" fill="#346AF4"/>
<rect x="568.652" y="129.473" width="3.67163" height="7.59647" fill="#346AF4"/>
<rect x="576.628" y="129.473" width="18.1049" height="4.05145" fill="#346AF4"/>
<rect x="590.429" y="106.177" width="4.30467" height="23.2958" fill="#346AF4"/>
<rect x="590.429" y="88.7055" width="4.30467" height="11.1415" fill="#346AF4"/>
<rect x="602.963" y="88.7055" width="5.82396" height="4.17806" fill="#346AF4"/>
<rect x="604.482" y="74.652" width="4.30467" height="14.0535" fill="#346AF4"/>
<rect x="608.787" y="74.652" width="46.8449" height="4.05145" fill="#346AF4"/>
<rect x="651.2" y="78.7034" width="4.43127" height="14.1801" fill="#346AF4"/>
<rect x="655.632" y="88.8321" width="29.8795" height="4.05145" fill="#346AF4"/>
<rect x="681.206" y="92.8835" width="4.30467" height="7.21665" fill="#346AF4"/>
<rect x="685.511" y="95.9221" width="116.986" height="4.17806" fill="#346AF4"/>
<rect x="798.192" y="103.898" width="4.30467" height="4.93771" fill="#346AF4"/>
<rect x="802.497" y="104.785" width="4.30467" height="4.05145" fill="#346AF4"/>
<rect x="815.664" y="104.785" width="3.1652" height="4.05145" fill="#346AF4"/>
<rect x="829.084" y="104.785" width="62.7975" height="4.17806" fill="#346AF4"/>
<rect x="887.577" y="108.963" width="4.30467" height="11.6479" fill="#346AF4"/>
<rect x="887.577" y="126.941" width="4.30467" height="3.2918" fill="#346AF4"/>
<rect x="887.577" y="136.563" width="4.43127" height="5.31753" fill="#346AF4"/>
<rect x="892.009" y="137.829" width="7.09004" height="4.05145" fill="#346AF4"/>
<rect x="904.416" y="137.829" width="5.31753" height="4.05145" fill="#346AF4"/>
<rect x="905.429" y="141.881" width="4.30467" height="24.6885" fill="#346AF4"/>
<rect x="903.783" y="162.518" width="1.6459" height="4.05145" fill="#346AF4"/>
<rect x="888.463" y="162.518" width="10.002" height="4.05145" fill="#346AF4"/>
<rect x="888.463" y="166.569" width="4.30467" height="43.4265" fill="#346AF4"/>
<rect x="892.768" y="205.944" width="5.57074" height="4.05145" fill="#346AF4"/>
<rect x="905.049" y="205.944" width="4.68449" height="4.30467" fill="#346AF4"/>
<rect x="905.429" y="210.249" width="4.30467" height="24.4353" fill="#346AF4"/>
<rect x="887.451" y="230.506" width="10.8883" height="4.17806" fill="#346AF4"/>
<rect x="887.451" y="241.648" width="4.30467" height="2.53216" fill="#346AF4"/>
<rect x="887.451" y="234.684" width="4.30467" height="0.633039" fill="#346AF4"/>
<rect x="887.451" y="250.51" width="4.30467" height="17.2187" fill="#346AF4"/>
<rect x="829.084" y="263.677" width="58.3662" height="4.05145" fill="#346AF4"/>
<rect x="798.192" y="263.677" width="8.22951" height="4.05145" fill="#346AF4"/>
<rect x="816.044" y="263.677" width="3.41841" height="4.05145" fill="#346AF4"/>
<rect x="798" y="272" width="4" height="4" fill="#346AF4"/>
<rect x="666" y="272" width="132" height="4" fill="#346AF4"/>
<rect x="666" y="276" width="4" height="7" fill="#346AF4"/>
<rect x="642" y="279" width="24" height="4" fill="#346AF4"/>
<rect x="642" y="283" width="4" height="16" fill="#346AF4"/>
<rect x="640" y="299" width="51" height="5" fill="#346AF4"/>
<rect x="691" y="299" width="5" height="69" fill="#346AF4"/>
<rect x="559.916" y="365.723" width="10.6351" height="4.17806" fill="#346AF4"/>
<rect x="743" y="336" width="307" height="4" fill="#346AF4"/>
<rect x="1046" y="298" width="4" height="38" fill="#346AF4"/>
<rect x="1026" y="298" width="20" height="6" fill="#346AF4"/>
<rect x="1026" y="37" width="5" height="263" fill="#346AF4"/>
<rect x="1201" y="599" width="3" height="10" fill="#346AF4"/>
<rect x="1026" y="32" width="210" height="5" fill="#346AF4"/>
<rect x="1201" y="597" width="25" height="2" fill="#346AF4"/>
<rect x="1236" y="32" width="5" height="158" fill="#346AF4"/>
<rect x="1155" y="185" width="81" height="5" fill="#346AF4"/>
<rect x="1155" y="189" width="6" height="424" fill="#346AF4"/>
<rect width="47" height="4" transform="matrix(1 0 0 -1 1161 613)" fill="#346AF4"/>
<rect x="1226" y="597" width="3" height="16" fill="#346AF4"/>
<rect x="1226" y="613" width="7" height="15" fill="#346AF4"/>
<rect x="1233" y="613" width="6" height="127" fill="#346AF4"/>
<rect x="1226" y="731" width="9" height="26" fill="#346AF4"/>
<rect x="1218" y="743" width="8" height="14" fill="#346AF4"/>
<rect x="1009" y="735" width="23" height="17" fill="#346AF4"/>
<rect x="1226" y="656" width="7" height="12" fill="#346AF4"/>
<rect x="1223" y="609" width="3" height="4" fill="#346AF4"/>
<rect x="1009" y="605" width="19" height="23" fill="#346AF4"/>
<rect x="1023" y="461" width="5" height="144" fill="#346AF4"/>
<rect x="747" y="461" width="276" height="4" fill="#346AF4"/>
<rect x="1004" y="609" width="5" height="136" fill="#346AF4"/>
<rect x="696" y="364" width="41" height="4" fill="#346AF4"/>
<rect x="737" y="336" width="6" height="32" fill="#346AF4"/>
<rect x="1028" y="752" width="190" height="5" fill="#346AF4"/>
<rect x="234.333" y="357.576" width="1.43089" height="2.48695" rx="0.715447" fill="#346AF4"/>
<rect x="235.049" y="359.885" width="0.715447" height="1.15466" rx="0.357724" fill="#346AF4"/>
<rect width="0.64184" height="1.18159" rx="0.32092" transform="matrix(0.916138 -0.400862 0.405492 0.914098 235.049 361.031)" fill="#346AF4"/>
<rect width="1.18044" height="0.522113" rx="0.261056" transform="matrix(0.924269 -0.381741 0.386231 0.922402 233.35 360.069)" fill="#346AF4"/>
<rect width="0.536524" height="1.42128" rx="0.268262" transform="matrix(0.991663 0.128862 -0.130611 0.991434 233.356 360.063)" fill="#346AF4"/>
<rect x="233.188" y="358.073" width="1.71875" height="0.682802" rx="0.341401" fill="#346AF4"/>
<rect width="1.6179" height="0.569585" rx="0.284793" transform="matrix(0.856372 0.51636 -0.52156 0.853215 235.525 357.576)" fill="#346AF4"/>
<ellipse cx="234.825" cy="356.91" rx="0.581301" ry="0.577329" fill="#346AF4"/>
<path d="M228.965 356.752C228.828 356.772 228.733 356.899 228.753 357.035L229.071 359.263C229.09 359.399 229.217 359.494 229.354 359.475C229.49 359.455 229.585 359.329 229.566 359.192L229.283 357.212L231.263 356.929C231.399 356.91 231.494 356.783 231.475 356.646C231.455 356.51 231.329 356.415 231.192 356.434L228.965 356.752ZM233.15 359.8L229.15 356.8L228.85 357.2L232.85 360.2L233.15 359.8Z" fill="#346AF4"/>
<rect x="227.805" y="360.329" width="0.98374" height="0.621738" fill="#346AF4"/>
<rect x="228.073" y="360.862" width="2.50407" height="0.621738" fill="#346AF4"/>
<rect x="229.862" y="361.484" width="2.68293" height="0.710558" fill="#346AF4"/>
<rect x="231.829" y="362.194" width="2.77236" height="0.799378" fill="#346AF4"/>
<rect x="233.886" y="362.994" width="2.14634" height="0.621738" fill="#346AF4"/>
<rect x="235.496" y="363.616" width="1.43089" height="0.621738" fill="#346AF4"/>
<rect x="227.5" y="355.5" width="10" height="9.21427" stroke="#815E5E"/>
<rect x="1052" y="367" width="18" height="1" fill="#D9D9D9"/>
<rect x="1052" y="365" width="18" height="1" fill="#D9D9D9"/>
<rect x="1052" y="363" width="18" height="1" fill="#D9D9D9"/>
<rect x="1052" y="361" width="18" height="1" fill="#D9D9D9"/>
<rect x="1052" y="359" width="18" height="1" fill="#D9D9D9"/>
<rect x="1052" y="357" width="18" height="1" fill="#D9D9D9"/>
<rect x="1052" y="355" width="18" height="1" fill="#D9D9D9"/>
<rect x="1052" y="353" width="18" height="1" fill="#D9D9D9"/>
<rect x="1050" y="353" width="13" height="1" transform="rotate(-90 1050 353)" fill="#D9D9D9"/>
<rect x="1048" y="353" width="13" height="1" transform="rotate(-90 1048 353)" fill="#D9D9D9"/>
<rect x="1046" y="353" width="13" height="1" transform="rotate(-90 1046 353)" fill="#D9D9D9"/>
<rect x="1044" y="353" width="13" height="1" transform="rotate(-90 1044 353)" fill="#D9D9D9"/>
<rect x="1042" y="353" width="13" height="1" transform="rotate(-90 1042 353)" fill="#D9D9D9"/>
<rect x="1040" y="353" width="13" height="1" transform="rotate(-90 1040 353)" fill="#D9D9D9"/>
<rect x="1038" y="353" width="13" height="1" transform="rotate(-90 1038 353)" fill="#D9D9D9"/>
<rect x="1036" y="354" width="14" height="1" transform="rotate(-90 1036 354)" fill="#D9D9D9"/>
<rect x="1019" y="354" width="17" height="1" fill="#D9D9D9"/>
<rect x="1019" y="356" width="17" height="1" fill="#D9D9D9"/>
<rect x="1019" y="358" width="17" height="1" fill="#D9D9D9"/>
<rect x="1019" y="360" width="17" height="1" fill="#D9D9D9"/>
<rect x="1019" y="362" width="17" height="1" fill="#D9D9D9"/>
<rect x="1019" y="364" width="17" height="1" fill="#D9D9D9"/>
<rect x="1019" y="366" width="17" height="1" fill="#D9D9D9"/>
<rect x="1019" y="368" width="18" height="1" fill="black"/>
<rect x="1036" y="353" width="16" height="17" rx="2" fill="black"/>
<rect x="1063.33" y="353.576" width="1.43089" height="2.48695" rx="0.715447" fill="#346AF4"/>
<rect x="1064.05" y="355.885" width="0.715447" height="1.15466" rx="0.357724" fill="#346AF4"/>
<rect width="0.64184" height="1.18159" rx="0.32092" transform="matrix(0.916138 -0.400862 0.405492 0.914098 1064.05 357.031)" fill="#346AF4"/>
<rect width="1.18044" height="0.522113" rx="0.261056" transform="matrix(0.924269 -0.381741 0.386231 0.922402 1062.35 356.069)" fill="#346AF4"/>
<rect width="0.536524" height="1.42128" rx="0.268262" transform="matrix(0.991663 0.128862 -0.130611 0.991434 1062.36 356.063)" fill="#346AF4"/>
<rect x="1062.19" y="354.073" width="1.71875" height="0.682802" rx="0.341401" fill="#346AF4"/>
<rect width="1.6179" height="0.569585" rx="0.284793" transform="matrix(0.856372 0.51636 -0.52156 0.853215 1064.52 353.576)" fill="#346AF4"/>
<ellipse cx="1063.83" cy="352.91" rx="0.581301" ry="0.577329" fill="#346AF4"/>
<path d="M1057.96 352.752C1057.83 352.772 1057.73 352.899 1057.75 353.035L1058.07 355.263C1058.09 355.399 1058.22 355.494 1058.35 355.475C1058.49 355.455 1058.59 355.329 1058.57 355.192L1058.28 353.212L1060.26 352.929C1060.4 352.91 1060.49 352.783 1060.47 352.646C1060.46 352.51 1060.33 352.415 1060.19 352.434L1057.96 352.752ZM1062.15 355.8L1058.15 352.8L1057.85 353.2L1061.85 356.2L1062.15 355.8Z" fill="#346AF4"/>
<rect x="1056.8" y="356.329" width="0.98374" height="0.621738" fill="#346AF4"/>
<rect x="1057.07" y="356.862" width="2.50407" height="0.621738" fill="#346AF4"/>
<rect x="1058.86" y="357.484" width="2.68293" height="0.710558" fill="#346AF4"/>
<rect x="1060.83" y="358.194" width="2.77236" height="0.799378" fill="#346AF4"/>
<rect x="1062.89" y="358.994" width="2.14634" height="0.621738" fill="#346AF4"/>
<rect x="1064.5" y="359.616" width="1.43089" height="0.621738" fill="#346AF4"/>
<rect x="1056.5" y="351.5" width="10" height="9.21427" stroke="#815E5E"/>
<rect x="550" y="423" width="151" height="1" fill="#D9D9D9"/>
<rect x="550" y="427" width="151" height="1" fill="#D9D9D9"/>
<rect x="550" y="429" width="151" height="1" fill="#D9D9D9"/>
<rect x="550" y="425" width="151" height="1" fill="#D9D9D9"/>
</svg>
