<svg width="1311" height="784" viewBox="0 0 1311 784" fill="none" xmlns="http://www.w3.org/2000/svg">
<rect width="1311" height="784" fill="white"/>
<rect x="226" y="379" width="17" height="1" fill="#D9D9D9"/>
<rect x="226" y="377" width="17" height="1" fill="#D9D9D9"/>
<rect x="226" y="375" width="17" height="1" fill="#D9D9D9"/>
<rect x="226" y="373" width="17" height="1" fill="#D9D9D9"/>
<rect x="226" y="371" width="17" height="1" fill="#D9D9D9"/>
<rect x="226" y="369" width="17" height="1" fill="#D9D9D9"/>
<rect x="226" y="367" width="17" height="1" fill="#D9D9D9"/>
<rect x="226" y="365" width="17" height="1" fill="#D9D9D9"/>
<rect x="223" y="364" width="11" height="1" transform="rotate(-90 223 364)" fill="#D9D9D9"/>
<rect x="221" y="364" width="11" height="1" transform="rotate(-90 221 364)" fill="#D9D9D9"/>
<rect x="219" y="364" width="11" height="1" transform="rotate(-90 219 364)" fill="#D9D9D9"/>
<rect x="217" y="364" width="11" height="1" transform="rotate(-90 217 364)" fill="#D9D9D9"/>
<rect x="215" y="364" width="11" height="1" transform="rotate(-90 215 364)" fill="#D9D9D9"/>
<rect x="213" y="364" width="11" height="1" transform="rotate(-90 213 364)" fill="#D9D9D9"/>
<rect x="211" y="364" width="12" height="1" transform="rotate(-90 211 364)" fill="#D9D9D9"/>
<rect x="192" y="366" width="18" height="1" fill="#D9D9D9"/>
<rect x="192" y="368" width="18" height="1" fill="#D9D9D9"/>
<rect x="192" y="370" width="18" height="1" fill="#D9D9D9"/>
<rect x="192" y="372" width="18" height="1" fill="#D9D9D9"/>
<rect x="192" y="374" width="18" height="1" fill="#D9D9D9"/>
<rect x="192" y="376" width="18" height="1" fill="#D9D9D9"/>
<rect x="192" y="378" width="18" height="1" fill="#D9D9D9"/>
<rect x="192" y="380" width="20" height="1" fill="black"/>
<rect x="521" y="349" width="5" height="11" fill="black"/>
<rect x="521" y="369" width="5.19092" height="11.2681" fill="black"/>
<rect x="526" y="376" width="36" height="4" fill="black"/>
<rect x="502" y="353" width="2" height="43" fill="black"/>
<rect x="497" y="396" width="9" height="2" fill="black"/>
<rect x="521" y="380" width="5" height="18" fill="black"/>
<rect x="476" y="353" width="2" height="43" fill="black"/>
<rect x="472" y="396" width="10" height="2" fill="black"/>
<rect x="451" y="353" width="2" height="43" fill="black"/>
<rect x="422" y="396" width="35" height="2" fill="black"/>
<rect x="368" y="396" width="36" height="2" fill="black"/>
<rect x="343" y="396" width="10.002" height="1.77251" fill="black"/>
<rect x="315" y="396" width="13" height="2" fill="black"/>
<rect x="265" y="395" width="35" height="3" fill="black"/>
<rect x="240" y="396" width="10" height="2" fill="black"/>
<rect x="207" y="396" width="6.71022" height="2.02573" fill="black"/>
<rect x="223" y="396" width="6.83682" height="1.77251" fill="black"/>
<rect x="189" y="396" width="6" height="2" fill="black"/>
<rect x="372" y="353" width="3" height="43" fill="black"/>
<rect x="347" y="353" width="3" height="43" fill="black"/>
<rect x="321" y="353" width="3" height="43" fill="black"/>
<rect x="269" y="353" width="3" height="42" fill="black"/>
<rect x="243" y="353" width="3" height="43" fill="black"/>
<rect x="189" y="341" width="3" height="55" fill="black"/>
<rect x="192" y="350" width="21" height="2" fill="black"/>
<rect x="192" y="316" width="21" height="2" fill="black"/>
<rect x="190.337" y="306.495" width="1.89912" height="19.371" fill="black"/>
<rect x="210" y="364" width="16" height="17" rx="2" fill="black"/>
<rect x="347" y="429" width="3" height="43" fill="black"/>
<rect x="237" y="430" width="3" height="42" fill="black"/>
<rect x="213" y="430" width="3" height="45" fill="black"/>
<rect x="373" y="430" width="3" height="42" fill="black"/>
<rect x="344" y="427" width="10" height="3" fill="black"/>
<rect x="368" y="427" width="63" height="3" fill="black"/>
<rect x="446" y="427" width="80" height="3" fill="black"/>
<rect x="520" y="430" width="3" height="24" fill="black"/>
<rect x="505" y="430" width="3" height="42" fill="black"/>
<rect x="508" y="447" width="3" height="3" fill="black"/>
<rect x="517" y="447" width="3" height="3" fill="black"/>
<rect x="521" y="468" width="2" height="35" fill="black"/>
<rect x="234" y="427" width="96" height="3" fill="black"/>
<rect x="212" y="427" width="8" height="3" fill="black"/>
<rect x="190" y="427" width="7" height="3" fill="black"/>
<rect x="190" y="430" width="3" height="90" fill="black"/>
<rect x="192" y="475" width="40" height="2" fill="black"/>
<rect x="193" y="538" width="39" height="2" fill="black"/>
<rect x="192" y="618" width="40" height="2" fill="black"/>
<rect x="190" y="587" width="3" height="136" fill="black"/>
<rect x="190" y="533" width="3" height="38" fill="black"/>
<rect x="175" y="669" width="17" height="3" fill="black"/>
<rect x="80" y="670" width="88" height="2" fill="black"/>
<rect x="56" y="670" width="12" height="4" fill="black"/>
<rect x="164" y="672" width="2" height="51" fill="black"/>
<rect x="97" y="672" width="4" height="51" fill="black"/>
<rect x="88" y="624" width="2" height="26" fill="black"/>
<rect x="88" y="652" width="2" height="5" fill="black"/>
<rect x="88" y="650" width="24" height="2" fill="black"/>
<rect x="129" y="650" width="41" height="2" fill="black"/>
<rect x="134" y="624" width="3" height="26" fill="black"/>
<rect x="166" y="611" width="3" height="28" fill="black"/>
<rect x="167.19" y="536.97" width="1.89912" height="61.4048" fill="black"/>
<rect x="124" y="622" width="44" height="2" fill="black"/>
<rect x="124" y="538" width="44" height="3" fill="black"/>
<rect x="124" y="513" width="43" height="3" fill="black"/>
<rect x="124" y="483" width="43" height="2" fill="black"/>
<rect x="124" y="456" width="43" height="2" fill="black"/>
<rect x="124" y="428" width="43" height="2" fill="black"/>
<rect x="124" y="395" width="43" height="2" fill="black"/>
<rect x="124" y="361" width="43" height="2" fill="black"/>
<rect x="124" y="334" width="43" height="2" fill="black"/>
<rect x="124" y="310" width="43" height="2" fill="black"/>
<rect x="124" y="232" width="43" height="2" fill="black"/>
<rect x="88" y="670" width="6" height="2" transform="rotate(-90 88 670)" fill="black"/>
<rect x="167" y="506" width="2" height="15" fill="black"/>
<rect x="167" y="478" width="2" height="14" fill="black"/>
<rect x="167" y="450" width="2" height="14" fill="black"/>
<rect x="167" y="416" width="2" height="20" fill="black"/>
<rect x="167" y="385" width="2" height="17" fill="black"/>
<rect x="167" y="355" width="2" height="15" fill="black"/>
<rect x="167" y="330" width="2" height="11" fill="black"/>
<rect x="167" y="307" width="2" height="9" fill="black"/>
<rect x="167" y="168" width="2" height="124" fill="black"/>
<rect x="162" y="175" width="5" height="2" fill="black"/>
<rect x="162" y="210" width="5" height="3" fill="black"/>
<rect x="144" y="211" width="4" height="2" fill="black"/>
<rect x="143" y="177" width="2" height="56" fill="black"/>
<rect x="119.611" y="175.222" width="27.0941" height="1.77251" fill="black"/>
<rect x="117.712" y="168.005" width="1.89912" height="17.4719" fill="black"/>
<rect x="117.712" y="147.115" width="1.89912" height="6.71022" fill="black"/>
<rect x="68.3345" y="175.222" width="6.33039" height="1.77251" fill="black"/>
<rect x="95.0488" y="175.222" width="6.457" height="1.77251" fill="black"/>
<rect x="117.712" y="199.657" width="1.89912" height="27.9803" fill="black"/>
<rect x="46" y="145" width="122" height="2" fill="black"/>
<rect x="167.19" y="83.0515" width="1.89912" height="70.7738" fill="black"/>
<rect x="190" y="83" width="2" height="7" fill="black"/>
<rect x="190" y="103" width="2" height="5" fill="black"/>
<rect x="190" y="123" width="2" height="5" fill="black"/>
<rect x="190" y="142" width="2" height="10" fill="black"/>
<rect x="179" y="145" width="55" height="1" fill="black"/>
<rect x="192" y="124" width="42" height="2" fill="black"/>
<rect x="192" y="105" width="42" height="1" fill="black"/>
<rect x="192" y="176" width="42" height="1" fill="black"/>
<rect x="192" y="237" width="42" height="2" fill="black"/>
<rect x="190" y="168" width="2" height="39" fill="black"/>
<rect x="190" y="223" width="2" height="71" fill="black"/>
<rect x="113.534" y="108.626" width="6.20378" height="7.09004" fill="black"/>
<rect x="76.0576" y="108.626" width="6.33039" height="7.09004" fill="black"/>
<rect x="551.813" y="427.367" width="7.97629" height="7.34326" fill="black"/>
<rect x="597.886" y="427.367" width="7.97629" height="7.34326" fill="black"/>
<rect x="645.857" y="427.367" width="7.97629" height="7.34326" fill="black"/>
<rect x="694.082" y="427.367" width="7.97629" height="7.34326" fill="black"/>
<rect x="572" y="378" width="50" height="2" fill="black"/>
<rect x="644" y="378" width="49" height="2" fill="black"/>
<rect x="591" y="333" width="19" height="29" fill="black"/>
<rect x="610" y="333" width="3" height="5" fill="black"/>
<rect x="654" y="334" width="20" height="4" fill="black"/>
<rect x="656" y="338" width="18" height="24" fill="black"/>
<rect x="573" y="360" width="18" height="2" fill="black"/>
<rect x="674" y="360" width="19" height="2" fill="black"/>
<rect x="166" y="645" width="4" height="5" fill="black"/>
<rect x="740" y="380" width="5" height="18" fill="black"/>
<rect x="745" y="395" width="62" height="3" fill="black"/>
<rect x="822" y="395" width="69" height="3" fill="black"/>
<rect x="883" y="352" width="3" height="44" fill="black"/>
<rect x="911" y="352" width="3" height="44" fill="black"/>
<rect x="906" y="395" width="12" height="3" fill="black"/>
<rect x="749" y="427" width="3" height="46" fill="black"/>
<rect x="732" y="427" width="17" height="3" fill="black"/>
<rect x="732" y="430" width="2" height="24" fill="black"/>
<rect x="733" y="469" width="2" height="34" fill="black"/>
<rect x="734" y="446" width="3" height="2" fill="black"/>
<rect x="746" y="446" width="3" height="2" fill="black"/>
<rect x="752" y="427" width="57" height="3" fill="black"/>
<rect x="823" y="427" width="58" height="3" fill="black"/>
<rect x="881" y="427" width="3" height="46" fill="black"/>
<rect x="884" y="427" width="61" height="3" fill="black"/>
<rect x="932" y="395" width="67" height="3" fill="black"/>
<rect x="991" y="352" width="3" height="43" fill="black"/>
<rect x="959" y="427" width="45" height="3" fill="black"/>
<rect x="991" y="430" width="3" height="43" fill="black"/>
<rect x="1018" y="427" width="56" height="3" fill="black"/>
<rect x="1027" y="430" width="3" height="43" fill="black"/>
<rect x="1071" y="430" width="3" height="66" fill="black"/>
<rect x="1030" y="473" width="9" height="3" fill="black"/>
<rect x="1064" y="473" width="7" height="3" fill="black"/>
<rect x="1071" y="510" width="3" height="64" fill="black"/>
<rect x="1071" y="587" width="3" height="54" fill="black"/>
<rect x="1030" y="619" width="41" height="3" fill="black"/>
<rect x="1059" y="513" width="12" height="3" fill="black"/>
<rect x="1030" y="513" width="13" height="3" fill="black"/>
<rect x="1018" y="352" width="3" height="43" fill="black"/>
<rect x="1014" y="395" width="11" height="3" fill="black"/>
<rect x="1035" y="395" width="6" height="3" fill="black"/>
<rect x="1052" y="395" width="6" height="3" fill="black"/>
<rect x="1069" y="395" width="5" height="3" fill="black"/>
<rect x="1052" y="349" width="20" height="3" fill="black"/>
<rect x="1072" y="339" width="2" height="56" fill="black"/>
<rect x="1072" y="283" width="2" height="41" fill="black"/>
<rect x="1052" y="310" width="20" height="2" fill="black"/>
<rect x="508" y="481" width="13" height="2" fill="black"/>
<rect x="1033" y="257" width="39" height="3" fill="black"/>
<rect x="1072" y="227" width="2" height="41" fill="black"/>
<rect x="1033" y="199" width="39" height="2" fill="black"/>
<rect x="1072" y="193" width="2" height="20" fill="black"/>
<rect x="1074" y="197" width="12" height="5" fill="black"/>
<rect x="1098" y="197" width="59" height="5" fill="black"/>
<rect x="1112" y="182" width="3" height="59" fill="black"/>
<rect x="1033" y="173" width="39" height="2" fill="black"/>
<rect x="1072" y="135" width="2" height="45" fill="black"/>
<rect x="1033" y="144" width="39" height="2" fill="black"/>
<rect x="1072" y="110" width="2" height="11" fill="black"/>
<rect x="1033" y="113" width="39" height="2" fill="black"/>
<rect x="1033" y="90" width="21" height="2" fill="black"/>
<rect x="1049" y="87" width="2" height="3" fill="black"/>
<rect x="1070" y="90" width="2" height="2" fill="black"/>
<rect x="1072" y="49" width="2" height="47" fill="black"/>
<rect x="1049" y="49" width="2" height="25" fill="black"/>
<rect x="1112" y="49" width="3" height="28" fill="black"/>
<rect x="1112" y="90" width="3" height="33" fill="black"/>
<rect x="1112" y="138" width="3" height="31" fill="black"/>
<rect x="1115" y="145" width="3" height="3" fill="black"/>
<rect x="1133" y="145" width="12" height="3" fill="black"/>
<rect x="1145" y="137" width="3" height="60" fill="black"/>
<rect x="1145" y="115" width="3" height="9" fill="black"/>
<rect x="1115" y="112" width="123" height="4" fill="black"/>
<rect x="1167" y="145" width="7" height="6" fill="black"/>
<rect x="1191" y="145" width="6" height="6" fill="black"/>
<rect x="1216" y="145" width="6" height="6" fill="black"/>
<rect x="1112" y="255" width="3" height="13" fill="black"/>
<rect x="1115" y="261" width="42" height="2" fill="black"/>
<rect x="1112" y="282" width="3" height="16" fill="black"/>
<rect x="1115" y="291" width="42" height="2" fill="black"/>
<rect x="1112" y="311" width="3" height="11" fill="black"/>
<rect x="1115" y="314" width="42" height="2" fill="black"/>
<rect x="1112" y="335" width="3" height="14" fill="black"/>
<rect x="1115" y="339" width="42" height="2" fill="black"/>
<rect x="1112" y="362" width="3" height="13" fill="black"/>
<rect x="1115" y="366" width="42" height="3" fill="black"/>
<rect x="1112" y="389" width="3" height="18" fill="black"/>
<rect x="1115" y="395" width="42" height="3" fill="black"/>
<rect x="1112" y="420" width="3" height="15" fill="black"/>
<rect x="1115" y="425" width="42" height="3" fill="black"/>
<rect x="1112" y="448" width="3" height="13" fill="black"/>
<rect x="1115" y="452" width="42" height="3" fill="black"/>
<rect x="1115" y="479" width="42" height="3" fill="black"/>
<rect x="1112" y="475" width="3" height="97" fill="black"/>
<rect x="1112" y="585" width="3" height="16" fill="black"/>
<rect x="1115" y="591" width="42" height="3" fill="black"/>
<rect x="1112" y="614" width="3" height="46" fill="black"/>
<rect x="1115" y="622" width="42" height="3" fill="black"/>
<rect x="1145" y="625" width="2" height="53" fill="black"/>
<rect x="1112" y="673" width="3" height="5" fill="black"/>
<rect x="1112" y="678" width="42" height="2" fill="black"/>
<rect x="1169" y="678" width="36" height="2" fill="black"/>
<rect x="1205" y="625" width="3" height="60" fill="black"/>
<rect x="1071" y="655" width="3" height="109" fill="#070707"/>
<rect x="1074" y="709" width="13" height="3" fill="#070707"/>
<rect x="1101" y="709" width="64" height="3" fill="#070707"/>
<rect x="1112" y="712" width="3" height="52" fill="#070707"/>
<rect x="1120" y="719" width="13" height="3" fill="#070707"/>
<rect x="1145" y="733" width="3" height="31" fill="#070707"/>
<rect x="1180" y="709" width="30" height="3" fill="#070707"/>
<rect x="1205" y="699" width="2" height="10" fill="#070707"/>
<rect x="1195" y="712" width="3" height="52" fill="#070707"/>
<rect x="1225" y="709" width="10" height="3" fill="#070707"/>
<rect x="1133" y="719" width="20.7809" height="2.68567" transform="rotate(44.3595 1133 719)" fill="#070707"/>
<rect x="42" y="79" width="196" height="4" fill="#346AF4"/>
<rect x="234" y="82" width="4" height="75" fill="#346AF4"/>
<rect x="234" y="157" width="4" height="162" fill="#346AF4"/>
<rect x="213" y="315" width="25" height="5" fill="#346AF4"/>
<rect x="213" y="319" width="5" height="31" fill="#346AF4"/>
<rect x="213" y="349" width="308" height="4" fill="#346AF4"/>
<rect x="42" y="83" width="4" height="149" fill="#346AF4"/>
<rect x="506.462" y="283.907" width="4.55788" height="67.1022" fill="#346AF4"/>
<rect x="511.02" y="283.907" width="25.3216" height="4.05145" fill="#346AF4"/>
<rect x="531.55" y="286.389" width="5.05011" height="98.0023" transform="rotate(-18.4176 531.55 286.389)" fill="#346AF4"/>
<rect x="566" y="311" width="5" height="67" fill="#346AF4"/>
<rect x="571" y="311" width="50" height="5" fill="#346AF4"/>
<rect x="614" y="291" width="5" height="20" fill="#346AF4"/>
<rect x="606" y="291" width="8" height="4" fill="#346AF4"/>
<rect x="591" y="291" width="8" height="4" fill="#346AF4"/>
<rect x="591" y="284" width="5" height="7" fill="#346AF4"/>
<rect x="591.289" y="250.609" width="4.30467" height="27.4739" fill="#346AF4"/>
<rect x="570.526" y="250.609" width="20.7637" height="4.05145" fill="#346AF4"/>
<rect x="574.324" y="211.487" width="4.30467" height="39.1218" fill="#346AF4"/>
<rect x="46" y="228" width="78" height="4" fill="#346AF4"/>
<rect x="119" y="232" width="5" height="392" fill="#346AF4"/>
<rect x="52" y="620" width="67" height="4" fill="#346AF4"/>
<rect x="52" y="624" width="4" height="89" fill="#346AF4"/>
<rect x="55" y="624" width="14" height="37" fill="#346AF4"/>
<rect x="56" y="704" width="8" height="23" fill="#346AF4"/>
<rect x="64" y="715" width="8" height="12" fill="#346AF4"/>
<rect x="72" y="723" width="176" height="4" fill="#346AF4"/>
<rect x="238" y="713" width="10" height="10" fill="#346AF4"/>
<rect x="248" y="702" width="10" height="17" fill="#346AF4"/>
<rect x="258" y="617" width="4" height="98" fill="#346AF4"/>
<rect x="237" y="617" width="25" height="19" fill="#346AF4"/>
<rect x="232" y="472" width="5" height="157" fill="#346AF4"/>
<rect x="237" y="472" width="271" height="5" fill="#346AF4"/>
<rect x="503" y="477" width="5" height="30" fill="#346AF4"/>
<rect x="508" y="503" width="37" height="4" fill="#346AF4"/>
<rect x="545" y="484" width="23" height="23" fill="#346AF4"/>
<rect x="568" y="503" width="2" height="4" fill="#346AF4"/>
<rect x="590.909" y="502.685" width="1.6459" height="4.05145" fill="#346AF4"/>
<rect x="592.555" y="483.188" width="20.7637" height="23.5491" fill="#346AF4"/>
<rect x="613.319" y="502.685" width="2.40555" height="4.05145" fill="#346AF4"/>
<rect x="636.995" y="502.685" width="2.53216" height="4.05145" fill="#346AF4"/>
<rect x="639.527" y="483.188" width="20.8903" height="23.5491" fill="#346AF4"/>
<rect x="660.417" y="502.685" width="2.53216" height="4.05145" fill="#346AF4"/>
<rect x="684" y="503" width="3" height="5" fill="#346AF4"/>
<rect x="687" y="483" width="22" height="25" fill="#346AF4"/>
<rect x="708" y="503" width="45" height="5" fill="#346AF4"/>
<rect x="749" y="474" width="4" height="29" fill="#346AF4"/>
<rect x="570.526" y="247.064" width="3.79824" height="3.54502" fill="#346AF4"/>
<rect x="574.324" y="192.876" width="4.30467" height="9.49559" fill="#346AF4"/>
<rect x="574.324" y="141.473" width="4.30467" height="43.6797" fill="#346AF4"/>
<rect x="570.652" y="141.473" width="3.67163" height="7.59647" fill="#346AF4"/>
<rect x="578.628" y="141.473" width="18.1049" height="4.05145" fill="#346AF4"/>
<rect x="592.429" y="118.177" width="4.30467" height="23.2958" fill="#346AF4"/>
<rect x="592.429" y="100.705" width="4.30467" height="11.1415" fill="#346AF4"/>
<rect x="604.963" y="100.705" width="5.82396" height="4.17806" fill="#346AF4"/>
<rect x="606.482" y="86.652" width="4.30467" height="14.0535" fill="#346AF4"/>
<rect x="610.787" y="86.652" width="46.8449" height="4.05145" fill="#346AF4"/>
<rect x="653.2" y="90.7034" width="4.43127" height="14.1801" fill="#346AF4"/>
<rect x="657.632" y="100.832" width="29.8795" height="4.05145" fill="#346AF4"/>
<rect x="683.206" y="104.884" width="4.30467" height="7.21665" fill="#346AF4"/>
<rect x="687.511" y="107.922" width="116.986" height="4.17806" fill="#346AF4"/>
<rect x="800.192" y="115.898" width="4.30467" height="4.93771" fill="#346AF4"/>
<rect x="804.497" y="116.785" width="4.30467" height="4.05145" fill="#346AF4"/>
<rect x="817.664" y="116.785" width="3.1652" height="4.05145" fill="#346AF4"/>
<rect x="831.084" y="116.785" width="62.7975" height="4.17806" fill="#346AF4"/>
<rect x="889.577" y="120.963" width="4.30467" height="11.6479" fill="#346AF4"/>
<rect x="889.577" y="138.941" width="4.30467" height="3.2918" fill="#346AF4"/>
<rect x="889.577" y="148.563" width="4.43127" height="5.31753" fill="#346AF4"/>
<rect x="894.009" y="149.829" width="7.09004" height="4.05145" fill="#346AF4"/>
<rect x="906.416" y="149.829" width="5.31753" height="4.05145" fill="#346AF4"/>
<rect x="907.429" y="153.881" width="4.30467" height="24.6885" fill="#346AF4"/>
<rect x="905.783" y="174.518" width="1.6459" height="4.05145" fill="#346AF4"/>
<rect x="890.463" y="174.518" width="10.002" height="4.05145" fill="#346AF4"/>
<rect x="890.463" y="178.569" width="4.30467" height="43.4265" fill="#346AF4"/>
<rect x="894.768" y="217.944" width="5.57074" height="4.05145" fill="#346AF4"/>
<rect x="907.049" y="217.944" width="4.68449" height="4.30467" fill="#346AF4"/>
<rect x="907.429" y="222.249" width="4.30467" height="24.4353" fill="#346AF4"/>
<rect x="889.451" y="242.506" width="10.8883" height="4.17806" fill="#346AF4"/>
<rect x="889.451" y="253.648" width="4.30467" height="2.53216" fill="#346AF4"/>
<rect x="889.451" y="246.684" width="4.30467" height="0.633039" fill="#346AF4"/>
<rect x="889.451" y="262.51" width="4.30467" height="17.2187" fill="#346AF4"/>
<rect x="831.084" y="275.677" width="58.3662" height="4.05145" fill="#346AF4"/>
<rect x="800.192" y="275.677" width="8.22951" height="4.05145" fill="#346AF4"/>
<rect x="818.044" y="275.677" width="3.41841" height="4.05145" fill="#346AF4"/>
<rect x="800" y="284" width="4" height="4" fill="#346AF4"/>
<rect x="668" y="284" width="132" height="4" fill="#346AF4"/>
<rect x="668" y="288" width="4" height="7" fill="#346AF4"/>
<rect x="644" y="291" width="24" height="4" fill="#346AF4"/>
<rect x="644" y="295" width="4" height="16" fill="#346AF4"/>
<rect x="642" y="311" width="51" height="5" fill="#346AF4"/>
<rect x="693" y="311" width="5" height="69" fill="#346AF4"/>
<rect x="561.916" y="377.723" width="10.6351" height="4.17806" fill="#346AF4"/>
<rect x="745" y="348" width="307" height="4" fill="#346AF4"/>
<rect x="1048" y="310" width="4" height="38" fill="#346AF4"/>
<rect x="1028" y="310" width="20" height="6" fill="#346AF4"/>
<rect x="1028" y="49" width="5" height="263" fill="#346AF4"/>
<rect x="1203" y="611" width="3" height="10" fill="#346AF4"/>
<rect x="1028" y="44" width="210" height="5" fill="#346AF4"/>
<rect x="1203" y="609" width="25" height="2" fill="#346AF4"/>
<rect x="1238" y="44" width="5" height="158" fill="#346AF4"/>
<rect x="1157" y="197" width="81" height="5" fill="#346AF4"/>
<rect x="1157" y="201" width="6" height="424" fill="#346AF4"/>
<rect width="47" height="4" transform="matrix(1 0 0 -1 1163 625)" fill="#346AF4"/>
<rect x="1228" y="609" width="3" height="16" fill="#346AF4"/>
<rect x="1228" y="625" width="7" height="15" fill="#346AF4"/>
<rect x="1235" y="625" width="6" height="127" fill="#346AF4"/>
<rect x="1228" y="743" width="9" height="26" fill="#346AF4"/>
<rect x="1220" y="755" width="8" height="14" fill="#346AF4"/>
<rect x="1011" y="747" width="23" height="17" fill="#346AF4"/>
<rect x="1228" y="668" width="7" height="12" fill="#346AF4"/>
<rect x="1225" y="621" width="3" height="4" fill="#346AF4"/>
<rect x="1011" y="617" width="19" height="23" fill="#346AF4"/>
<rect x="1025" y="473" width="5" height="144" fill="#346AF4"/>
<rect x="749" y="473" width="276" height="4" fill="#346AF4"/>
<rect x="1006" y="621" width="5" height="136" fill="#346AF4"/>
<rect x="698" y="376" width="41" height="4" fill="#346AF4"/>
<rect x="739" y="348" width="6" height="32" fill="#346AF4"/>
<rect x="1030" y="764" width="190" height="5" fill="#346AF4"/>
<rect x="236.333" y="369.576" width="1.43089" height="2.48695" rx="0.715447" fill="#346AF4"/>
<rect x="237.049" y="371.885" width="0.715447" height="1.15466" rx="0.357724" fill="#346AF4"/>
<rect width="0.64184" height="1.18159" rx="0.32092" transform="matrix(0.916138 -0.400862 0.405492 0.914098 237.049 373.031)" fill="#346AF4"/>
<rect width="1.18044" height="0.522113" rx="0.261056" transform="matrix(0.924269 -0.381741 0.386231 0.922402 235.35 372.069)" fill="#346AF4"/>
<rect width="0.536524" height="1.42128" rx="0.268262" transform="matrix(0.991663 0.128862 -0.130611 0.991434 235.356 372.063)" fill="#346AF4"/>
<rect x="235.188" y="370.073" width="1.71875" height="0.682802" rx="0.341401" fill="#346AF4"/>
<rect width="1.6179" height="0.569585" rx="0.284793" transform="matrix(0.856372 0.51636 -0.52156 0.853215 237.525 369.576)" fill="#346AF4"/>
<ellipse cx="236.825" cy="368.91" rx="0.581301" ry="0.577329" fill="#346AF4"/>
<path d="M230.965 368.752C230.828 368.772 230.733 368.899 230.753 369.035L231.071 371.263C231.09 371.399 231.217 371.494 231.354 371.475C231.49 371.455 231.585 371.329 231.566 371.192L231.283 369.212L233.263 368.929C233.399 368.91 233.494 368.783 233.475 368.646C233.455 368.51 233.329 368.415 233.192 368.434L230.965 368.752ZM235.15 371.8L231.15 368.8L230.85 369.2L234.85 372.2L235.15 371.8Z" fill="#346AF4"/>
<rect x="229.805" y="372.329" width="0.98374" height="0.621738" fill="#346AF4"/>
<rect x="230.073" y="372.862" width="2.50407" height="0.621738" fill="#346AF4"/>
<rect x="231.862" y="373.484" width="2.68293" height="0.710558" fill="#346AF4"/>
<rect x="233.829" y="374.194" width="2.77236" height="0.799378" fill="#346AF4"/>
<rect x="235.886" y="374.994" width="2.14634" height="0.621738" fill="#346AF4"/>
<rect x="237.496" y="375.616" width="1.43089" height="0.621738" fill="#346AF4"/>
<rect x="229.5" y="367.5" width="10" height="9.21427" stroke="#815E5E"/>
<rect x="1054" y="379" width="18" height="1" fill="#D9D9D9"/>
<rect x="1054" y="377" width="18" height="1" fill="#D9D9D9"/>
<rect x="1054" y="375" width="18" height="1" fill="#D9D9D9"/>
<rect x="1054" y="373" width="18" height="1" fill="#D9D9D9"/>
<rect x="1054" y="371" width="18" height="1" fill="#D9D9D9"/>
<rect x="1054" y="369" width="18" height="1" fill="#D9D9D9"/>
<rect x="1054" y="367" width="18" height="1" fill="#D9D9D9"/>
<rect x="1054" y="365" width="18" height="1" fill="#D9D9D9"/>
<rect x="1052" y="365" width="13" height="1" transform="rotate(-90 1052 365)" fill="#D9D9D9"/>
<rect x="1050" y="365" width="13" height="1" transform="rotate(-90 1050 365)" fill="#D9D9D9"/>
<rect x="1048" y="365" width="13" height="1" transform="rotate(-90 1048 365)" fill="#D9D9D9"/>
<rect x="1046" y="365" width="13" height="1" transform="rotate(-90 1046 365)" fill="#D9D9D9"/>
<rect x="1044" y="365" width="13" height="1" transform="rotate(-90 1044 365)" fill="#D9D9D9"/>
<rect x="1042" y="365" width="13" height="1" transform="rotate(-90 1042 365)" fill="#D9D9D9"/>
<rect x="1040" y="365" width="13" height="1" transform="rotate(-90 1040 365)" fill="#D9D9D9"/>
<rect x="1038" y="366" width="14" height="1" transform="rotate(-90 1038 366)" fill="#D9D9D9"/>
<rect x="1021" y="366" width="17" height="1" fill="#D9D9D9"/>
<rect x="1021" y="368" width="17" height="1" fill="#D9D9D9"/>
<rect x="1021" y="370" width="17" height="1" fill="#D9D9D9"/>
<rect x="1021" y="372" width="17" height="1" fill="#D9D9D9"/>
<rect x="1021" y="374" width="17" height="1" fill="#D9D9D9"/>
<rect x="1021" y="376" width="17" height="1" fill="#D9D9D9"/>
<rect x="1021" y="378" width="17" height="1" fill="#D9D9D9"/>
<rect x="1021" y="380" width="18" height="1" fill="black"/>
<rect x="1038" y="365" width="16" height="17" rx="2" fill="black"/>
<rect x="1065.33" y="365.576" width="1.43089" height="2.48695" rx="0.715447" fill="#346AF4"/>
<rect x="1066.05" y="367.885" width="0.715447" height="1.15466" rx="0.357724" fill="#346AF4"/>
<rect width="0.64184" height="1.18159" rx="0.32092" transform="matrix(0.916138 -0.400862 0.405492 0.914098 1066.05 369.031)" fill="#346AF4"/>
<rect width="1.18044" height="0.522113" rx="0.261056" transform="matrix(0.924269 -0.381741 0.386231 0.922402 1064.35 368.069)" fill="#346AF4"/>
<rect width="0.536524" height="1.42128" rx="0.268262" transform="matrix(0.991663 0.128862 -0.130611 0.991434 1064.36 368.063)" fill="#346AF4"/>
<rect x="1064.19" y="366.073" width="1.71875" height="0.682802" rx="0.341401" fill="#346AF4"/>
<rect width="1.6179" height="0.569585" rx="0.284793" transform="matrix(0.856372 0.51636 -0.52156 0.853215 1066.52 365.576)" fill="#346AF4"/>
<ellipse cx="1065.83" cy="364.91" rx="0.581301" ry="0.577329" fill="#346AF4"/>
<path d="M1059.96 364.752C1059.83 364.772 1059.73 364.899 1059.75 365.035L1060.07 367.263C1060.09 367.399 1060.22 367.494 1060.35 367.475C1060.49 367.455 1060.59 367.329 1060.57 367.192L1060.28 365.212L1062.26 364.929C1062.4 364.91 1062.49 364.783 1062.47 364.646C1062.46 364.51 1062.33 364.415 1062.19 364.434L1059.96 364.752ZM1064.15 367.8L1060.15 364.8L1059.85 365.2L1063.85 368.2L1064.15 367.8Z" fill="#346AF4"/>
<rect x="1058.8" y="368.329" width="0.98374" height="0.621738" fill="#346AF4"/>
<rect x="1059.07" y="368.862" width="2.50407" height="0.621738" fill="#346AF4"/>
<rect x="1060.86" y="369.484" width="2.68293" height="0.710558" fill="#346AF4"/>
<rect x="1062.83" y="370.194" width="2.77236" height="0.799378" fill="#346AF4"/>
<rect x="1064.89" y="370.994" width="2.14634" height="0.621738" fill="#346AF4"/>
<rect x="1066.5" y="371.616" width="1.43089" height="0.621738" fill="#346AF4"/>
<rect x="1058.5" y="363.5" width="10" height="9.21427" stroke="#815E5E"/>
</svg>
