<svg width="1201" height="725" viewBox="0 0 1201 725" fill="none" xmlns="http://www.w3.org/2000/svg">
<rect x="12" y="576" width="208" height="93" fill="white"/>
<rect x="22" y="669" width="184" height="10" fill="white"/>
<rect x="82" y="309" width="110" height="267" fill="white"/>
<rect x="82" y="39" width="92" height="270" fill="white"/>
<rect x="4" y="39" width="78" height="145" fill="white"/>
<rect x="174" y="38" width="18" height="234" fill="white"/>
<rect x="192" y="334" width="459" height="94" fill="white"/>
<rect x="466" y="428" width="37" height="31" fill="white"/>
<rect x="503" y="428" width="204" height="12" fill="white"/>
<rect x="526" y="440" width="25" height="19" fill="white"/>
<rect x="571" y="440" width="26" height="19" fill="white"/>
<rect x="618" y="440" width="27" height="19" fill="white"/>
<rect x="667" y="440" width="40" height="19" fill="white"/>
<rect x="651" y="336" width="56" height="92" fill="white"/>
<rect x="529" y="272" width="122" height="37" fill="white"/>
<rect x="703" y="308" width="4" height="28" fill="white"/>
<rect x="707" y="308" width="408" height="121" fill="white"/>
<rect x="1010" y="266" width="105" height="42" fill="white"/>
<rect x="991" y="5" width="124" height="261" fill="white"/>
<rect x="1115" y="5" width="81" height="148" fill="white"/>
<rect x="988" y="429" width="127" height="291" fill="white"/>
<rect x="969" y="596" width="19" height="107" fill="white"/>
<rect x="1115" y="581" width="63" height="139" fill="white"/>
<rect x="1164" y="567" width="22" height="10" fill="white"/>
<rect x="1168" y="577" width="15" height="4" fill="white"/>
<rect x="1178" y="581" width="15" height="131" fill="white"/>
<rect x="469" y="244" width="25" height="61" fill="white"/>
<rect x="484" y="305" width="29" height="4" fill="white"/>
<rect x="494" y="279" width="11" height="26" fill="white"/>
<rect x="494" y="255" width="4" height="24" fill="white"/>
<rect x="498" y="267" width="4" height="12" fill="white"/>
<rect x="505" y="288" width="3" height="17" fill="white"/>
<rect x="508" y="298" width="3" height="7" fill="white"/>
<rect x="529" y="309" width="122" height="25" fill="white"/>
<rect x="192" y="309" width="322" height="25" fill="white"/>
<rect x="514" y="327" width="7" height="7" fill="white"/>
<rect x="514" y="315" width="4" height="12" fill="white"/>
<rect x="528" y="459" width="21" height="4" fill="#D9D9D9"/>
<rect x="574" y="459" width="21" height="4" fill="#D9D9D9"/>
<rect x="621" y="459" width="21" height="4" fill="#D9D9D9"/>
<rect x="184" y="335" width="17" height="1" fill="#D9D9D9"/>
<rect x="184" y="333" width="17" height="1" fill="#D9D9D9"/>
<rect x="184" y="331" width="17" height="1" fill="#D9D9D9"/>
<rect x="184" y="329" width="17" height="1" fill="#D9D9D9"/>
<rect x="184" y="327" width="17" height="1" fill="#D9D9D9"/>
<rect x="184" y="325" width="17" height="1" fill="#D9D9D9"/>
<rect x="184" y="323" width="17" height="1" fill="#D9D9D9"/>
<rect x="184" y="321" width="17" height="1" fill="#D9D9D9"/>
<rect x="181" y="320" width="11" height="1" transform="rotate(-90 181 320)" fill="#D9D9D9"/>
<rect x="179" y="320" width="11" height="1" transform="rotate(-90 179 320)" fill="#D9D9D9"/>
<rect x="177" y="320" width="11" height="1" transform="rotate(-90 177 320)" fill="#D9D9D9"/>
<rect x="175" y="320" width="11" height="1" transform="rotate(-90 175 320)" fill="#D9D9D9"/>
<rect x="173" y="320" width="11" height="1" transform="rotate(-90 173 320)" fill="#D9D9D9"/>
<rect x="171" y="320" width="11" height="1" transform="rotate(-90 171 320)" fill="#D9D9D9"/>
<rect x="169" y="320" width="12" height="1" transform="rotate(-90 169 320)" fill="#D9D9D9"/>
<rect x="150" y="322" width="18" height="1" fill="#D9D9D9"/>
<rect x="150" y="324" width="18" height="1" fill="#D9D9D9"/>
<rect x="150" y="326" width="18" height="1" fill="#D9D9D9"/>
<rect x="150" y="328" width="18" height="1" fill="#D9D9D9"/>
<rect x="150" y="330" width="18" height="1" fill="#D9D9D9"/>
<rect x="150" y="332" width="18" height="1" fill="#D9D9D9"/>
<rect x="150" y="334" width="18" height="1" fill="#D9D9D9"/>
<rect x="150" y="336" width="20" height="1" fill="black"/>
<rect x="479" y="305" width="5" height="11" fill="black"/>
<rect x="479" y="325" width="5.19092" height="11.2681" fill="black"/>
<rect x="484" y="332" width="36" height="4" fill="black"/>
<rect x="460" y="309" width="2" height="43" fill="black"/>
<rect x="455" y="352" width="9" height="2" fill="black"/>
<rect x="479" y="336" width="5" height="18" fill="black"/>
<rect x="434" y="309" width="2" height="43" fill="black"/>
<rect x="430" y="352" width="10" height="2" fill="black"/>
<rect x="409" y="309" width="2" height="43" fill="black"/>
<rect x="380" y="352" width="35" height="2" fill="black"/>
<rect x="326" y="352" width="36" height="2" fill="black"/>
<rect x="301" y="352" width="10.002" height="1.77251" fill="black"/>
<rect x="273" y="352" width="13" height="2" fill="black"/>
<rect x="223" y="351" width="35" height="3" fill="black"/>
<rect x="198" y="352" width="10" height="2" fill="black"/>
<rect x="165" y="352" width="6.71022" height="2.02573" fill="black"/>
<rect x="181" y="352" width="6.83682" height="1.77251" fill="black"/>
<rect x="147" y="352" width="6" height="2" fill="black"/>
<rect x="330" y="309" width="3" height="43" fill="black"/>
<rect x="305" y="309" width="3" height="43" fill="black"/>
<rect x="279" y="309" width="3" height="43" fill="black"/>
<rect x="227" y="309" width="3" height="42" fill="black"/>
<rect x="201" y="309" width="3" height="43" fill="black"/>
<rect x="147" y="297" width="3" height="55" fill="black"/>
<rect x="150" y="306" width="21" height="2" fill="black"/>
<rect x="150" y="272" width="21" height="2" fill="black"/>
<rect x="148.337" y="262.495" width="1.89912" height="19.371" fill="black"/>
<rect x="168" y="320" width="16" height="17" rx="2" fill="black"/>
<rect x="305" y="385" width="3" height="43" fill="black"/>
<rect x="195" y="386" width="3" height="42" fill="black"/>
<rect x="171" y="386" width="3" height="45" fill="black"/>
<rect x="331" y="386" width="3" height="42" fill="black"/>
<rect x="302" y="383" width="10" height="3" fill="black"/>
<rect x="326" y="383" width="63" height="3" fill="black"/>
<rect x="404" y="383" width="106" height="3" fill="black"/>
<rect x="478" y="386" width="3" height="24" fill="black"/>
<rect x="463" y="386" width="3" height="42" fill="black"/>
<rect x="466" y="403" width="3" height="3" fill="black"/>
<rect x="475" y="403" width="3" height="3" fill="black"/>
<rect x="479" y="424" width="2" height="35" fill="black"/>
<rect x="192" y="383" width="96" height="3" fill="black"/>
<rect x="170" y="383" width="8" height="3" fill="black"/>
<rect x="148" y="383" width="7" height="3" fill="black"/>
<rect x="148" y="386" width="3" height="90" fill="black"/>
<rect x="150" y="431" width="40" height="2" fill="black"/>
<rect x="151" y="494" width="39" height="2" fill="black"/>
<rect x="150" y="574" width="40" height="2" fill="black"/>
<rect x="148" y="543" width="3" height="136" fill="black"/>
<rect x="148" y="489" width="3" height="38" fill="black"/>
<rect x="133" y="625" width="17" height="3" fill="black"/>
<rect x="38" y="626" width="88" height="2" fill="black"/>
<rect x="14" y="626" width="12" height="4" fill="black"/>
<rect x="122" y="628" width="2" height="51" fill="black"/>
<rect x="55" y="628" width="4" height="51" fill="black"/>
<rect x="46" y="580" width="2" height="26" fill="black"/>
<rect x="46" y="608" width="2" height="5" fill="black"/>
<rect x="46" y="606" width="24" height="2" fill="black"/>
<rect x="87" y="606" width="41" height="2" fill="black"/>
<rect x="92" y="580" width="3" height="26" fill="black"/>
<rect x="124" y="567" width="3" height="28" fill="black"/>
<rect x="125.19" y="492.97" width="1.89912" height="61.4048" fill="black"/>
<rect x="82" y="578" width="44" height="2" fill="black"/>
<rect x="82" y="494" width="44" height="3" fill="black"/>
<rect x="82" y="469" width="43" height="3" fill="black"/>
<rect x="82" y="439" width="43" height="2" fill="black"/>
<rect x="82" y="412" width="43" height="2" fill="black"/>
<rect x="82" y="384" width="43" height="2" fill="black"/>
<rect x="82" y="351" width="43" height="2" fill="black"/>
<rect x="82" y="317" width="43" height="2" fill="black"/>
<rect x="82" y="290" width="43" height="2" fill="black"/>
<rect x="82" y="266" width="43" height="2" fill="black"/>
<rect x="82" y="188" width="43" height="2" fill="black"/>
<rect x="46" y="626" width="6" height="2" transform="rotate(-90 46 626)" fill="black"/>
<rect x="125" y="462" width="2" height="15" fill="black"/>
<rect x="125" y="434" width="2" height="14" fill="black"/>
<rect x="125" y="406" width="2" height="14" fill="black"/>
<rect x="125" y="372" width="2" height="20" fill="black"/>
<rect x="125" y="341" width="2" height="17" fill="black"/>
<rect x="125" y="311" width="2" height="15" fill="black"/>
<rect x="125" y="286" width="2" height="11" fill="black"/>
<rect x="125" y="263" width="2" height="9" fill="black"/>
<rect x="125" y="124" width="2" height="124" fill="black"/>
<rect x="120" y="131" width="5" height="2" fill="black"/>
<rect x="120" y="166" width="5" height="3" fill="black"/>
<rect x="102" y="167" width="4" height="2" fill="black"/>
<rect x="101" y="133" width="2" height="56" fill="black"/>
<rect x="77.6106" y="131.222" width="27.0941" height="1.77251" fill="black"/>
<rect x="75.7115" y="124.005" width="1.89912" height="17.4719" fill="black"/>
<rect x="75.7115" y="103.115" width="1.89912" height="6.71022" fill="black"/>
<rect x="26" y="131" width="7" height="2" fill="black"/>
<rect x="53" y="131" width="7" height="2" fill="black"/>
<rect x="76" y="156" width="2" height="28" fill="black"/>
<rect x="4" y="101" width="121" height="2" fill="black"/>
<rect x="125" y="39" width="2" height="71" fill="black"/>
<rect x="148" y="39" width="2" height="7" fill="black"/>
<rect x="148" y="59" width="2" height="5" fill="black"/>
<rect x="148" y="79" width="2" height="5" fill="black"/>
<rect x="148" y="98" width="2" height="10" fill="black"/>
<rect x="137" y="101" width="55" height="1" fill="black"/>
<rect x="150" y="80" width="42" height="2" fill="black"/>
<rect x="150" y="61" width="42" height="1" fill="black"/>
<rect x="150" y="132" width="42" height="1" fill="black"/>
<rect x="150" y="193" width="42" height="2" fill="black"/>
<rect x="148" y="124" width="2" height="39" fill="black"/>
<rect x="148" y="179" width="2" height="71" fill="black"/>
<rect x="71" y="65" width="7" height="7" fill="black"/>
<rect x="34" y="65" width="7" height="7" fill="black"/>
<rect x="510" y="383" width="8" height="8" fill="black"/>
<rect x="556" y="383" width="8" height="8" fill="black"/>
<rect x="604" y="383" width="8" height="8" fill="black"/>
<rect x="652" y="383" width="9" height="8" fill="black"/>
<rect x="530" y="334" width="50" height="2" fill="black"/>
<rect x="602" y="334" width="49" height="2" fill="black"/>
<rect x="549" y="289" width="19" height="29" fill="black"/>
<rect x="568" y="289" width="3" height="5" fill="black"/>
<rect x="612" y="290" width="20" height="4" fill="black"/>
<rect x="614" y="294" width="18" height="24" fill="black"/>
<rect x="529" y="316" width="20" height="2" fill="black"/>
<rect x="632" y="316" width="19" height="2" fill="black"/>
<rect x="124" y="601" width="4" height="5" fill="black"/>
<rect x="698" y="336" width="5" height="18" fill="black"/>
<rect x="703" y="351" width="62" height="3" fill="black"/>
<rect x="780" y="351" width="69" height="3" fill="black"/>
<rect x="841" y="308" width="3" height="44" fill="black"/>
<rect x="869" y="308" width="3" height="44" fill="black"/>
<rect x="864" y="351" width="12" height="3" fill="black"/>
<rect x="707" y="383" width="3" height="46" fill="black"/>
<rect x="661" y="383" width="46" height="3" fill="black"/>
<rect x="690" y="386" width="2" height="24" fill="black"/>
<rect x="691" y="425" width="2" height="34" fill="black"/>
<rect x="692" y="402" width="3" height="2" fill="black"/>
<rect x="704" y="402" width="3" height="2" fill="black"/>
<rect x="710" y="383" width="57" height="3" fill="black"/>
<rect x="781" y="383" width="58" height="3" fill="black"/>
<rect x="839" y="383" width="3" height="46" fill="black"/>
<rect x="842" y="383" width="61" height="3" fill="black"/>
<rect x="890" y="351" width="67" height="3" fill="black"/>
<rect x="949" y="308" width="3" height="43" fill="black"/>
<rect x="917" y="383" width="45" height="3" fill="black"/>
<rect x="949" y="386" width="3" height="43" fill="black"/>
<rect x="976" y="383" width="56" height="3" fill="black"/>
<rect x="985" y="386" width="3" height="43" fill="black"/>
<rect x="1029" y="386" width="3" height="66" fill="black"/>
<rect x="988" y="429" width="9" height="3" fill="black"/>
<rect x="1022" y="429" width="7" height="3" fill="black"/>
<rect x="1029" y="466" width="3" height="64" fill="black"/>
<rect x="1029" y="543" width="3" height="54" fill="black"/>
<rect x="988" y="575" width="41" height="3" fill="black"/>
<rect x="1017" y="469" width="12" height="3" fill="black"/>
<rect x="988" y="469" width="13" height="3" fill="black"/>
<rect x="976" y="308" width="3" height="43" fill="black"/>
<rect x="972" y="351" width="11" height="3" fill="black"/>
<rect x="993" y="351" width="6" height="3" fill="black"/>
<rect x="1010" y="351" width="6" height="3" fill="black"/>
<rect x="1027" y="351" width="5" height="3" fill="black"/>
<rect x="1010" y="305" width="20" height="3" fill="black"/>
<rect x="1030" y="295" width="2" height="56" fill="black"/>
<rect x="1030" y="239" width="2" height="41" fill="black"/>
<rect x="1010" y="266" width="20" height="2" fill="black"/>
<rect x="466" y="437" width="13" height="2" fill="black"/>
<rect x="991" y="213" width="39" height="3" fill="black"/>
<rect x="1030" y="183" width="2" height="41" fill="black"/>
<rect x="991" y="155" width="39" height="2" fill="black"/>
<rect x="1030" y="149" width="2" height="20" fill="black"/>
<rect x="1032" y="153" width="12" height="5" fill="black"/>
<rect x="1056" y="153" width="59" height="5" fill="black"/>
<rect x="1070" y="138" width="3" height="59" fill="black"/>
<rect x="991" y="129" width="39" height="2" fill="black"/>
<rect x="1030" y="91" width="2" height="45" fill="black"/>
<rect x="991" y="100" width="39" height="2" fill="black"/>
<rect x="1030" y="66" width="2" height="11" fill="black"/>
<rect x="991" y="69" width="39" height="2" fill="black"/>
<rect x="991" y="46" width="21" height="2" fill="black"/>
<rect x="1007" y="43" width="2" height="3" fill="black"/>
<rect x="1028" y="46" width="2" height="2" fill="black"/>
<rect x="1030" y="5" width="2" height="47" fill="black"/>
<rect x="1007" y="5" width="2" height="25" fill="black"/>
<rect x="1070" y="5" width="3" height="28" fill="black"/>
<rect x="1070" y="46" width="3" height="33" fill="black"/>
<rect x="1070" y="94" width="3" height="31" fill="black"/>
<rect x="1073" y="101" width="3" height="3" fill="black"/>
<rect x="1091" y="101" width="12" height="3" fill="black"/>
<rect x="1103" y="93" width="3" height="60" fill="black"/>
<rect x="1103" y="71" width="3" height="9" fill="black"/>
<rect x="1073" y="68" width="123" height="4" fill="black"/>
<rect x="1125" y="101" width="7" height="6" fill="black"/>
<rect x="1149" y="101" width="6" height="6" fill="black"/>
<rect x="1174" y="101" width="6" height="6" fill="black"/>
<rect x="1070" y="211" width="3" height="13" fill="black"/>
<rect x="1073" y="217" width="42" height="2" fill="black"/>
<rect x="1070" y="238" width="3" height="16" fill="black"/>
<rect x="1073" y="247" width="42" height="2" fill="black"/>
<rect x="1070" y="267" width="3" height="11" fill="black"/>
<rect x="1073" y="270" width="42" height="2" fill="black"/>
<rect x="1070" y="291" width="3" height="14" fill="black"/>
<rect x="1073" y="295" width="42" height="2" fill="black"/>
<rect x="1070" y="318" width="3" height="13" fill="black"/>
<rect x="1073" y="322" width="42" height="3" fill="black"/>
<rect x="1070" y="345" width="3" height="18" fill="black"/>
<rect x="1073" y="351" width="42" height="3" fill="black"/>
<rect x="1070" y="376" width="3" height="15" fill="black"/>
<rect x="1073" y="381" width="42" height="3" fill="black"/>
<rect x="1070" y="404" width="3" height="13" fill="black"/>
<rect x="1073" y="408" width="42" height="3" fill="black"/>
<rect x="1073" y="435" width="42" height="3" fill="black"/>
<rect x="1070" y="431" width="3" height="97" fill="black"/>
<rect x="1070" y="541" width="3" height="16" fill="black"/>
<rect x="1073" y="547" width="42" height="3" fill="black"/>
<rect x="1070" y="570" width="3" height="46" fill="black"/>
<rect x="1073" y="578" width="42" height="3" fill="black"/>
<rect x="1103" y="581" width="2" height="53" fill="black"/>
<rect x="1070" y="629" width="3" height="5" fill="black"/>
<rect x="1070" y="634" width="42" height="2" fill="black"/>
<rect x="1127" y="634" width="36" height="2" fill="black"/>
<rect x="1163" y="581" width="3" height="60" fill="black"/>
<rect x="1029" y="611" width="3" height="109" fill="#070707"/>
<rect x="1032" y="665" width="13" height="3" fill="#070707"/>
<rect x="1059" y="665" width="64" height="3" fill="#070707"/>
<rect x="1070" y="668" width="3" height="52" fill="#070707"/>
<rect x="1078" y="675" width="13" height="3" fill="#070707"/>
<rect x="1103" y="689" width="3" height="31" fill="#070707"/>
<rect x="1138" y="665" width="30" height="3" fill="#070707"/>
<rect x="1163" y="655" width="2" height="10" fill="#070707"/>
<rect x="1153" y="668" width="3" height="52" fill="#070707"/>
<rect x="1183" y="665" width="10" height="3" fill="#070707"/>
<rect x="1091" y="675" width="20.7809" height="2.68567" transform="rotate(44.3595 1091 675)" fill="#070707"/>
<rect x="564" y="385" width="40" height="5" fill="black"/>
<rect y="35" width="196" height="4" fill="#346AF4"/>
<rect x="192" y="38" width="4" height="75" fill="#346AF4"/>
<rect x="192" y="113" width="4" height="162" fill="#346AF4"/>
<rect x="171" y="271" width="25" height="5" fill="#346AF4"/>
<rect x="171" y="275" width="5" height="31" fill="#346AF4"/>
<rect x="171" y="305" width="308" height="4" fill="#346AF4"/>
<rect y="39" width="4" height="149" fill="#346AF4"/>
<rect x="464.462" y="239.907" width="4.55788" height="67.1022" fill="#346AF4"/>
<rect x="469.02" y="239.907" width="25.3216" height="4.05145" fill="#346AF4"/>
<rect x="489.55" y="242.389" width="5.05011" height="98.0023" transform="rotate(-18.4176 489.55 242.389)" fill="#346AF4"/>
<rect x="524" y="267" width="5" height="67" fill="#346AF4"/>
<rect x="529" y="267" width="50" height="5" fill="#346AF4"/>
<rect x="4" y="184" width="78" height="4" fill="#346AF4"/>
<rect x="77" y="188" width="5" height="392" fill="#346AF4"/>
<rect x="10" y="576" width="67" height="4" fill="#346AF4"/>
<rect x="10" y="580" width="4" height="89" fill="#346AF4"/>
<rect x="13" y="580" width="14" height="37" fill="#346AF4"/>
<rect x="14" y="660" width="8" height="23" fill="#346AF4"/>
<rect x="22" y="671" width="8" height="12" fill="#346AF4"/>
<rect x="30" y="679" width="176" height="4" fill="#346AF4"/>
<rect x="196" y="669" width="10" height="10" fill="#346AF4"/>
<rect x="206" y="658" width="10" height="17" fill="#346AF4"/>
<rect x="216" y="573" width="4" height="98" fill="#346AF4"/>
<rect x="195" y="573" width="25" height="19" fill="#346AF4"/>
<rect x="190" y="428" width="5" height="157" fill="#346AF4"/>
<rect x="195" y="428" width="271" height="5" fill="#346AF4"/>
<rect x="461" y="433" width="5" height="30" fill="#346AF4"/>
<rect x="466" y="459" width="37" height="4" fill="#346AF4"/>
<rect x="503" y="440" width="23" height="23" fill="#346AF4"/>
<rect x="526" y="459" width="2" height="4" fill="#346AF4"/>
<rect x="549" y="459" width="2" height="4" fill="#346AF4"/>
<rect x="551" y="439" width="20" height="24" fill="#346AF4"/>
<rect x="571" y="459" width="3" height="4" fill="#346AF4"/>
<rect x="595" y="459" width="3" height="4" fill="#346AF4"/>
<rect x="597" y="439" width="21" height="24" fill="#346AF4"/>
<rect x="618" y="459" width="3" height="4" fill="#346AF4"/>
<rect x="642" y="459" width="3" height="4" fill="#346AF4"/>
<rect x="645" y="439" width="22" height="24" fill="#346AF4"/>
<rect x="666" y="459" width="45" height="4" fill="#346AF4"/>
<rect x="707" y="430" width="4" height="29" fill="#346AF4"/>
<rect x="600" y="267" width="51" height="5" fill="#346AF4"/>
<rect x="651" y="267" width="5" height="69" fill="#346AF4"/>
<rect x="519.916" y="333.723" width="10.6351" height="4.17806" fill="#346AF4"/>
<rect x="703" y="304" width="307" height="4" fill="#346AF4"/>
<rect x="1006" y="266" width="4" height="38" fill="#346AF4"/>
<rect x="986" y="266" width="20" height="6" fill="#346AF4"/>
<rect x="986" y="5" width="5" height="263" fill="#346AF4"/>
<rect x="1161" y="567" width="3" height="10" fill="#346AF4"/>
<rect x="986" width="210" height="5" fill="#346AF4"/>
<rect x="1161" y="565" width="25" height="2" fill="#346AF4"/>
<rect x="1196" width="5" height="158" fill="#346AF4"/>
<rect x="1115" y="153" width="81" height="5" fill="#346AF4"/>
<rect x="1115" y="157" width="6" height="424" fill="#346AF4"/>
<rect width="47" height="4" transform="matrix(1 0 0 -1 1121 581)" fill="#346AF4"/>
<rect x="1186" y="565" width="3" height="16" fill="#346AF4"/>
<rect x="1186" y="581" width="7" height="15" fill="#346AF4"/>
<rect x="1193" y="581" width="6" height="127" fill="#346AF4"/>
<rect x="1186" y="699" width="9" height="26" fill="#346AF4"/>
<rect x="1178" y="711" width="8" height="14" fill="#346AF4"/>
<rect x="969" y="703" width="23" height="17" fill="#346AF4"/>
<rect x="1186" y="624" width="7" height="12" fill="#346AF4"/>
<rect x="1183" y="577" width="3" height="4" fill="#346AF4"/>
<rect x="969" y="573" width="19" height="23" fill="#346AF4"/>
<rect x="983" y="429" width="5" height="144" fill="#346AF4"/>
<rect x="707" y="429" width="276" height="4" fill="#346AF4"/>
<rect x="964" y="577" width="5" height="136" fill="#346AF4"/>
<rect x="656" y="332" width="41" height="4" fill="#346AF4"/>
<rect x="697" y="304" width="6" height="32" fill="#346AF4"/>
<rect x="988" y="720" width="190" height="5" fill="#346AF4"/>
<rect x="194.333" y="325.576" width="1.43089" height="2.48695" rx="0.715447" fill="#346AF4"/>
<rect x="195.049" y="327.885" width="0.715447" height="1.15466" rx="0.357724" fill="#346AF4"/>
<rect width="0.64184" height="1.18159" rx="0.32092" transform="matrix(0.916138 -0.400862 0.405492 0.914098 195.049 329.031)" fill="#346AF4"/>
<rect width="1.18044" height="0.522113" rx="0.261056" transform="matrix(0.924269 -0.381741 0.386231 0.922402 193.35 328.069)" fill="#346AF4"/>
<rect width="0.536524" height="1.42128" rx="0.268262" transform="matrix(0.991663 0.128862 -0.130611 0.991434 193.356 328.063)" fill="#346AF4"/>
<rect x="193.188" y="326.073" width="1.71875" height="0.682802" rx="0.341401" fill="#346AF4"/>
<rect width="1.6179" height="0.569585" rx="0.284793" transform="matrix(0.856372 0.51636 -0.52156 0.853215 195.525 325.576)" fill="#346AF4"/>
<ellipse cx="194.825" cy="324.91" rx="0.581301" ry="0.577329" fill="#346AF4"/>
<path d="M188.965 324.752C188.828 324.772 188.733 324.899 188.753 325.035L189.071 327.263C189.09 327.399 189.217 327.494 189.354 327.475C189.49 327.455 189.585 327.329 189.566 327.192L189.283 325.212L191.263 324.929C191.399 324.91 191.494 324.783 191.475 324.646C191.455 324.51 191.329 324.415 191.192 324.434L188.965 324.752ZM193.15 327.8L189.15 324.8L188.85 325.2L192.85 328.2L193.15 327.8Z" fill="#346AF4"/>
<rect x="187.805" y="328.329" width="0.98374" height="0.621738" fill="#346AF4"/>
<rect x="188.073" y="328.862" width="2.50407" height="0.621738" fill="#346AF4"/>
<rect x="189.862" y="329.484" width="2.68293" height="0.710558" fill="#346AF4"/>
<rect x="191.829" y="330.194" width="2.77236" height="0.799378" fill="#346AF4"/>
<rect x="193.886" y="330.994" width="2.14634" height="0.621738" fill="#346AF4"/>
<rect x="195.496" y="331.616" width="1.43089" height="0.621738" fill="#346AF4"/>
<rect x="187.5" y="323.5" width="10" height="9.21427" stroke="#815E5E"/>
<rect x="1012" y="335" width="18" height="1" fill="#D9D9D9"/>
<rect x="1012" y="333" width="18" height="1" fill="#D9D9D9"/>
<rect x="1012" y="331" width="18" height="1" fill="#D9D9D9"/>
<rect x="1012" y="329" width="18" height="1" fill="#D9D9D9"/>
<rect x="1012" y="327" width="18" height="1" fill="#D9D9D9"/>
<rect x="1012" y="325" width="18" height="1" fill="#D9D9D9"/>
<rect x="1012" y="323" width="18" height="1" fill="#D9D9D9"/>
<rect x="1012" y="321" width="18" height="1" fill="#D9D9D9"/>
<rect x="1010" y="321" width="13" height="1" transform="rotate(-90 1010 321)" fill="#D9D9D9"/>
<rect x="1008" y="321" width="13" height="1" transform="rotate(-90 1008 321)" fill="#D9D9D9"/>
<rect x="1006" y="321" width="13" height="1" transform="rotate(-90 1006 321)" fill="#D9D9D9"/>
<rect x="1004" y="321" width="13" height="1" transform="rotate(-90 1004 321)" fill="#D9D9D9"/>
<rect x="1002" y="321" width="13" height="1" transform="rotate(-90 1002 321)" fill="#D9D9D9"/>
<rect x="1000" y="321" width="13" height="1" transform="rotate(-90 1000 321)" fill="#D9D9D9"/>
<rect x="998" y="321" width="13" height="1" transform="rotate(-90 998 321)" fill="#D9D9D9"/>
<rect x="996" y="322" width="14" height="1" transform="rotate(-90 996 322)" fill="#D9D9D9"/>
<rect x="979" y="322" width="17" height="1" fill="#D9D9D9"/>
<rect x="979" y="324" width="17" height="1" fill="#D9D9D9"/>
<rect x="979" y="326" width="17" height="1" fill="#D9D9D9"/>
<rect x="979" y="328" width="17" height="1" fill="#D9D9D9"/>
<rect x="979" y="330" width="17" height="1" fill="#D9D9D9"/>
<rect x="979" y="332" width="17" height="1" fill="#D9D9D9"/>
<rect x="979" y="334" width="17" height="1" fill="#D9D9D9"/>
<rect x="979" y="336" width="18" height="1" fill="black"/>
<rect x="996" y="321" width="16" height="17" rx="2" fill="black"/>
<rect x="1023.33" y="321.576" width="1.43089" height="2.48695" rx="0.715447" fill="#346AF4"/>
<rect x="1024.05" y="323.885" width="0.715447" height="1.15466" rx="0.357724" fill="#346AF4"/>
<rect width="0.64184" height="1.18159" rx="0.32092" transform="matrix(0.916138 -0.400862 0.405492 0.914098 1024.05 325.031)" fill="#346AF4"/>
<rect width="1.18044" height="0.522113" rx="0.261056" transform="matrix(0.924269 -0.381741 0.386231 0.922402 1022.35 324.069)" fill="#346AF4"/>
<rect width="0.536524" height="1.42128" rx="0.268262" transform="matrix(0.991663 0.128862 -0.130611 0.991434 1022.36 324.063)" fill="#346AF4"/>
<rect x="1022.19" y="322.073" width="1.71875" height="0.682802" rx="0.341401" fill="#346AF4"/>
<rect width="1.6179" height="0.569585" rx="0.284793" transform="matrix(0.856372 0.51636 -0.52156 0.853215 1024.52 321.576)" fill="#346AF4"/>
<ellipse cx="1023.83" cy="320.91" rx="0.581301" ry="0.577329" fill="#346AF4"/>
<path d="M1017.96 320.752C1017.83 320.772 1017.73 320.899 1017.75 321.035L1018.07 323.263C1018.09 323.399 1018.22 323.494 1018.35 323.475C1018.49 323.455 1018.59 323.329 1018.57 323.192L1018.28 321.212L1020.26 320.929C1020.4 320.91 1020.49 320.783 1020.47 320.646C1020.46 320.51 1020.33 320.415 1020.19 320.434L1017.96 320.752ZM1022.15 323.8L1018.15 320.8L1017.85 321.2L1021.85 324.2L1022.15 323.8Z" fill="#346AF4"/>
<rect x="1016.8" y="324.329" width="0.98374" height="0.621738" fill="#346AF4"/>
<rect x="1017.07" y="324.862" width="2.50407" height="0.621738" fill="#346AF4"/>
<rect x="1018.86" y="325.484" width="2.68293" height="0.710558" fill="#346AF4"/>
<rect x="1020.83" y="326.194" width="2.77236" height="0.799378" fill="#346AF4"/>
<rect x="1022.89" y="326.994" width="2.14634" height="0.621738" fill="#346AF4"/>
<rect x="1024.5" y="327.616" width="1.43089" height="0.621738" fill="#346AF4"/>
<rect x="1016.5" y="319.5" width="10" height="9.21427" stroke="#815E5E"/>
<rect x="510" y="391" width="151" height="1" fill="#D9D9D9"/>
<rect x="510" y="395" width="151" height="1" fill="#D9D9D9"/>
<rect x="510" y="397" width="151" height="1" fill="#D9D9D9"/>
<rect x="510" y="393" width="151" height="1" fill="#D9D9D9"/>
</svg>
