<svg width="1443" height="840" viewBox="0 0 1443 840" fill="none" xmlns="http://www.w3.org/2000/svg">
<rect x="23" y="686" width="225" height="148" fill="white"/>
<rect x="99" y="519" width="127" height="167" fill="white"/>
<rect x="111" y="368" width="115" height="151" fill="white"/>
<rect x="111" y="15" width="92" height="353" fill="white"/>
<rect x="203" y="15" width="24" height="300" fill="white"/>
<rect x="6" y="15" width="105" height="161" fill="white"/>
<rect x="99" y="176" width="12" height="161" fill="white"/>
<rect x="226" y="368" width="368" height="131" fill="white"/>
<rect x="594" y="393" width="735" height="100" fill="white"/>
<rect x="847" y="364" width="482" height="29" fill="white"/>
<rect x="652" y="318" width="143" height="75" fill="white"/>
<rect x="594" y="493" width="266" height="42" fill="white"/>
<rect x="577" y="499" width="17" height="36" fill="white"/>
<rect x="1240" y="13" width="89" height="351" fill="white"/>
<rect x="1217" y="13" width="23" height="301" fill="white"/>
<rect x="1329" y="13" width="108" height="168" fill="white"/>
<rect x="1329" y="181" width="13" height="161" fill="white"/>
<rect x="1213" y="493" width="116" height="328" fill="white"/>
<rect x="1329" y="673" width="89" height="148" fill="white"/>
<rect x="1329" y="509" width="13" height="164" fill="white"/>
<rect x="17" y="681" width="6" height="159" fill="#346AF4"/>
<rect x="23" y="681" width="76" height="5" fill="#346AF4"/>
<rect x="93" y="515" width="6" height="166" fill="#346AF4"/>
<rect x="105" y="337" width="6" height="182" fill="#346AF4"/>
<rect x="99" y="337" width="6" height="4" fill="#346AF4"/>
<rect x="99" y="515" width="6" height="4" fill="#346AF4"/>
<rect y="176" width="93" height="5" fill="#346AF4"/>
<rect y="10" width="6" height="166" fill="#346AF4"/>
<rect x="6" y="10" width="154" height="5" fill="#346AF4"/>
<rect x="154" y="2" width="6" height="8" fill="#346AF4"/>
<rect x="167" y="2" width="6" height="8" fill="#346AF4"/>
<rect x="167" y="10" width="67" height="5" fill="#346AF4"/>
<rect x="227" y="15" width="7" height="307" fill="#346AF4"/>
<rect x="203" y="315" width="24" height="7" fill="#346AF4"/>
<rect x="203" y="322" width="6" height="46" fill="#346AF4"/>
<rect x="209" y="362" width="390" height="6" fill="#346AF4"/>
<rect x="594" y="368" width="5" height="25" fill="#346AF4"/>
<rect x="599" y="388" width="53" height="5" fill="#346AF4"/>
<rect x="646" y="313" width="6" height="75" fill="#346AF4"/>
<rect x="652" y="313" width="148" height="5" fill="#346AF4"/>
<rect x="795" y="318" width="5" height="75" fill="#346AF4"/>
<rect x="800" y="388" width="47" height="5" fill="#346AF4"/>
<rect x="841" y="358" width="6" height="30" fill="#346AF4"/>
<rect x="847" y="358" width="393" height="6" fill="#346AF4"/>
<rect x="1234" y="314" width="6" height="44" fill="#346AF4"/>
<rect x="1211" y="314" width="23" height="6" fill="#346AF4"/>
<rect x="1211" y="7" width="6" height="307" fill="#346AF4"/>
<rect x="1217" y="7" width="55" height="6" fill="#346AF4"/>
<rect x="1267" width="5" height="7" fill="#346AF4"/>
<rect x="1282" width="5" height="7" fill="#346AF4"/>
<rect x="1282" y="7" width="161" height="6" fill="#346AF4"/>
<rect x="1437" y="13" width="6" height="174" fill="#346AF4"/>
<rect x="1342" y="181" width="95" height="6" fill="#346AF4"/>
<rect x="1342" y="505" width="7" height="168" fill="#346AF4"/>
<rect x="1329" y="342" width="6" height="167" fill="#346AF4"/>
<rect x="1335" y="505" width="7" height="4" fill="#346AF4"/>
<rect x="1335" y="342" width="7" height="4" fill="#346AF4"/>
<rect x="1349" y="666" width="74" height="7" fill="#346AF4"/>
<rect x="1418" y="673" width="5" height="154" fill="#346AF4"/>
<rect x="1207" y="821" width="211" height="6" fill="#346AF4"/>
<rect x="1207" y="493" width="6" height="328" fill="#346AF4"/>
<rect x="860" y="493" width="347" height="6" fill="#346AF4"/>
<rect x="860" y="499" width="5" height="42" fill="#346AF4"/>
<rect x="573" y="535" width="287" height="6" fill="#346AF4"/>
<rect x="577" y="520" width="283" height="3" fill="#346AF4"/>
<rect x="573" y="499" width="4" height="36" fill="#346AF4"/>
<rect x="226" y="499" width="347" height="4" fill="#346AF4"/>
<rect x="226" y="503" width="6" height="183" fill="#346AF4"/>
<rect x="232" y="680" width="22" height="6" fill="#346AF4"/>
<rect x="248" y="686" width="6" height="154" fill="#346AF4"/>
<rect x="23" y="834" width="225" height="6" fill="#346AF4"/>
<rect x="93" y="176" width="6" height="165" fill="#346AF4"/>
<rect x="23" y="771" width="12" height="3" fill="black"/>
<rect x="23" y="747" width="7" height="3" fill="black"/>
<rect x="48" y="747" width="37" height="3" fill="black"/>
<rect x="53" y="771" width="22" height="3" fill="black"/>
<rect x="66" y="774" width="3" height="60" fill="black"/>
<rect x="88" y="771" width="71" height="3" fill="black"/>
<rect x="148" y="774" width="3" height="8" fill="black"/>
<rect x="110" y="774" width="3" height="60" fill="black"/>
<rect x="148" y="800" width="3" height="34" fill="black"/>
<rect x="166" y="771" width="82" height="3" fill="black"/>
<rect x="175" y="764" width="3" height="7" fill="black"/>
<rect x="175" y="774" width="3" height="8" fill="black"/>
<rect x="175" y="799" width="3" height="35" fill="black"/>
<rect x="56" y="686" width="3" height="61" fill="black"/>
<rect x="99" y="683" width="49" height="3" fill="black"/>
<rect x="148" y="665" width="3" height="61" fill="black"/>
<rect x="110" y="686" width="3" height="61" fill="black"/>
<rect x="102" y="747" width="49" height="3" fill="black"/>
<rect x="147" y="743" width="4" height="4" fill="black"/>
<rect x="178" y="747" width="70" height="3" fill="black"/>
<rect x="175" y="721" width="3" height="34" fill="black"/>
<rect x="175" y="631" width="3" height="72" fill="black"/>
<rect x="178" y="679" width="48" height="2" fill="black"/>
<rect x="148" y="631" width="3" height="17" fill="black"/>
<rect x="99" y="638" width="49" height="3" fill="black"/>
<rect x="99" y="606" width="49" height="3" fill="black"/>
<rect x="148" y="574" width="3" height="39" fill="black"/>
<rect x="175" y="573" width="3" height="41" fill="black"/>
<rect x="178" y="577" width="48" height="4" fill="black"/>
<rect x="178" y="548" width="5" height="4" fill="black"/>
<rect x="202" y="548" width="24" height="4" fill="black"/>
<rect x="175" y="445" width="3" height="112" fill="black"/>
<rect x="178" y="445" width="5" height="3" fill="black"/>
<rect x="178" y="500" width="48" height="3" fill="black"/>
<rect x="202" y="445" width="71" height="3" fill="black"/>
<rect x="238" y="448" width="3" height="51" fill="black"/>
<rect x="111" y="484" width="40" height="2" fill="black"/>
<rect x="111" y="516" width="18" height="3" fill="black"/>
<rect x="99" y="548" width="5" height="3" fill="black"/>
<rect x="121" y="519" width="4" height="29" fill="black"/>
<rect x="119" y="548" width="10" height="3" fill="black"/>
<rect x="148" y="486" width="3" height="72" fill="black"/>
<rect x="146" y="548" width="2" height="3" fill="black"/>
<rect x="111" y="444" width="37" height="4" fill="black"/>
<rect x="148" y="426" width="4" height="22" fill="black"/>
<rect x="111" y="405" width="37" height="3" fill="black"/>
<rect x="148" y="396" width="3" height="14" fill="black"/>
<rect x="111" y="369" width="36" height="3" fill="black"/>
<rect x="147" y="362" width="4" height="17" fill="black"/>
<rect x="111" y="337" width="37" height="3" fill="black"/>
<rect x="148" y="332" width="3" height="13" fill="black"/>
<rect x="99" y="308" width="49" height="3" fill="black"/>
<rect x="148" y="301" width="3" height="14" fill="black"/>
<rect x="179" y="315" width="24" height="4" fill="black"/>
<rect x="175" y="305" width="4" height="23" fill="black"/>
<rect x="176" y="354" width="3" height="67" fill="black"/>
<rect x="179" y="365" width="24" height="3" fill="black"/>
<rect x="179" y="418" width="4" height="3" fill="black"/>
<rect x="195" y="418" width="8" height="3" fill="black"/>
<rect x="215" y="418" width="8" height="3" fill="black"/>
<rect x="235" y="418" width="11" height="3" fill="black"/>
<rect x="264" y="418" width="12" height="3" fill="black"/>
<rect x="268" y="368" width="4" height="50" fill="black"/>
<rect x="238" y="368" width="4" height="50" fill="black"/>
<rect x="299" y="368" width="3" height="50" fill="black"/>
<rect x="294" y="418" width="55" height="3" fill="black"/>
<rect x="341" y="413" width="3" height="5" fill="black"/>
<rect x="341" y="368" width="4" height="29" fill="black"/>
<rect x="371" y="368" width="4" height="29" fill="black"/>
<rect x="371" y="413" width="4" height="5" fill="black"/>
<rect x="367" y="418" width="62" height="3" fill="black"/>
<rect x="420" y="368" width="3" height="50" fill="black"/>
<rect x="445" y="418" width="14" height="3" fill="black"/>
<rect x="450" y="368" width="3" height="50" fill="black"/>
<rect x="477" y="418" width="13" height="3" fill="black"/>
<rect x="481" y="368" width="3" height="50" fill="black"/>
<rect x="511" y="368" width="3" height="50" fill="black"/>
<rect x="509" y="418" width="10" height="3" fill="black"/>
<rect x="537" y="418" width="11" height="3" fill="black"/>
<rect x="541" y="368" width="3" height="50" fill="black"/>
<rect x="571" y="368" width="3" height="50" fill="black"/>
<rect x="566" y="418" width="11" height="3" fill="black"/>
<rect x="594" y="418" width="5" height="3" fill="black"/>
<rect x="597" y="393" width="2" height="25" fill="black"/>
<rect x="175" y="249" width="4" height="39" fill="black"/>
<rect x="179" y="254" width="48" height="4" fill="black"/>
<rect x="99" y="276" width="49" height="3" fill="black"/>
<rect x="147.69" y="263.717" width="3.63171" height="19.3708" fill="black"/>
<rect x="175" y="143" width="4" height="89" fill="black"/>
<rect x="179" y="186" width="48" height="4" fill="black"/>
<rect x="148" y="175" width="4" height="72" fill="black"/>
<rect x="99" y="179" width="49" height="4" fill="black"/>
<rect x="110" y="116" width="4" height="63" fill="black"/>
<rect x="87" y="113" width="33" height="3" fill="black"/>
<rect x="140" y="113" width="8" height="3" fill="black"/>
<rect x="148" y="105" width="3" height="53" fill="black"/>
<rect x="114" y="135" width="34" height="4" fill="black"/>
<rect x="91" y="116" width="3" height="25" fill="black"/>
<rect x="91" y="158" width="4" height="18" fill="black"/>
<rect x="66" y="158" width="3" height="18" fill="black"/>
<rect x="66" y="116" width="3" height="25" fill="black"/>
<rect x="6" y="113" width="65" height="3" fill="black"/>
<rect x="55" y="105" width="3" height="8" fill="black"/>
<rect x="55" y="81" width="3" height="7" fill="black"/>
<rect x="6" y="77" width="142" height="4" fill="black"/>
<rect x="148" y="73" width="3" height="15" fill="black"/>
<rect x="71" y="35" width="4" height="42" fill="black"/>
<rect x="55" y="35" width="16" height="4" fill="black"/>
<rect x="6" y="35" width="32" height="4" fill="black"/>
<rect x="148" y="15" width="3" height="40" fill="black"/>
<rect x="175" y="15" width="4" height="19" fill="black"/>
<rect x="175" y="52" width="4" height="9" fill="black"/>
<rect x="179" y="52" width="48" height="5" fill="black"/>
<rect x="175" y="74" width="4" height="14" fill="black"/>
<rect x="179" y="77" width="48" height="5" fill="black"/>
<rect x="179" y="112" width="48" height="4" fill="black"/>
<rect x="175" y="105" width="4" height="20" fill="black"/>
<rect x="291" y="445" width="60" height="3" fill="black"/>
<rect x="369" y="445" width="59" height="3" fill="black"/>
<rect x="445" y="445" width="14" height="3" fill="black"/>
<rect x="476" y="444" width="13" height="3" fill="black"/>
<rect x="505" y="444" width="14" height="3" fill="black"/>
<rect x="537" y="444" width="14" height="3" fill="black"/>
<rect x="569" y="444" width="146" height="3" fill="black"/>
<rect x="541" y="447" width="4" height="52" fill="black"/>
<rect x="510" y="447" width="4" height="52" fill="black"/>
<rect x="481" y="447" width="4" height="52" fill="black"/>
<rect x="450" y="448" width="4" height="51" fill="black"/>
<rect x="420" y="448" width="4" height="51" fill="black"/>
<rect x="372" y="448" width="3" height="6" fill="black"/>
<rect x="372" y="470" width="3" height="29" fill="black"/>
<rect x="342" y="448" width="3" height="6" fill="black"/>
<rect x="342" y="470" width="3" height="29" fill="black"/>
<rect x="293" y="448" width="3" height="51" fill="black"/>
<rect x="575" y="447" width="2" height="52" fill="black"/>
<rect x="577" y="459" width="4" height="3" fill="black"/>
<rect x="577" y="483" width="4" height="3" fill="black"/>
<rect x="594" y="483" width="4" height="3" fill="black"/>
<rect x="594" y="459" width="4" height="3" fill="black"/>
<rect x="598" y="447" width="2" height="16" fill="black"/>
<rect x="598" y="480" width="2" height="40" fill="black"/>
<rect x="694" y="447" width="3" height="16" fill="black"/>
<rect x="694" y="480" width="3" height="40" fill="black"/>
<rect x="751" y="447" width="3" height="17" fill="black"/>
<rect x="751" y="480" width="3" height="40" fill="black"/>
<rect x="732" y="444" width="82" height="3" fill="black"/>
<rect x="832" y="444" width="35" height="3" fill="black"/>
<rect x="862" y="447" width="3" height="46" fill="black"/>
<rect x="652" y="390" width="61" height="3" fill="black"/>
<rect x="736" y="390" width="59" height="3" fill="black"/>
<rect x="841" y="393" width="3" height="27" fill="black"/>
<rect x="844" y="417" width="18" height="3" fill="black"/>
<rect x="881" y="417" width="17" height="3" fill="black"/>
<rect x="891" y="364" width="3" height="53" fill="black"/>
<rect x="921" y="364" width="3" height="53" fill="black"/>
<rect x="916" y="417" width="12" height="3" fill="black"/>
<rect x="947" y="417" width="12" height="3" fill="black"/>
<rect x="951" y="364" width="3" height="53" fill="black"/>
<rect x="984" y="364" width="3" height="53" fill="black"/>
<rect x="977" y="417" width="15" height="3" fill="black"/>
<rect x="1010" y="417" width="14" height="3" fill="black"/>
<rect x="1016" y="364" width="3" height="53" fill="black"/>
<rect x="1048" y="364" width="3" height="53" fill="black"/>
<rect x="1042" y="417" width="14" height="3" fill="black"/>
<rect x="1075" y="417" width="14" height="3" fill="black"/>
<rect x="1080" y="364" width="3" height="53" fill="black"/>
<rect x="1108" y="417" width="99" height="3" fill="black"/>
<rect x="1199" y="364" width="3" height="53" fill="black"/>
<rect x="1219" y="417" width="8" height="3" fill="black"/>
<rect x="1238" y="417" width="8" height="3" fill="black"/>
<rect x="1257" y="417" width="8" height="3" fill="black"/>
<rect x="1261" y="347" width="4" height="70" fill="black"/>
<rect x="1240" y="361" width="21" height="3" fill="black"/>
<rect x="886" y="444" width="10" height="3" fill="black"/>
<rect x="889" y="447" width="3" height="9" fill="black"/>
<rect x="889" y="474" width="3" height="19" fill="black"/>
<rect x="912" y="444" width="18" height="3" fill="black"/>
<rect x="919" y="447" width="3" height="10" fill="black"/>
<rect x="919" y="473" width="3" height="20" fill="black"/>
<rect x="947" y="444" width="10" height="3" fill="black"/>
<rect x="950" y="447" width="3" height="46" fill="black"/>
<rect x="975" y="444" width="46" height="3" fill="black"/>
<rect x="1014" y="447" width="3" height="46" fill="black"/>
<rect x="1040" y="444" width="48" height="3" fill="black"/>
<rect x="1078" y="447" width="4" height="46" fill="black"/>
<rect x="1107" y="444" width="45" height="3" fill="black"/>
<rect x="1143" y="447" width="3" height="46" fill="black"/>
<rect x="1169" y="444" width="39" height="3" fill="black"/>
<rect x="1198" y="447" width="3" height="46" fill="black"/>
<rect x="1226" y="444" width="38" height="3" fill="black"/>
<rect x="1261" y="447" width="3" height="30" fill="black"/>
<rect x="1231" y="447" width="3" height="50" fill="black"/>
<rect x="1213" y="497" width="48" height="3" fill="black"/>
<rect x="1261" y="495" width="3" height="25" fill="black"/>
<rect x="1240" y="314" width="21" height="2" fill="black"/>
<rect x="1261" y="312" width="4" height="18" fill="black"/>
<rect x="1217" y="286" width="44" height="2" fill="black"/>
<rect x="1261" y="248" width="4" height="46" fill="black"/>
<rect x="1261" y="178" width="4" height="52" fill="black"/>
<rect x="1217" y="184" width="44" height="2" fill="black"/>
<rect x="1217" y="153" width="44" height="2" fill="black"/>
<rect x="1261" y="147" width="4" height="13" fill="black"/>
<rect x="1261" y="109" width="4" height="21" fill="black"/>
<rect x="1217" y="119" width="44" height="3" fill="black"/>
<rect x="1217" y="83" width="44" height="3" fill="black"/>
<rect x="1261" y="79" width="4" height="13" fill="black"/>
<rect x="1217" y="29" width="27" height="3" fill="black"/>
<rect x="1239" y="32" width="3" height="5" fill="black"/>
<rect x="1261" y="28" width="4" height="35" fill="black"/>
<rect x="1217" y="56" width="44" height="2" fill="black"/>
<rect x="1261" y="13" width="4" height="3" fill="black"/>
<rect x="1290" y="13" width="3" height="59" fill="black"/>
<rect x="1293" y="66" width="4" height="3" fill="black"/>
<rect x="1290" y="85" width="3" height="7" fill="black"/>
<rect x="1293" y="89" width="144" height="3" fill="black"/>
<rect x="1347" y="92" width="4" height="9" fill="black"/>
<rect x="1347" y="106" width="4" height="9" fill="black"/>
<rect x="1341" y="115" width="96" height="3" fill="black"/>
<rect x="1314" y="115" width="9" height="3" fill="black"/>
<rect x="1318" y="118" width="3" height="63" fill="black"/>
<rect x="1290" y="115" width="7" height="2" fill="black"/>
<rect x="1290" y="117" width="3" height="135" fill="black"/>
<rect x="1293" y="181" width="49" height="3" fill="black"/>
<rect x="1290" y="269" width="3" height="30" fill="black"/>
<rect x="1293" y="290" width="49" height="3" fill="black"/>
<rect x="1290" y="316" width="3" height="11" fill="black"/>
<rect x="1293" y="318" width="49" height="3" fill="black"/>
<rect x="1290" y="339" width="3" height="14" fill="black"/>
<rect x="1293" y="342" width="36" height="3" fill="black"/>
<rect x="1290" y="370" width="3" height="14" fill="black"/>
<rect x="1293" y="374" width="36" height="3" fill="black"/>
<rect x="1293" y="407" width="36" height="3" fill="black"/>
<rect x="1290" y="401" width="3" height="52" fill="black"/>
<rect x="1293" y="444" width="9" height="2" fill="black"/>
<rect x="1321" y="444" width="8" height="2" fill="black"/>
<rect x="1293" y="475" width="36" height="2" fill="black"/>
<rect x="1290" y="470" width="3" height="51" fill="black"/>
<rect x="1293" y="506" width="36" height="2" fill="black"/>
<rect x="1293" y="544" width="49" height="3" fill="black"/>
<rect x="1290" y="537" width="3" height="14" fill="black"/>
<rect x="1293" y="567" width="49" height="3" fill="black"/>
<rect x="1290" y="563" width="3" height="14" fill="black"/>
<rect x="1290" y="594" width="3" height="14" fill="black"/>
<rect x="1293" y="599" width="49" height="3" fill="black"/>
<rect x="1311" y="602" width="2" height="32" fill="black"/>
<rect x="1334" y="631" width="8" height="3" fill="black"/>
<rect x="1313" y="631" width="4" height="3" fill="black"/>
<rect x="1293" y="631" width="18" height="3" fill="black"/>
<rect x="1290" y="626" width="3" height="15" fill="black"/>
<rect x="1293" y="663" width="49" height="3" fill="black"/>
<rect x="1290" y="660" width="3" height="51" fill="black"/>
<rect x="1317" y="666" width="3" height="66" fill="black"/>
<rect x="1290" y="729" width="3" height="6" fill="black"/>
<rect x="1293" y="732" width="40" height="3" fill="black"/>
<rect x="1343" y="732" width="52" height="3" fill="black"/>
<rect x="1413" y="732" width="5" height="3" fill="black"/>
<rect x="1381" y="673" width="3" height="59" fill="black"/>
<rect x="1349" y="757" width="69" height="4" fill="black"/>
<rect x="1280" y="757" width="51" height="4" fill="black"/>
<rect x="1320" y="761" width="3" height="60" fill="black"/>
<rect x="1289" y="761" width="3" height="6" fill="black"/>
<rect x="1264" y="757" width="9" height="4" fill="black"/>
<rect x="1261" y="746" width="3" height="75" fill="black"/>
<rect x="1264" y="786" width="8" height="4" fill="black"/>
<rect x="1280" y="786" width="9" height="4" fill="black"/>
<rect x="1289" y="784" width="3" height="37" fill="black"/>
<rect x="1213" y="712" width="48" height="3" fill="black"/>
<rect x="1261" y="699" width="3" height="36" fill="black"/>
<rect x="1261" y="659" width="3" height="24" fill="black"/>
<rect x="1261" y="573" width="3" height="69" fill="black"/>
<rect x="1213" y="666" width="48" height="3" fill="black"/>
<rect x="1213" y="601" width="48" height="3" fill="black"/>
<rect x="1261" y="537" width="3" height="18" fill="black"/>
<rect x="1213" y="540" width="48" height="3" fill="black"/>
<rect x="198" y="382" width="20" height="20" rx="3" fill="black"/>
<rect x="218" y="396" width="20" height="1" fill="#D9D9D9"/>
<rect x="218" y="399" width="20" height="1" fill="#D9D9D9"/>
<rect x="218" y="393" width="20" height="1" fill="#D9D9D9"/>
<rect x="218" y="390" width="20" height="1" fill="#D9D9D9"/>
<rect x="218" y="387" width="20" height="1" fill="#D9D9D9"/>
<rect x="218" y="384" width="20" height="1" fill="#D9D9D9"/>
<rect x="179" y="384" width="19" height="1" fill="#D9D9D9"/>
<rect x="179" y="387" width="19" height="1" fill="#D9D9D9"/>
<path d="M179 390H198V391H179V390Z" fill="#D9D9D9"/>
<rect x="179" y="393" width="19" height="1" fill="#D9D9D9"/>
<rect x="179" y="396" width="19" height="1" fill="#D9D9D9"/>
<rect x="179" y="400" width="22" height="2" fill="black"/>
<rect x="215" y="368" width="1" height="14" fill="#D9D9D9"/>
<rect x="212" y="368" width="1" height="14" fill="#D9D9D9"/>
<rect x="209" y="368" width="1" height="14" fill="#D9D9D9"/>
<rect x="206" y="368" width="1" height="14" fill="#D9D9D9"/>
<rect x="203" y="368" width="1" height="14" fill="#D9D9D9"/>
<rect x="200" y="368" width="1" height="14" fill="#D9D9D9"/>
<rect x="179" y="399" width="19" height="1" fill="#D9D9D9"/>
<rect x="1222" y="378" width="20" height="20" rx="3" fill="black"/>
<rect x="1202" y="396" width="23" height="2" fill="black"/>
<rect x="1242" y="395" width="19" height="1" fill="#D9D9D9"/>
<rect x="1242" y="392" width="19" height="1" fill="#D9D9D9"/>
<rect x="1242" y="389" width="19" height="1" fill="#D9D9D9"/>
<rect x="1242" y="386" width="19" height="1" fill="#D9D9D9"/>
<rect x="1242" y="383" width="19" height="1" fill="#D9D9D9"/>
<rect x="1242" y="380" width="19" height="1" fill="#D9D9D9"/>
<rect x="1239" y="364" width="1" height="14" fill="#D9D9D9"/>
<rect x="1236" y="364" width="1" height="14" fill="#D9D9D9"/>
<rect x="1233" y="364" width="1" height="14" fill="#D9D9D9"/>
<rect x="1230" y="364" width="1" height="14" fill="#D9D9D9"/>
<rect x="1227" y="364" width="1" height="14" fill="#D9D9D9"/>
<rect x="1224" y="364" width="1" height="14" fill="#D9D9D9"/>
<rect x="1202" y="380" width="20" height="1" fill="#D9D9D9"/>
<rect x="1202" y="383" width="20" height="1" fill="#D9D9D9"/>
<rect x="1202" y="386" width="20" height="1" fill="#D9D9D9"/>
<rect x="1202" y="389" width="20" height="1" fill="#D9D9D9"/>
<rect x="1202" y="392" width="20" height="1" fill="#D9D9D9"/>
<rect x="1202" y="395" width="20" height="1" fill="#D9D9D9"/>
<rect x="1342" y="187" width="7" height="159" fill="#346AF4"/>
<rect x="691" y="372" width="1" height="18" fill="#D9D9D9"/>
<rect x="766" y="372" width="1" height="18" fill="#D9D9D9"/>
<rect x="688" y="372" width="1" height="18" fill="#D9D9D9"/>
<rect x="763" y="372" width="1" height="18" fill="#D9D9D9"/>
<rect x="685" y="372" width="1" height="18" fill="#D9D9D9"/>
<rect x="760" y="372" width="1" height="18" fill="#D9D9D9"/>
<rect x="682" y="372" width="1" height="18" fill="#D9D9D9"/>
<rect x="757" y="372" width="1" height="18" fill="#D9D9D9"/>
<rect x="679" y="372" width="1" height="18" fill="#D9D9D9"/>
<rect x="754" y="372" width="1" height="18" fill="#D9D9D9"/>
<rect x="694" y="372" width="1" height="18" fill="#D9D9D9"/>
<rect x="769" y="372" width="1" height="18" fill="#D9D9D9"/>
<rect x="676" y="372" width="1" height="18" fill="#D9D9D9"/>
<rect x="751" y="372" width="1" height="18" fill="#D9D9D9"/>
<rect x="652" y="368" width="22" height="1" fill="#D9D9D9"/>
<rect x="773" y="368" width="22" height="1" fill="#D9D9D9"/>
<rect x="652" y="365" width="22" height="1" fill="#D9D9D9"/>
<rect x="773" y="365" width="22" height="1" fill="#D9D9D9"/>
<rect x="652" y="362" width="22" height="1" fill="#D9D9D9"/>
<rect x="773" y="362" width="22" height="1" fill="#D9D9D9"/>
<rect x="652" y="359" width="22" height="1" fill="#D9D9D9"/>
<rect x="773" y="359" width="22" height="1" fill="#D9D9D9"/>
<rect x="652" y="356" width="22" height="1" fill="#D9D9D9"/>
<rect x="773" y="356" width="22" height="1" fill="#D9D9D9"/>
<rect x="652" y="353" width="22" height="1" fill="#D9D9D9"/>
<rect x="773" y="353" width="22" height="1" fill="#D9D9D9"/>
<rect x="652" y="350" width="22" height="1" fill="#D9D9D9"/>
<rect x="773" y="350" width="22" height="1" fill="#D9D9D9"/>
<rect x="652" y="347" width="22" height="1" fill="#D9D9D9"/>
<rect x="773" y="347" width="22" height="1" fill="#D9D9D9"/>
<rect x="652" y="344" width="22" height="1" fill="#D9D9D9"/>
<rect x="773" y="344" width="22" height="1" fill="#D9D9D9"/>
<rect x="652" y="341" width="22" height="1" fill="#D9D9D9"/>
<rect x="773" y="341" width="22" height="1" fill="#D9D9D9"/>
<rect x="652" y="338" width="22" height="1" fill="#D9D9D9"/>
<rect x="773" y="338" width="22" height="1" fill="#D9D9D9"/>
<rect x="652" y="335" width="22" height="1" fill="#D9D9D9"/>
<rect x="773" y="335" width="22" height="1" fill="#D9D9D9"/>
<rect x="652" y="332" width="22" height="1" fill="#D9D9D9"/>
<rect x="773" y="332" width="22" height="1" fill="#D9D9D9"/>
<rect x="677" y="318" width="1" height="10" fill="#D9D9D9"/>
<rect x="750" y="318" width="1" height="10" fill="#D9D9D9"/>
<rect x="680" y="318" width="1" height="10" fill="#D9D9D9"/>
<rect x="753" y="318" width="1" height="10" fill="#D9D9D9"/>
<rect x="683" y="318" width="1" height="10" fill="#D9D9D9"/>
<rect x="756" y="318" width="1" height="10" fill="#D9D9D9"/>
<rect x="686" y="318" width="1" height="10" fill="#D9D9D9"/>
<rect x="759" y="318" width="1" height="10" fill="#D9D9D9"/>
<rect x="689" y="318" width="1" height="10" fill="#D9D9D9"/>
<rect x="762" y="318" width="1" height="10" fill="#D9D9D9"/>
<rect x="692" y="318" width="1" height="10" fill="#D9D9D9"/>
<rect x="765" y="318" width="1" height="10" fill="#D9D9D9"/>
<rect x="695" y="318" width="1" height="10" fill="#D9D9D9"/>
<rect x="768" y="318" width="1" height="10" fill="#D9D9D9"/>
<rect x="701" y="330" width="46" height="1" fill="#D9D9D9"/>
<rect x="701" y="333" width="46" height="1" fill="#D9D9D9"/>
<rect x="701" y="336" width="46" height="1" fill="#D9D9D9"/>
<rect x="701" y="339" width="46" height="1" fill="#D9D9D9"/>
<rect x="701" y="342" width="46" height="1" fill="#D9D9D9"/>
<rect x="701" y="345" width="46" height="1" fill="#D9D9D9"/>
<rect x="701" y="348" width="46" height="1" fill="#D9D9D9"/>
<rect x="701" y="351" width="46" height="1" fill="#D9D9D9"/>
<rect x="701" y="354" width="46" height="1" fill="#D9D9D9"/>
<rect x="701" y="357" width="46" height="1" fill="#D9D9D9"/>
<rect x="701" y="360" width="46" height="1" fill="#D9D9D9"/>
<rect x="701" y="363" width="46" height="1" fill="#D9D9D9"/>
<rect x="701" y="366" width="46" height="1" fill="#D9D9D9"/>
<rect x="698" y="368" width="52" height="2" fill="black"/>
<rect width="27.04" height="44" rx="3" transform="matrix(0.99999 -0.00453101 0.00499806 0.999987 673.935 328.113)" fill="black"/>
<rect width="25.8691" height="44.1147" rx="3" transform="matrix(0.99999 -0.00453101 0.00499806 0.999987 747.045 328.114)" fill="black"/>
</svg>
