<svg width="2683" height="1497" viewBox="0 0 2683 1497" fill="none" xmlns="http://www.w3.org/2000/svg">
<rect x="10" y="14" width="446" height="315" fill="white"/>
<rect x="219" y="329" width="237" height="255" fill="white"/>
<rect x="219" y="584" width="191" height="38" fill="white"/>
<rect x="243" y="622" width="167" height="864" fill="white"/>
<rect x="77" y="1222" width="166" height="264" fill="white"/>
<rect x="219" y="905" width="24" height="317" fill="white"/>
<rect x="410" y="661" width="43" height="825" fill="white"/>
<rect x="453" y="661" width="676" height="236" fill="white"/>
<rect x="1129" y="698" width="484" height="265" fill="white"/>
<rect x="1234" y="562" width="262" height="136" fill="white"/>
<rect x="1593" y="658" width="20" height="40" fill="white"/>
<rect x="1099" y="897" width="30" height="66" fill="white"/>
<rect x="1613" y="658" width="863" height="239" fill="white"/>
<rect x="2263" y="897" width="213" height="590" fill="white"/>
<rect x="2476" y="915" width="25" height="572" fill="white"/>
<rect x="2501" y="1222" width="139" height="265" fill="white"/>
<rect x="2312" y="10" width="164" height="648" fill="white"/>
<rect x="2270" y="10" width="42" height="558" fill="white"/>
<rect x="2476" y="10" width="195" height="315" fill="white"/>
<rect x="2476" y="325" width="24" height="303" fill="white"/>
<rect x="365" y="722" width="40" height="2" fill="black"/>
<rect x="437" y="720" width="38" height="2" fill="#D9D9D9"/>
<rect x="437" y="716" width="38" height="2" fill="#D9D9D9"/>
<rect x="437" y="712" width="38" height="2" fill="#D9D9D9"/>
<rect x="437" y="708" width="38" height="2" fill="#D9D9D9"/>
<rect x="437" y="704" width="38" height="2" fill="#D9D9D9"/>
<rect x="437" y="700" width="38" height="2" fill="#D9D9D9"/>
<rect x="437" y="696" width="38" height="2" fill="#D9D9D9"/>
<rect x="437" y="692" width="38" height="2" fill="#D9D9D9"/>
<rect x="434" y="688" width="41" height="2" fill="#D9D9D9"/>
<rect x="365" y="688" width="37" height="2" fill="#D9D9D9"/>
<rect x="365" y="692" width="37" height="2" fill="#D9D9D9"/>
<rect x="365" y="696" width="37" height="2" fill="#D9D9D9"/>
<rect x="365" y="700" width="37" height="2" fill="#D9D9D9"/>
<rect x="365" y="704" width="37" height="2" fill="#D9D9D9"/>
<rect x="365" y="708" width="37" height="2" fill="#D9D9D9"/>
<rect x="365" y="712" width="37" height="2" fill="#D9D9D9"/>
<rect x="365" y="716" width="37" height="2" fill="#D9D9D9"/>
<rect x="365" y="720" width="37" height="2" fill="#D9D9D9"/>
<rect x="430" y="661" width="2" height="26" fill="#D9D9D9"/>
<rect x="434" y="661" width="2" height="27" fill="#D9D9D9"/>
<rect x="426" y="661" width="2" height="26" fill="#D9D9D9"/>
<rect x="422" y="661" width="2" height="26" fill="#D9D9D9"/>
<rect x="418" y="661" width="2" height="26" fill="#D9D9D9"/>
<rect x="414" y="661" width="2" height="26" fill="#D9D9D9"/>
<rect x="410" y="661" width="2" height="26" fill="#D9D9D9"/>
<rect x="406" y="661" width="2" height="26" fill="#D9D9D9"/>
<rect x="402" y="661" width="2" height="27" fill="#D9D9D9"/>
<rect x="400" y="687" width="37" height="37" rx="3" fill="black"/>
<rect x="2245" y="719" width="39.2727" height="2" fill="black"/>
<rect x="2315.69" y="717" width="37.3091" height="2" fill="#D9D9D9"/>
<rect x="2315.69" y="713" width="37.3091" height="2" fill="#D9D9D9"/>
<rect x="2315.69" y="709" width="37.3091" height="2" fill="#D9D9D9"/>
<rect x="2315.69" y="705" width="37.3091" height="2" fill="#D9D9D9"/>
<rect x="2315.69" y="701" width="37.3091" height="2" fill="#D9D9D9"/>
<rect x="2315.69" y="697" width="37.3091" height="2" fill="#D9D9D9"/>
<rect x="2315.69" y="693" width="37.3091" height="2" fill="#D9D9D9"/>
<rect x="2315.69" y="689" width="37.3091" height="2" fill="#D9D9D9"/>
<rect x="2312.75" y="685" width="40.2545" height="2" fill="#D9D9D9"/>
<rect x="2245" y="685" width="36.3273" height="2" fill="#D9D9D9"/>
<rect x="2245" y="689" width="36.3273" height="2" fill="#D9D9D9"/>
<rect x="2245" y="693" width="36.3273" height="2" fill="#D9D9D9"/>
<rect x="2245" y="697" width="36.3273" height="2" fill="#D9D9D9"/>
<rect x="2245" y="701" width="36.3273" height="2" fill="#D9D9D9"/>
<rect x="2245" y="705" width="36.3273" height="2" fill="#D9D9D9"/>
<rect x="2245" y="709" width="36.3273" height="2" fill="#D9D9D9"/>
<rect x="2245" y="713" width="36.3273" height="2" fill="#D9D9D9"/>
<rect x="2245" y="717" width="36.3273" height="2" fill="#D9D9D9"/>
<rect x="2308.82" y="658" width="1.96364" height="26" fill="#D9D9D9"/>
<rect x="2312.75" y="658" width="1.96364" height="27" fill="#D9D9D9"/>
<rect x="2304.89" y="658" width="1.96364" height="26" fill="#D9D9D9"/>
<rect x="2300.96" y="658" width="1.96364" height="26" fill="#D9D9D9"/>
<rect x="2297.04" y="658" width="1.96364" height="26" fill="#D9D9D9"/>
<rect x="2293.11" y="658" width="1.96364" height="26" fill="#D9D9D9"/>
<rect x="2289.18" y="658" width="1.96364" height="26" fill="#D9D9D9"/>
<rect x="2285.25" y="658" width="1.96364" height="26" fill="#D9D9D9"/>
<rect x="2281.33" y="658" width="1.96364" height="27" fill="#D9D9D9"/>
<rect x="2279" y="684" width="38" height="37" rx="3" fill="black"/>
<rect width="1.83217" height="30" transform="matrix(-1 0 0 1 1424.55 664)" fill="#D9D9D9"/>
<rect width="1.83217" height="30" transform="matrix(-1 0 0 1 1287.13 664)" fill="#D9D9D9"/>
<rect width="1.83217" height="30" transform="matrix(-1 0 0 1 1430.04 664)" fill="#D9D9D9"/>
<rect width="1.83217" height="30" transform="matrix(-1 0 0 1 1292.63 664)" fill="#D9D9D9"/>
<rect width="1.83217" height="30" transform="matrix(-1 0 0 1 1435.54 664)" fill="#D9D9D9"/>
<rect width="1.83217" height="30" transform="matrix(-1 0 0 1 1298.13 664)" fill="#D9D9D9"/>
<rect width="1.83217" height="30" transform="matrix(-1 0 0 1 1441.04 664)" fill="#D9D9D9"/>
<rect width="1.83217" height="30" transform="matrix(-1 0 0 1 1303.62 664)" fill="#D9D9D9"/>
<rect width="1.83217" height="30" transform="matrix(-1 0 0 1 1446.53 664)" fill="#D9D9D9"/>
<rect width="1.83217" height="30" transform="matrix(-1 0 0 1 1309.12 664)" fill="#D9D9D9"/>
<rect width="1.83217" height="30" transform="matrix(-1 0 0 1 1419.05 664)" fill="#D9D9D9"/>
<rect width="1.83217" height="30" transform="matrix(-1 0 0 1 1281.64 664)" fill="#D9D9D9"/>
<rect width="1.83217" height="30" transform="matrix(-1 0 0 1 1452.03 664)" fill="#D9D9D9"/>
<rect width="1.83217" height="30" transform="matrix(-1 0 0 1 1314.62 664)" fill="#D9D9D9"/>
<rect width="40.3077" height="1.66667" transform="matrix(-1 0 0 1 1496 657.333)" fill="#D9D9D9"/>
<rect width="40.3077" height="1.66667" transform="matrix(-1 0 0 1 1274.31 657.333)" fill="#D9D9D9"/>
<rect width="40.3077" height="1.66667" transform="matrix(-1 0 0 1 1496 652.333)" fill="#D9D9D9"/>
<rect width="40.3077" height="1.66667" transform="matrix(-1 0 0 1 1274.31 652.333)" fill="#D9D9D9"/>
<rect width="40.3077" height="1.66667" transform="matrix(-1 0 0 1 1496 647.333)" fill="#D9D9D9"/>
<rect width="40.3077" height="1.66667" transform="matrix(-1 0 0 1 1274.31 647.333)" fill="#D9D9D9"/>
<rect width="40.3077" height="1.66667" transform="matrix(-1 0 0 1 1496 642.333)" fill="#D9D9D9"/>
<rect width="40.3077" height="1.66667" transform="matrix(-1 0 0 1 1274.31 642.333)" fill="#D9D9D9"/>
<rect width="40.3077" height="1.66667" transform="matrix(-1 0 0 1 1496 637.333)" fill="#D9D9D9"/>
<rect width="40.3077" height="1.66667" transform="matrix(-1 0 0 1 1274.31 637.333)" fill="#D9D9D9"/>
<rect width="40.3077" height="1.66667" transform="matrix(-1 0 0 1 1496 632.333)" fill="#D9D9D9"/>
<rect width="40.3077" height="1.66667" transform="matrix(-1 0 0 1 1274.31 632.333)" fill="#D9D9D9"/>
<rect width="40.3077" height="1.66667" transform="matrix(-1 0 0 1 1496 627.333)" fill="#D9D9D9"/>
<rect width="40.3077" height="1.66667" transform="matrix(-1 0 0 1 1274.31 627.333)" fill="#D9D9D9"/>
<rect width="40.3077" height="1.66667" transform="matrix(-1 0 0 1 1496 622.333)" fill="#D9D9D9"/>
<rect width="40.3077" height="1.66667" transform="matrix(-1 0 0 1 1274.31 622.333)" fill="#D9D9D9"/>
<rect width="40.3077" height="1.66667" transform="matrix(-1 0 0 1 1496 617.333)" fill="#D9D9D9"/>
<rect width="40.3077" height="1.66667" transform="matrix(-1 0 0 1 1274.31 617.333)" fill="#D9D9D9"/>
<rect width="40.3077" height="1.66667" transform="matrix(-1 0 0 1 1496 612.333)" fill="#D9D9D9"/>
<rect width="40.3077" height="1.66667" transform="matrix(-1 0 0 1 1274.31 612.333)" fill="#D9D9D9"/>
<rect width="40.3077" height="1.66667" transform="matrix(-1 0 0 1 1496 607.333)" fill="#D9D9D9"/>
<rect width="40.3077" height="1.66667" transform="matrix(-1 0 0 1 1274.31 607.333)" fill="#D9D9D9"/>
<rect width="40.3077" height="1.66667" transform="matrix(-1 0 0 1 1496 602.333)" fill="#D9D9D9"/>
<rect width="40.3077" height="1.66667" transform="matrix(-1 0 0 1 1274.31 602.333)" fill="#D9D9D9"/>
<rect width="40.3077" height="1.66667" transform="matrix(-1 0 0 1 1496 597.333)" fill="#D9D9D9"/>
<rect width="40.3077" height="1.66667" transform="matrix(-1 0 0 1 1274.31 597.333)" fill="#D9D9D9"/>
<rect width="2" height="29" transform="matrix(-1 0 0 1 1450 562)" fill="#D9D9D9"/>
<rect width="2" height="29" transform="matrix(-1 0 0 1 1314 562)" fill="#D9D9D9"/>
<rect width="2" height="29" transform="matrix(-1 0 0 1 1319 562)" fill="#D9D9D9"/>
<rect width="2" height="29" transform="matrix(-1 0 0 1 1445 562)" fill="#D9D9D9"/>
<rect width="2" height="29" transform="matrix(-1 0 0 1 1309 562)" fill="#D9D9D9"/>
<rect width="2" height="29" transform="matrix(-1 0 0 1 1439 562)" fill="#D9D9D9"/>
<rect width="2" height="29" transform="matrix(-1 0 0 1 1304 562)" fill="#D9D9D9"/>
<rect width="2" height="29" transform="matrix(-1 0 0 1 1434 562)" fill="#D9D9D9"/>
<rect width="2" height="29" transform="matrix(-1 0 0 1 1299 562)" fill="#D9D9D9"/>
<rect width="2" height="29" transform="matrix(-1 0 0 1 1428 562)" fill="#D9D9D9"/>
<rect width="2" height="29" transform="matrix(-1 0 0 1 1294 562)" fill="#D9D9D9"/>
<rect width="2" height="29" transform="matrix(-1 0 0 1 1423 562)" fill="#D9D9D9"/>
<rect width="2" height="29" transform="matrix(-1 0 0 1 1289 562)" fill="#D9D9D9"/>
<rect width="2" height="29" transform="matrix(-1 0 0 1 1417 562)" fill="#D9D9D9"/>
<rect width="2" height="29" transform="matrix(-1 0 0 1 1284 562)" fill="#D9D9D9"/>
<rect width="2" height="29" transform="matrix(-1 0 0 1 1279 562)" fill="#D9D9D9"/>
<rect width="84.2797" height="1.66667" transform="matrix(-1 0 0 1 1406.22 594)" fill="#D9D9D9"/>
<rect width="84.2797" height="1.66667" transform="matrix(-1 0 0 1 1406.22 599)" fill="#D9D9D9"/>
<rect width="84.2797" height="1.66667" transform="matrix(-1 0 0 1 1406.22 604)" fill="#D9D9D9"/>
<rect width="84.2797" height="1.66667" transform="matrix(-1 0 0 1 1406.22 609)" fill="#D9D9D9"/>
<rect width="84.2797" height="1.66667" transform="matrix(-1 0 0 1 1406.22 614)" fill="#D9D9D9"/>
<rect width="84.2797" height="1.66667" transform="matrix(-1 0 0 1 1406.22 619)" fill="#D9D9D9"/>
<rect width="84.2797" height="1.66667" transform="matrix(-1 0 0 1 1406.22 624)" fill="#D9D9D9"/>
<rect width="84.2797" height="1.66667" transform="matrix(-1 0 0 1 1406.22 629)" fill="#D9D9D9"/>
<rect width="84.2797" height="1.66667" transform="matrix(-1 0 0 1 1406.22 634)" fill="#D9D9D9"/>
<rect width="84.2797" height="1.66667" transform="matrix(-1 0 0 1 1406.22 639)" fill="#D9D9D9"/>
<rect width="84.2797" height="1.66667" transform="matrix(-1 0 0 1 1406.22 644)" fill="#D9D9D9"/>
<rect width="84.2797" height="1.66667" transform="matrix(-1 0 0 1 1406.22 649)" fill="#D9D9D9"/>
<rect width="84.2797" height="1.66667" transform="matrix(-1 0 0 1 1406.22 654)" fill="#D9D9D9"/>
<rect width="95.2727" height="3.33333" transform="matrix(-1 0 0 1 1411.72 657.333)" fill="black"/>
<rect width="49.5418" height="73.3336" rx="3" transform="matrix(-0.999992 -0.00412173 -0.00549436 0.999985 1455.81 590.855)" fill="black"/>
<rect width="47.3965" height="73.5247" rx="3" transform="matrix(-0.999992 -0.00412173 -0.00549436 0.999985 1321.86 590.856)" fill="black"/>
<rect x="365" y="656" width="45" height="5" fill="black"/>
<rect x="361" y="636" width="4" height="121" fill="black"/>
<rect x="365" y="753" width="7" height="4" fill="black"/>
<rect x="365" y="800" width="8" height="5" fill="black"/>
<rect x="409" y="800" width="138" height="5" fill="black"/>
<rect x="581" y="800" width="136" height="5" fill="black"/>
<rect x="752" y="800" width="18" height="5" fill="black"/>
<rect x="748" y="753" width="19" height="5" fill="black"/>
<rect x="802" y="753" width="21" height="5" fill="black"/>
<rect x="856" y="753" width="83" height="5" fill="black"/>
<rect x="972" y="753" width="73" height="5" fill="black"/>
<rect x="1079" y="753" width="60" height="5" fill="black"/>
<rect x="816" y="721" width="8" height="5" fill="black"/>
<rect x="856" y="721" width="11" height="5" fill="black"/>
<rect x="806" y="800" width="18" height="5" fill="black"/>
<rect x="860" y="800" width="21" height="5" fill="black"/>
<rect x="915" y="800" width="21" height="5" fill="black"/>
<rect x="968" y="800" width="23" height="5" fill="black"/>
<rect x="1026" y="800" width="24" height="5" fill="black"/>
<rect x="1083" y="800" width="50" height="5" fill="black"/>
<rect x="1167" y="800" width="63" height="5" fill="black"/>
<rect x="1265" y="800" width="170" height="5" fill="black"/>
<rect x="1470" y="800" width="58" height="5" fill="black"/>
<rect x="1562" y="800" width="65" height="5" fill="black"/>
<rect x="1661" y="800" width="14" height="5" fill="black"/>
<rect x="1606" y="929" width="7" height="5" fill="black"/>
<rect x="1581" y="929" width="7" height="5" fill="black"/>
<rect x="1709" y="800" width="31" height="5" fill="black"/>
<rect x="1774" y="800" width="194" height="5" fill="black"/>
<rect x="2002" y="800" width="28" height="5" fill="black"/>
<rect x="2064" y="800" width="247" height="5" fill="black"/>
<rect x="2343" y="800" width="10" height="5" fill="black"/>
<path d="M2257 853H2353V859H2257V853Z" fill="black"/>
<path d="M2263 904H2353V910H2263V904Z" fill="black"/>
<path d="M2410 910H2476V915H2410V910Z" fill="black"/>
<path d="M2410 871H2476V876H2410V871Z" fill="black"/>
<path d="M2263 983H2353V989H2263V983Z" fill="black"/>
<path d="M2410 979H2501V985H2410V979Z" fill="black"/>
<path d="M2263 1035H2353V1041H2263V1035Z" fill="black"/>
<path d="M2263 1211H2353V1217H2263V1211Z" fill="black"/>
<path d="M2410 1208H2501V1214H2410V1208Z" fill="black"/>
<path d="M2263 1321H2353V1327H2263V1321Z" fill="black"/>
<path d="M2263 1384H2353V1390H2263V1384Z" fill="black"/>
<path d="M2389 1371H2431V1377H2389V1371Z" fill="black"/>
<path d="M2359 1371H2374V1377H2359V1371Z" fill="black"/>
<path d="M2464 1371H2514V1377H2464V1371Z" fill="black"/>
<path d="M2549 1371H2640V1377H2549V1371Z" fill="black"/>
<path d="M2504 1324H2598V1330H2504V1324Z" fill="black"/>
<path d="M2404 1324H2470V1330H2404V1324Z" fill="black"/>
<path d="M2632 1324H2640V1330H2632V1324Z" fill="black"/>
<rect x="365" y="897" width="88" height="4" fill="black"/>
<rect x="365" y="987" width="88" height="4" fill="black"/>
<rect x="365" y="1218" width="88" height="4" fill="black"/>
<rect x="397" y="753" width="12" height="4" fill="black"/>
<rect x="433" y="753" width="12" height="4" fill="black"/>
<rect x="469" y="753" width="245" height="4" fill="black"/>
<rect x="475" y="661" width="4" height="92" fill="black"/>
<rect x="757" y="661" width="4" height="92" fill="black"/>
<rect x="812" y="661" width="4" height="92" fill="black"/>
<rect x="867" y="661" width="5" height="92" fill="black"/>
<rect x="1032" y="661" width="5" height="92" fill="black"/>
<rect x="1133" y="698" width="6" height="55" fill="black"/>
<rect x="463" y="805" width="5" height="92" fill="black"/>
<rect x="696" y="805" width="5" height="92" fill="black"/>
<rect x="758" y="805" width="5" height="92" fill="black"/>
<rect x="812" y="805" width="5" height="92" fill="black"/>
<rect x="868" y="805" width="5" height="92" fill="black"/>
<rect x="922" y="805" width="5" height="92" fill="black"/>
<rect x="978" y="805" width="5" height="92" fill="black"/>
<rect x="1032" y="805" width="5" height="92" fill="black"/>
<rect x="1093" y="805" width="6" height="92" fill="black"/>
<rect x="365" y="584" width="45" height="4" fill="black"/>
<rect x="361" y="415" width="4" height="190" fill="black"/>
<rect x="365" y="347" width="91" height="4" fill="black"/>
<rect x="361" y="331" width="4" height="51" fill="black"/>
<rect x="361" y="200" width="4" height="97" fill="black"/>
<rect x="365" y="213" width="91" height="4" fill="black"/>
<rect x="365" y="165" width="91" height="4" fill="black"/>
<rect x="361" y="144" width="4" height="39" fill="black"/>
<rect x="361" y="42" width="4" height="85" fill="black"/>
<rect x="361" y="14" width="4" height="19" fill="black"/>
<rect x="365" y="61" width="91" height="4" fill="black"/>
<rect x="349" y="107" width="12" height="4" fill="black"/>
<rect x="314" y="107" width="15" height="4" fill="black"/>
<rect x="310" y="14" width="4" height="113" fill="black"/>
<rect x="310" y="199" width="4" height="154" fill="black"/>
<rect x="310" y="388" width="4" height="136" fill="black"/>
<rect x="310" y="141" width="4" height="42" fill="black"/>
<rect x="305" y="215" width="5" height="4" fill="black"/>
<rect x="251" y="215" width="19" height="4" fill="black"/>
<rect x="219" y="329" width="91" height="4" fill="black"/>
<rect x="258" y="219" width="5" height="54" fill="black"/>
<rect x="263" y="269" width="47" height="4" fill="black"/>
<rect x="136" y="165" width="174" height="4" fill="black"/>
<rect x="142" y="14" width="4" height="151" fill="black"/>
<rect x="206" y="219" width="5" height="110" fill="black"/>
<rect x="202" y="215" width="14" height="4" fill="black"/>
<rect x="10" y="215" width="120" height="4" fill="black"/>
<rect x="10" y="165" width="91" height="4" fill="black"/>
<rect x="90" y="169" width="5" height="14" fill="black"/>
<rect x="90" y="200" width="5" height="15" fill="black"/>
<rect x="219" y="510" width="91" height="4" fill="black"/>
<rect x="219" y="568" width="91" height="6" fill="black"/>
<rect x="310" y="556" width="4" height="25" fill="black"/>
<rect x="243" y="622" width="67" height="4" fill="black"/>
<rect x="310" y="615" width="4" height="22" fill="black"/>
<rect x="310" y="670" width="4" height="28" fill="black"/>
<rect x="310" y="731" width="4" height="37" fill="black"/>
<rect x="310" y="792" width="4" height="68" fill="black"/>
<rect x="310" y="892" width="4" height="33" fill="black"/>
<rect x="310" y="957" width="4" height="36" fill="black"/>
<rect x="361" y="966" width="4" height="36" fill="black"/>
<rect x="361" y="800" width="4" height="133" fill="black"/>
<rect x="361" y="1035" width="4" height="70" fill="black"/>
<rect x="310" y="1027" width="4" height="78" fill="black"/>
<rect x="310" y="1138" width="4" height="130" fill="black"/>
<rect x="310" y="1294" width="4" height="34" fill="black"/>
<rect x="361" y="1294" width="4" height="192" fill="black"/>
<rect x="361" y="1138" width="4" height="143" fill="black"/>
<rect x="243" y="680" width="67" height="5" fill="black"/>
<rect x="243" y="751" width="67" height="5" fill="black"/>
<rect x="1234" y="694" width="107" height="4" fill="black"/>
<rect x="1391" y="694" width="105" height="4" fill="black"/>
<rect x="1582" y="749" width="80" height="4" fill="black"/>
<rect x="1694" y="749" width="43" height="4" fill="black"/>
<rect x="1771" y="749" width="50" height="4" fill="black"/>
<rect x="1854" y="749" width="20" height="4" fill="black"/>
<rect x="1909" y="749" width="22" height="4" fill="black"/>
<rect x="1965" y="749" width="69" height="4" fill="black"/>
<rect x="2068" y="749" width="105" height="4" fill="black"/>
<rect x="2203" y="749" width="48" height="4" fill="black"/>
<rect x="2276" y="749" width="13" height="4" fill="black"/>
<rect x="2311" y="749" width="13" height="4" fill="black"/>
<rect x="2312" y="653" width="41" height="5" fill="black"/>
<rect x="2410" y="687" width="66" height="5" fill="black"/>
<rect x="2410" y="628" width="66" height="4" fill="black"/>
<rect x="2410" y="576" width="90" height="4" fill="black"/>
<rect x="2410" y="325" width="90" height="4" fill="black"/>
<rect x="2410" y="217" width="5" height="4" fill="black"/>
<rect x="2449" y="217" width="16" height="4" fill="black"/>
<rect x="2617" y="283" width="54" height="4" fill="black"/>
<rect x="2497" y="217" width="174" height="4" fill="black"/>
<rect x="2410" y="147" width="261" height="4" fill="black"/>
<rect x="2270" y="147" width="83" height="4" fill="black"/>
<rect x="2312" y="568" width="41" height="4" fill="black"/>
<rect x="2270" y="454" width="83" height="6" fill="black"/>
<rect x="2270" y="396" width="83" height="6" fill="black"/>
<rect x="2270" y="213" width="83" height="6" fill="black"/>
<rect x="2346" y="749" width="13" height="4" fill="black"/>
<rect x="295" y="810" width="15" height="4" fill="black"/>
<rect x="243" y="810" width="16" height="4" fill="black"/>
<rect x="243" y="847" width="67" height="4" fill="black"/>
<rect x="219" y="973" width="91" height="4" fill="black"/>
<rect x="243" y="901" width="67" height="4" fill="black"/>
<rect x="219" y="1035" width="91" height="5" fill="black"/>
<rect x="219" y="1218" width="91" height="4" fill="black"/>
<rect x="241" y="1222" width="4" height="102" fill="black"/>
<rect x="188" y="1324" width="122" height="4" fill="black"/>
<rect x="112" y="1324" width="55" height="4" fill="black"/>
<rect x="77" y="1370" width="150" height="4" fill="black"/>
<rect x="255" y="1370" width="41" height="4" fill="black"/>
<rect x="331" y="1370" width="30" height="4" fill="black"/>
<rect x="77" y="1324" width="18" height="4" fill="black"/>
<rect x="126" y="1222" width="5" height="102" fill="black"/>
<rect x="269" y="1374" width="6" height="112" fill="black"/>
<rect x="1192" y="805" width="18" height="12" fill="black"/>
<rect x="1290" y="805" width="18" height="12" fill="black"/>
<rect x="1394" y="805" width="18" height="12" fill="black"/>
<rect x="1496" y="805" width="18" height="12" fill="black"/>
<rect x="1200" y="817" width="4" height="146" fill="black"/>
<rect x="1298" y="817" width="4" height="146" fill="black"/>
<rect x="1576" y="867" width="5" height="96" fill="black"/>
<rect x="1576" y="805" width="5" height="30" fill="black"/>
<rect x="1618" y="805" width="5" height="92" fill="black"/>
<rect x="1667" y="805" width="5" height="92" fill="black"/>
<rect x="1705" y="658" width="5" height="91" fill="black"/>
<rect x="1809" y="658" width="5" height="91" fill="black"/>
<rect x="1864" y="658" width="5" height="91" fill="black"/>
<rect x="1915" y="658" width="5" height="91" fill="black"/>
<rect x="2024" y="658" width="6" height="91" fill="black"/>
<rect x="2074" y="658" width="6" height="91" fill="black"/>
<rect x="2239" y="658" width="6" height="91" fill="black"/>
<rect x="2353" y="628" width="6" height="121" fill="black"/>
<rect x="2353" y="562" width="6" height="34" fill="black"/>
<rect x="2404" y="680" width="6" height="26" fill="black"/>
<rect x="2404" y="622" width="6" height="26" fill="black"/>
<rect x="2404" y="565" width="6" height="26" fill="black"/>
<rect x="2404" y="199" width="6" height="337" fill="black"/>
<rect x="2404" y="141" width="6" height="27" fill="black"/>
<rect x="2404" y="98" width="6" height="11" fill="black"/>
<rect x="2270" y="49" width="83" height="5" fill="black"/>
<rect x="2404" y="52" width="6" height="13" fill="black"/>
<rect x="2353" y="130" width="6" height="33" fill="black"/>
<rect x="2353" y="45" width="6" height="52" fill="black"/>
<rect x="2404" y="10" width="6" height="13" fill="black"/>
<rect x="2353" y="10" width="6" height="4" fill="black"/>
<rect x="2353" y="446" width="6" height="88" fill="black"/>
<rect x="2353" y="383" width="6" height="34" fill="black"/>
<rect x="2456" y="221" width="5" height="104" fill="black"/>
<rect x="2499" y="200" width="5" height="17" fill="black"/>
<rect x="2612" y="221" width="5" height="17" fill="black"/>
<rect x="2612" y="266" width="5" height="26" fill="black"/>
<rect x="2612" y="318" width="5" height="7" fill="black"/>
<rect x="2499" y="151" width="5" height="17" fill="black"/>
<rect x="2353" y="195" width="6" height="158" fill="black"/>
<rect x="1644" y="704" width="5" height="45" fill="black"/>
<rect x="1582" y="698" width="5" height="51" fill="black"/>
<rect x="1644" y="658" width="5" height="20" fill="black"/>
<rect x="1721" y="805" width="5" height="92" fill="black"/>
<rect x="1894" y="805" width="6" height="92" fill="black"/>
<rect x="2012" y="805" width="6" height="92" fill="black"/>
<rect x="2251" y="805" width="6" height="92" fill="black"/>
<rect x="2298" y="805" width="6" height="8" fill="black"/>
<rect x="2298" y="845" width="6" height="8" fill="black"/>
<rect x="2353" y="800" width="6" height="69" fill="black"/>
<rect x="2353" y="897" width="6" height="36" fill="black"/>
<rect x="2404" y="902" width="6" height="35" fill="black"/>
<rect x="2404" y="736" width="6" height="152" fill="black"/>
<rect x="2353" y="965" width="6" height="35" fill="black"/>
<rect x="2353" y="1029" width="6" height="139" fill="black"/>
<rect x="2353" y="1198" width="6" height="78" fill="black"/>
<rect x="2353" y="1306" width="6" height="36" fill="black"/>
<rect x="2404" y="1318" width="6" height="6" fill="black"/>
<rect x="2457" y="1214" width="6" height="110" fill="black"/>
<rect x="2573" y="1222" width="6" height="102" fill="black"/>
<rect x="2404" y="1200" width="6" height="95" fill="black"/>
<rect x="2404" y="967" width="6" height="201" fill="black"/>
<rect x="2353" y="1470" width="6" height="17" fill="black"/>
<rect x="2404" y="1377" width="6" height="110" fill="black"/>
<rect x="2494" y="1377" width="6" height="110" fill="black"/>
<rect x="2353" y="1357" width="6" height="80" fill="black"/>
<rect y="4" width="465" height="10" fill="#346AF4"/>
<rect y="14" width="10" height="327" fill="#346AF4"/>
<rect x="10" y="329" width="209" height="12" fill="#346AF4"/>
<rect x="210" y="341" width="9" height="285" fill="#346AF4"/>
<rect x="219" y="622" width="24" height="4" fill="#346AF4"/>
<rect x="232" y="626" width="11" height="279" fill="#346AF4"/>
<rect x="210" y="901" width="22" height="4" fill="#346AF4"/>
<rect x="210" y="905" width="9" height="317" fill="#346AF4"/>
<rect x="68" y="1212" width="142" height="10" fill="#346AF4"/>
<rect x="68" y="1222" width="9" height="274" fill="#346AF4"/>
<rect x="77" y="1486" width="385" height="10" fill="#346AF4"/>
<rect x="453" y="897" width="9" height="589" fill="#346AF4"/>
<rect x="462" y="897" width="637" height="9" fill="#346AF4"/>
<rect x="1089" y="906" width="10" height="65" fill="#346AF4"/>
<rect x="1099" y="963" width="524" height="8" fill="#346AF4"/>
<rect x="1613" y="897" width="10" height="66" fill="#346AF4"/>
<rect x="1623" y="897" width="640" height="9" fill="#346AF4"/>
<rect x="2254" y="906" width="9" height="591" fill="#346AF4"/>
<rect x="2263" y="1487" width="387" height="10" fill="#346AF4"/>
<rect x="2640" y="1212" width="10" height="275" fill="#346AF4"/>
<rect x="2501" y="1212" width="139" height="10" fill="#346AF4"/>
<rect x="2501" y="911" width="10" height="301" fill="#346AF4"/>
<rect x="2476" y="911" width="25" height="4" fill="#346AF4"/>
<rect x="2476" y="628" width="11" height="283" fill="#346AF4"/>
<rect x="2487" y="628" width="23" height="4" fill="#346AF4"/>
<rect x="2500" y="325" width="10" height="303" fill="#346AF4"/>
<rect x="2510" y="325" width="173" height="10" fill="#346AF4"/>
<rect x="2671" width="12" height="325" fill="#346AF4"/>
<rect x="2260" width="411" height="10" fill="#346AF4"/>
<rect x="2260" y="10" width="10" height="568" fill="#346AF4"/>
<rect x="2270" y="568" width="42" height="10" fill="#346AF4"/>
<rect x="2301" y="578" width="11" height="80" fill="#346AF4"/>
<rect x="1582" y="648" width="719" height="10" fill="#346AF4"/>
<rect x="1582" y="658" width="11" height="40" fill="#346AF4"/>
<rect x="1496" y="690" width="86" height="8" fill="#346AF4"/>
<rect x="1496" y="552" width="9" height="138" fill="#346AF4"/>
<rect x="1224" y="552" width="272" height="10" fill="#346AF4"/>
<rect x="1224" y="562" width="10" height="136" fill="#346AF4"/>
<rect x="1129" y="690" width="95" height="8" fill="#346AF4"/>
<rect x="1129" y="652" width="10" height="38" fill="#346AF4"/>
<rect x="410" y="652" width="719" height="9" fill="#346AF4"/>
<rect x="410" y="584" width="10" height="68" fill="#346AF4"/>
<rect x="420" y="584" width="45" height="10" fill="#346AF4"/>
<rect x="456" y="14" width="9" height="570" fill="#346AF4"/>
</svg>
