<svg width="1432" height="796" viewBox="0 0 1432 796" fill="none" xmlns="http://www.w3.org/2000/svg">
<rect x="1427" y="792" width="236" height="157" transform="rotate(180 1427 792)" fill="white"/>
<rect x="1315" y="635" width="124" height="136" transform="rotate(180 1315 635)" fill="white"/>
<rect x="1315" y="499" width="100" height="18" transform="rotate(180 1315 499)" fill="white"/>
<rect x="1302" y="481" width="87" height="164" transform="rotate(180 1302 481)" fill="white"/>
<rect x="1215" y="459" width="22" height="142" transform="rotate(180 1215 459)" fill="white"/>
<rect x="1315" y="317" width="122" height="310" transform="rotate(180 1315 317)" fill="white"/>
<rect x="1394" y="151" width="79" height="144" transform="rotate(180 1394 151)" fill="white"/>
<rect x="1193" y="459" width="363" height="136" transform="rotate(180 1193 459)" fill="white"/>
<rect x="830" y="428" width="257" height="139" transform="rotate(180 830 428)" fill="white"/>
<rect x="772" y="500" width="138" height="72" transform="rotate(180 772 500)" fill="white"/>
<rect x="846" y="323" width="16" height="34" transform="rotate(180 846 323)" fill="white"/>
<rect x="584" y="458" width="11" height="30" transform="rotate(180 584 458)" fill="white"/>
<rect x="573" y="458" width="463" height="135" transform="rotate(180 573 458)" fill="white"/>
<rect x="198" y="506" width="88" height="48" transform="rotate(180 198 506)" fill="white"/>
<rect x="110" y="506" width="13" height="31" transform="rotate(180 110 506)" fill="white"/>
<rect x="220" y="786" width="215" height="152" transform="rotate(180 220 786)" fill="white"/>
<rect x="220" y="634" width="123" height="128" transform="rotate(180 220 634)" fill="white"/>
<rect x="224" y="323" width="114" height="9" transform="rotate(180 224 323)" fill="white"/>
<rect x="224" y="314" width="127" height="309" transform="rotate(180 224 314)" fill="white"/>
<rect x="97" y="151" width="76" height="146" transform="rotate(180 97 151)" fill="white"/>
<rect x="1202" y="429" width="21" height="1" transform="rotate(180 1202 429)" fill="#D9D9D9"/>
<rect x="1202" y="427" width="21" height="1" transform="rotate(180 1202 427)" fill="#D9D9D9"/>
<rect x="1202" y="431" width="21" height="1" transform="rotate(180 1202 431)" fill="#D9D9D9"/>
<rect x="1202" y="433" width="21" height="1" transform="rotate(180 1202 433)" fill="#D9D9D9"/>
<rect x="1202" y="435" width="21" height="1" transform="rotate(180 1202 435)" fill="#D9D9D9"/>
<rect x="1202" y="437" width="21" height="1" transform="rotate(180 1202 437)" fill="#D9D9D9"/>
<rect x="1202" y="439" width="21" height="1" transform="rotate(180 1202 439)" fill="#D9D9D9"/>
<rect x="1202" y="441" width="21" height="1" transform="rotate(180 1202 441)" fill="#D9D9D9"/>
<rect x="1202" y="443" width="21" height="1" transform="rotate(180 1202 443)" fill="#D9D9D9"/>
<rect x="1205" y="443" width="16" height="1" transform="rotate(90 1205 443)" fill="#D9D9D9"/>
<rect x="1203" y="443" width="16" height="1" transform="rotate(90 1203 443)" fill="#D9D9D9"/>
<rect x="1207" y="443" width="16" height="1" transform="rotate(90 1207 443)" fill="#D9D9D9"/>
<rect x="1209" y="443" width="16" height="1" transform="rotate(90 1209 443)" fill="#D9D9D9"/>
<rect x="1211" y="443" width="16" height="1" transform="rotate(90 1211 443)" fill="#D9D9D9"/>
<rect x="1213" y="443" width="16" height="1" transform="rotate(90 1213 443)" fill="#D9D9D9"/>
<rect x="1215" y="443" width="16" height="1" transform="rotate(90 1215 443)" fill="#D9D9D9"/>
<rect x="1217" y="443" width="16" height="1" transform="rotate(90 1217 443)" fill="#D9D9D9"/>
<rect x="1219" y="443" width="16" height="1" transform="rotate(90 1219 443)" fill="#D9D9D9"/>
<rect x="1239" y="441" width="20" height="1" transform="rotate(180 1239 441)" fill="#D9D9D9"/>
<rect x="1239" y="443" width="20" height="1" transform="rotate(180 1239 443)" fill="#D9D9D9"/>
<rect x="1239" y="439" width="20" height="1" transform="rotate(180 1239 439)" fill="#D9D9D9"/>
<rect x="1239" y="437" width="20" height="1" transform="rotate(180 1239 437)" fill="#D9D9D9"/>
<rect x="1239" y="435" width="20" height="1" transform="rotate(180 1239 435)" fill="#D9D9D9"/>
<rect x="1239" y="433" width="20" height="1" transform="rotate(180 1239 433)" fill="#D9D9D9"/>
<rect x="1239" y="431" width="20" height="1" transform="rotate(180 1239 431)" fill="#D9D9D9"/>
<rect x="1239" y="429" width="20" height="1" transform="rotate(180 1239 429)" fill="#D9D9D9"/>
<rect x="1239" y="427" width="22.7451" height="1.17241" transform="rotate(180 1239 427)" fill="black"/>
<rect x="1220" y="444" width="19" height="18" rx="2" transform="rotate(-180 1220 444)" fill="black"/>
<rect x="1357" y="792" width="2" height="71" transform="rotate(180 1357 792)" fill="black"/>
<rect x="1427" y="721" width="7" height="2" transform="rotate(180 1427 721)" fill="black"/>
<rect x="1427" y="695" width="7" height="2" transform="rotate(180 1427 695)" fill="black"/>
<rect x="1403" y="695" width="12" height="2" transform="rotate(180 1403 695)" fill="black"/>
<rect x="1374" y="695" width="31" height="2" transform="rotate(180 1374 695)" fill="black"/>
<rect x="1326" y="695" width="39" height="2" transform="rotate(180 1326 695)" fill="black"/>
<rect x="1271" y="695" width="4" height="2" transform="rotate(180 1271 695)" fill="black"/>
<rect x="1405" y="721" width="27" height="2" transform="rotate(180 1405 721)" fill="black"/>
<rect x="1361" y="721" width="94" height="2" transform="rotate(180 1361 721)" fill="black"/>
<rect x="1267" y="734" width="3" height="22" transform="rotate(180 1267 734)" fill="black"/>
<rect x="1267" y="703" width="3" height="82" transform="rotate(180 1267 703)" fill="black"/>
<rect x="1267" y="605" width="3" height="74" transform="rotate(180 1267 605)" fill="black"/>
<rect x="1267" y="792" width="3" height="52" transform="rotate(180 1267 792)" fill="black"/>
<rect x="1242" y="792" width="3" height="52" transform="rotate(180 1242 792)" fill="black"/>
<rect x="1264" y="744" width="8" height="2" transform="rotate(180 1264 744)" fill="black"/>
<rect x="1250" y="744" width="8" height="2" transform="rotate(180 1250 744)" fill="black"/>
<rect x="1242" y="734" width="3" height="14" transform="rotate(180 1242 734)" fill="black"/>
<rect x="1242" y="704" width="3" height="53" transform="rotate(180 1242 704)" fill="black"/>
<rect x="1242" y="635" width="3" height="104" transform="rotate(180 1242 635)" fill="black"/>
<rect x="1239" y="730" width="48" height="2" transform="rotate(180 1239 730)" fill="black"/>
<rect x="1398" y="693" width="3" height="58" transform="rotate(180 1398 693)" fill="black"/>
<rect x="1371" y="693" width="3" height="58" transform="rotate(180 1371 693)" fill="black"/>
<rect x="1295" y="693" width="3" height="8" transform="rotate(180 1295 693)" fill="black"/>
<rect x="1295" y="668" width="3" height="36" transform="rotate(180 1295 668)" fill="black"/>
<rect x="1315" y="632" width="48" height="3" transform="rotate(180 1315 632)" fill="black"/>
<rect x="1315" y="571" width="48" height="3" transform="rotate(180 1315 571)" fill="black"/>
<rect x="1239" y="697" width="48" height="3" transform="rotate(180 1239 697)" fill="black"/>
<rect x="1239" y="625" width="48" height="3" transform="rotate(180 1239 625)" fill="black"/>
<rect x="1242" y="515" width="3" height="21" transform="rotate(180 1242 515)" fill="black"/>
<rect x="1242" y="479" width="3" height="78" transform="rotate(180 1242 479)" fill="black"/>
<rect x="1242" y="375" width="3" height="71" transform="rotate(180 1242 375)" fill="black"/>
<rect x="1242" y="288" width="3" height="78" transform="rotate(180 1242 288)" fill="black"/>
<rect x="1242" y="194" width="3" height="17" transform="rotate(180 1242 194)" fill="black"/>
<rect x="1242" y="161" width="3" height="49" transform="rotate(180 1242 161)" fill="black"/>
<rect x="1239" y="189" width="46" height="3" transform="rotate(180 1239 189)" fill="black"/>
<rect x="1276" y="70" width="18" height="3" transform="rotate(180 1276 70)" fill="black"/>
<rect x="1250" y="70" width="8" height="3" transform="rotate(180 1250 70)" fill="black"/>
<rect x="1242" y="96" width="3" height="89" transform="rotate(180 1242 96)" fill="black"/>
<rect x="1315" y="188" width="48" height="3" transform="rotate(180 1315 188)" fill="black"/>
<rect x="1315" y="154" width="48" height="3" transform="rotate(180 1315 154)" fill="black"/>
<rect x="1239" y="218" width="46" height="3" transform="rotate(180 1239 218)" fill="black"/>
<rect x="1239" y="153" width="46" height="3" transform="rotate(180 1239 153)" fill="black"/>
<rect x="1181" y="459" width="3" height="58" transform="rotate(180 1181 459)" fill="black"/>
<rect x="1121" y="459" width="3" height="58" transform="rotate(180 1121 459)" fill="black"/>
<rect x="1092" y="459" width="3" height="58" transform="rotate(180 1092 459)" fill="black"/>
<rect x="1064" y="459" width="3" height="58" transform="rotate(180 1064 459)" fill="black"/>
<rect x="1034" y="459" width="3" height="58" transform="rotate(180 1034 459)" fill="black"/>
<rect x="1005" y="459" width="3" height="58" transform="rotate(180 1005 459)" fill="black"/>
<rect x="974" y="459" width="3" height="58" transform="rotate(180 974 459)" fill="black"/>
<rect x="1267" y="515" width="3" height="15" transform="rotate(180 1267 515)" fill="black"/>
<rect x="1267" y="484" width="3" height="13" transform="rotate(180 1267 484)" fill="black"/>
<rect x="1267" y="456" width="3" height="113" transform="rotate(180 1267 456)" fill="black"/>
<rect x="1267" y="326" width="3" height="18" transform="rotate(180 1267 326)" fill="black"/>
<rect x="1267" y="291" width="3" height="80" transform="rotate(180 1267 291)" fill="black"/>
<rect x="1267" y="196" width="3" height="17" transform="rotate(180 1267 196)" fill="black"/>
<rect x="1267" y="96" width="3" height="7" transform="rotate(180 1267 96)" fill="black"/>
<rect x="1267" y="67" width="3" height="60" transform="rotate(180 1267 67)" fill="black"/>
<rect x="1361" y="151" width="3" height="59" transform="rotate(180 1361 151)" fill="black"/>
<rect x="1311" y="92" width="44" height="3" transform="rotate(180 1311 92)" fill="black"/>
<rect x="1369" y="92" width="41" height="3" transform="rotate(180 1369 92)" fill="black"/>
<rect x="1394" y="92" width="8" height="3" transform="rotate(180 1394 92)" fill="black"/>
<rect x="1394" y="69" width="102" height="3" transform="rotate(180 1394 69)" fill="black"/>
<rect x="1267" y="162" width="3" height="50" transform="rotate(180 1267 162)" fill="black"/>
<rect x="1304" y="151" width="3" height="59" transform="rotate(180 1304 151)" fill="black"/>
<rect x="1239" y="499" width="24" height="2" transform="rotate(180 1239 499)" fill="black"/>
<rect x="1239" y="461" width="24" height="2" transform="rotate(180 1239 461)" fill="black"/>
<rect x="1302" y="480" width="35" height="3" transform="rotate(180 1302 480)" fill="black"/>
<rect x="1315" y="507" width="48" height="2" transform="rotate(180 1315 507)" fill="black"/>
<rect x="1272" y="449" width="5" height="4" transform="rotate(180 1272 449)" fill="black"/>
<rect x="1302" y="449" width="13" height="4" transform="rotate(180 1302 449)" fill="black"/>
<rect x="1302" y="411" width="35" height="3" transform="rotate(180 1302 411)" fill="black"/>
<rect x="1302" y="321" width="35" height="3" transform="rotate(180 1302 321)" fill="black"/>
<rect x="1315" y="283" width="48" height="3" transform="rotate(180 1315 283)" fill="black"/>
<rect x="1212" y="348" width="4" height="3" transform="rotate(180 1212 348)" fill="black"/>
<rect x="1191" y="348" width="4" height="3" transform="rotate(180 1191 348)" fill="black"/>
<rect x="1239" y="323" width="46" height="3" transform="rotate(180 1239 323)" fill="black"/>
<rect x="1242" y="401" width="7" height="3" transform="rotate(180 1242 401)" fill="black"/>
<rect x="1224" y="401" width="8" height="3" transform="rotate(180 1224 401)" fill="black"/>
<rect x="1204" y="401" width="8" height="3" transform="rotate(180 1204 401)" fill="black"/>
<rect x="1185" y="401" width="42" height="3" transform="rotate(180 1185 401)" fill="black"/>
<rect x="1126" y="401" width="12" height="3" transform="rotate(180 1126 401)" fill="black"/>
<rect x="1097" y="401" width="12" height="3" transform="rotate(180 1097 401)" fill="black"/>
<rect x="1069" y="401" width="12" height="3" transform="rotate(180 1069 401)" fill="black"/>
<rect x="1041" y="401" width="13" height="3" transform="rotate(180 1041 401)" fill="black"/>
<rect x="1011" y="401" width="14" height="3" transform="rotate(180 1011 401)" fill="black"/>
<rect x="980" y="401" width="14" height="3" transform="rotate(180 980 401)" fill="black"/>
<rect x="949" y="401" width="45" height="3" transform="rotate(180 949 401)" fill="black"/>
<rect x="887" y="401" width="39" height="3" transform="rotate(180 887 401)" fill="black"/>
<rect x="837" y="401" width="13" height="3" transform="rotate(180 837 401)" fill="black"/>
<rect x="827" y="428" width="3" height="27" transform="rotate(180 827 428)" fill="black"/>
<rect x="850" y="459" width="3" height="26" transform="rotate(180 850 459)" fill="black"/>
<rect x="880" y="436" width="30" height="3" transform="rotate(180 880 436)" fill="black"/>
<rect x="883" y="459" width="3" height="7" transform="rotate(180 883 459)" fill="black"/>
<rect x="883" y="442" width="3" height="41" transform="rotate(180 883 442)" fill="black"/>
<rect x="946" y="459" width="3" height="58" transform="rotate(180 946 459)" fill="black"/>
<rect x="1239" y="375" width="5" height="3" transform="rotate(180 1239 375)" fill="black"/>
<rect x="1217" y="375" width="8" height="3" transform="rotate(180 1217 375)" fill="black"/>
<rect x="1191" y="375" width="14" height="3" transform="rotate(180 1191 375)" fill="black"/>
<rect x="1160" y="375" width="14" height="3" transform="rotate(180 1160 375)" fill="black"/>
<rect x="1130" y="375" width="12" height="3" transform="rotate(180 1130 375)" fill="black"/>
<rect x="1101" y="375" width="18" height="3" transform="rotate(180 1101 375)" fill="black"/>
<rect x="1067" y="375" width="12" height="3" transform="rotate(180 1067 375)" fill="black"/>
<rect x="1038" y="375" width="11" height="3" transform="rotate(180 1038 375)" fill="black"/>
<rect x="1010" y="375" width="41" height="3" transform="rotate(180 1010 375)" fill="black"/>
<rect x="952" y="375" width="13" height="3" transform="rotate(180 952 375)" fill="black"/>
<rect x="922" y="375" width="47" height="3" transform="rotate(180 922 375)" fill="black"/>
<rect x="854" y="375" width="39" height="3" transform="rotate(180 854 375)" fill="black"/>
<rect x="798" y="375" width="27" height="3" transform="rotate(180 798 375)" fill="black"/>
<rect x="772" y="431" width="8" height="3" transform="rotate(180 772 431)" fill="black"/>
<rect x="649" y="431" width="15" height="3" transform="rotate(180 649 431)" fill="black"/>
<rect x="751" y="431" width="90" height="3" transform="rotate(180 751 431)" fill="black"/>
<rect x="754" y="375" width="88" height="3" transform="rotate(180 754 375)" fill="black"/>
<rect x="600" y="375" width="37" height="3" transform="rotate(180 600 375)" fill="black"/>
<rect x="587" y="401" width="44" height="3" transform="rotate(180 587 401)" fill="black"/>
<rect x="523" y="401" width="64" height="3" transform="rotate(180 523 401)" fill="black"/>
<rect x="443" y="401" width="41" height="3" transform="rotate(180 443 401)" fill="black"/>
<rect x="590" y="372" width="11" height="7" transform="rotate(180 590 372)" fill="black"/>
<rect x="514" y="372" width="4" height="49" transform="rotate(180 514 372)" fill="black"/>
<rect x="453" y="372" width="4" height="49" transform="rotate(180 453 372)" fill="black"/>
<rect x="424" y="372" width="4" height="49" transform="rotate(180 424 372)" fill="black"/>
<rect x="393" y="372" width="4" height="49" transform="rotate(180 393 372)" fill="black"/>
<rect x="360" y="372" width="4" height="49" transform="rotate(180 360 372)" fill="black"/>
<rect x="330" y="372" width="4" height="49" transform="rotate(180 330 372)" fill="black"/>
<rect x="269" y="372" width="4" height="49" transform="rotate(180 269 372)" fill="black"/>
<rect x="232" y="372" width="4" height="49" transform="rotate(180 232 372)" fill="black"/>
<rect x="636" y="372" width="11" height="7" transform="rotate(180 636 372)" fill="black"/>
<rect x="690" y="372" width="11" height="7" transform="rotate(180 690 372)" fill="black"/>
<rect x="649" y="375" width="32" height="3" transform="rotate(180 649 375)" fill="black"/>
<rect x="1215" y="372" width="3" height="49" transform="rotate(180 1215 372)" fill="black"/>
<rect x="1187" y="372" width="3" height="49" transform="rotate(180 1187 372)" fill="black"/>
<rect x="1155" y="372" width="3" height="49" transform="rotate(180 1155 372)" fill="black"/>
<rect x="1125" y="372" width="3" height="49" transform="rotate(180 1125 372)" fill="black"/>
<rect x="1096" y="372" width="3" height="49" transform="rotate(180 1096 372)" fill="black"/>
<rect x="1063" y="372" width="3" height="49" transform="rotate(180 1063 372)" fill="black"/>
<rect x="1034" y="372" width="3" height="49" transform="rotate(180 1034 372)" fill="black"/>
<rect x="1005" y="372" width="3" height="49" transform="rotate(180 1005 372)" fill="black"/>
<rect x="946" y="372" width="3" height="49" transform="rotate(180 946 372)" fill="black"/>
<rect x="917" y="372" width="3" height="49" transform="rotate(180 917 372)" fill="black"/>
<rect x="849" y="372" width="3" height="49" transform="rotate(180 849 372)" fill="black"/>
<rect x="829" y="372" width="10" height="7" transform="rotate(180 829 372)" fill="black"/>
<rect x="788" y="372" width="10" height="7" transform="rotate(180 788 372)" fill="black"/>
<rect x="742" y="372" width="12" height="7" transform="rotate(180 742 372)" fill="black"/>
<rect x="742" y="365" width="3" height="76" transform="rotate(180 742 365)" fill="black"/>
<rect x="784" y="365" width="3" height="76" transform="rotate(180 784 365)" fill="black"/>
<rect x="571" y="372" width="3" height="49" transform="rotate(180 571 372)" fill="black"/>
<rect x="590" y="428" width="3" height="30" transform="rotate(180 590 428)" fill="black"/>
<rect x="492" y="458" width="3" height="57" transform="rotate(180 492 458)" fill="black"/>
<rect x="409" y="458" width="3" height="57" transform="rotate(180 409 458)" fill="black"/>
<rect x="381" y="458" width="3" height="57" transform="rotate(180 381 458)" fill="black"/>
<rect x="236" y="458" width="3" height="57" transform="rotate(180 236 458)" fill="black"/>
<rect x="353" y="458" width="3" height="57" transform="rotate(180 353 458)" fill="black"/>
<rect x="198" y="461" width="22" height="3" transform="rotate(180 198 461)" fill="black"/>
<rect x="330" y="401" width="101" height="3" transform="rotate(180 330 401)" fill="black"/>
<rect x="218" y="401" width="8" height="3" transform="rotate(180 218 401)" fill="black"/>
<rect x="357" y="401" width="11" height="3" transform="rotate(180 357 401)" fill="black"/>
<rect x="385" y="401" width="12" height="3" transform="rotate(180 385 401)" fill="black"/>
<rect x="547" y="375" width="74" height="3" transform="rotate(180 547 375)" fill="black"/>
<rect x="457" y="375" width="12" height="3" transform="rotate(180 457 375)" fill="black"/>
<rect x="428" y="375" width="12" height="3" transform="rotate(180 428 375)" fill="black"/>
<rect x="398" y="375" width="14" height="3" transform="rotate(180 398 375)" fill="black"/>
<rect x="366" y="375" width="13" height="3" transform="rotate(180 366 375)" fill="black"/>
<rect x="336" y="375" width="16" height="3" transform="rotate(180 336 375)" fill="black"/>
<rect x="241" y="375" width="16" height="3" transform="rotate(180 241 375)" fill="black"/>
<rect x="228" y="347" width="3" height="3" transform="rotate(180 228 347)" fill="black"/>
<rect x="224" y="320" width="48" height="3" transform="rotate(180 224 320)" fill="black"/>
<rect x="224" y="221" width="48" height="3" transform="rotate(180 224 221)" fill="black"/>
<rect x="208" y="347" width="3" height="3" transform="rotate(180 208 347)" fill="black"/>
<rect x="176" y="372" width="3" height="69" transform="rotate(180 176 372)" fill="black"/>
<rect x="176" y="289" width="3" height="110" transform="rotate(180 176 289)" fill="black"/>
<rect x="208" y="375" width="10" height="3" transform="rotate(180 208 375)" fill="black"/>
<rect x="183" y="375" width="10" height="3" transform="rotate(180 183 375)" fill="black"/>
<rect x="205" y="372" width="3" height="52" transform="rotate(180 205 372)" fill="black"/>
<rect x="303" y="375" width="47" height="3" transform="rotate(180 303 375)" fill="black"/>
<rect x="198" y="401" width="8" height="3" transform="rotate(180 198 401)" fill="black"/>
<rect x="179" y="401" width="6" height="3" transform="rotate(180 179 401)" fill="black"/>
<rect x="176" y="482" width="3" height="81" transform="rotate(180 176 482)" fill="black"/>
<rect x="176" y="511" width="3" height="13" transform="rotate(180 176 511)" fill="black"/>
<rect x="176" y="542" width="3" height="15" transform="rotate(180 176 542)" fill="black"/>
<rect x="148" y="542" width="3" height="15" transform="rotate(180 148 542)" fill="black"/>
<rect x="148" y="511" width="3" height="17" transform="rotate(180 148 511)" fill="black"/>
<rect x="148" y="478" width="3" height="15" transform="rotate(180 148 478)" fill="black"/>
<rect x="148" y="448" width="3" height="15" transform="rotate(180 148 448)" fill="black"/>
<rect x="148" y="418" width="3" height="19" transform="rotate(180 148 418)" fill="black"/>
<rect x="148" y="385" width="3" height="19" transform="rotate(180 148 385)" fill="black"/>
<rect x="148" y="351" width="3" height="14" transform="rotate(180 148 351)" fill="black"/>
<rect x="148" y="321" width="3" height="18" transform="rotate(180 148 321)" fill="black"/>
<rect x="148" y="287" width="3" height="15" transform="rotate(180 148 287)" fill="black"/>
<rect x="148" y="256" width="3" height="14" transform="rotate(180 148 256)" fill="black"/>
<rect x="148" y="226" width="3" height="47" transform="rotate(180 148 226)" fill="black"/>
<rect x="148" y="163" width="3" height="51" transform="rotate(180 148 163)" fill="black"/>
<rect x="148" y="97" width="3" height="5" transform="rotate(180 148 97)" fill="black"/>
<rect x="148" y="64" width="3" height="59" transform="rotate(180 148 64)" fill="black"/>
<rect x="176" y="40" width="3" height="35" transform="rotate(180 176 40)" fill="black"/>
<rect x="224" y="156" width="48" height="3" transform="rotate(180 224 156)" fill="black"/>
<rect x="224" y="60" width="48" height="3" transform="rotate(180 224 60)" fill="black"/>
<rect x="121" y="155" width="3" height="63" transform="rotate(180 121 155)" fill="black"/>
<rect x="117" y="64" width="3" height="63" transform="rotate(180 117 64)" fill="black"/>
<rect x="176" y="164" width="3" height="42" transform="rotate(180 176 164)" fill="black"/>
<rect x="176" y="107" width="3" height="52" transform="rotate(180 176 107)" fill="black"/>
<rect x="176" y="620" width="3" height="62" transform="rotate(180 176 620)" fill="black"/>
<rect x="176" y="651" width="3" height="15" transform="rotate(180 176 651)" fill="black"/>
<rect x="176" y="688" width="3" height="21" transform="rotate(180 176 688)" fill="black"/>
<rect x="176" y="718" width="3" height="14" transform="rotate(180 176 718)" fill="black"/>
<rect x="148" y="786" width="3" height="82" transform="rotate(180 148 786)" fill="black"/>
<rect x="148" y="688" width="3" height="130" transform="rotate(180 148 688)" fill="black"/>
<rect x="176" y="767" width="3" height="33" transform="rotate(180 176 767)" fill="black"/>
<rect x="90" y="786" width="3" height="73" transform="rotate(180 90 786)" fill="black"/>
<rect x="120" y="674" width="3" height="39" transform="rotate(180 120 674)" fill="black"/>
<rect x="36" y="786" width="3" height="73" transform="rotate(180 36 786)" fill="black"/>
<rect x="38" y="674" width="3" height="39" transform="rotate(180 38 674)" fill="black"/>
<rect x="65" y="674" width="3" height="39" transform="rotate(180 65 674)" fill="black"/>
<rect x="176" y="786" width="3" height="4" transform="rotate(180 176 786)" fill="black"/>
<rect x="198" y="506" width="22" height="2" transform="rotate(180 198 506)" fill="black"/>
<rect x="145" y="503" width="48" height="4" transform="rotate(180 145 503)" fill="black"/>
<rect x="145" y="475" width="35" height="3" transform="rotate(180 145 475)" fill="black"/>
<rect x="145" y="443" width="35" height="3" transform="rotate(180 145 443)" fill="black"/>
<rect x="145" y="410" width="35" height="3" transform="rotate(180 145 410)" fill="black"/>
<rect x="145" y="375" width="35" height="3" transform="rotate(180 145 375)" fill="black"/>
<rect x="145" y="346" width="35" height="3" transform="rotate(180 145 346)" fill="black"/>
<rect x="145" y="317" width="35" height="3" transform="rotate(180 145 317)" fill="black"/>
<rect x="145" y="279" width="48" height="3" transform="rotate(180 145 279)" fill="black"/>
<rect x="145" y="252" width="48" height="3" transform="rotate(180 145 252)" fill="black"/>
<rect x="145" y="219" width="48" height="3" transform="rotate(180 145 219)" fill="black"/>
<rect x="145" y="158" width="48" height="3" transform="rotate(180 145 158)" fill="black"/>
<rect x="95" y="92" width="51" height="3" transform="rotate(180 95 92)" fill="black"/>
<rect x="26" y="92" width="5" height="3" transform="rotate(180 26 92)" fill="black"/>
<rect x="57" y="151" width="3" height="59" transform="rotate(180 57 151)" fill="black"/>
<rect x="88" y="67" width="67" height="3" transform="rotate(180 88 67)" fill="black"/>
<rect x="148" y="92" width="36" height="3" transform="rotate(180 148 92)" fill="black"/>
<rect x="128" y="67" width="22" height="3" transform="rotate(180 128 67)" fill="black"/>
<rect x="158" y="67" width="21" height="3" transform="rotate(180 158 67)" fill="black"/>
<rect x="173" y="67" width="8" height="3" transform="rotate(180 173 67)" fill="black"/>
<rect x="173" y="38" width="8" height="3" transform="rotate(180 173 38)" fill="black"/>
<rect x="158" y="38" width="10" height="3" transform="rotate(180 158 38)" fill="black"/>
<rect x="220" y="536" width="44" height="2" transform="rotate(180 220 536)" fill="black"/>
<rect x="145" y="538" width="48" height="3" transform="rotate(180 145 538)" fill="black"/>
<rect x="220" y="614" width="44" height="2" transform="rotate(180 220 614)" fill="black"/>
<rect x="220" y="646" width="44" height="3" transform="rotate(180 220 646)" fill="black"/>
<rect x="220" y="678" width="44" height="3" transform="rotate(180 220 678)" fill="black"/>
<rect x="220" y="713" width="54" height="3" transform="rotate(180 220 713)" fill="black"/>
<rect x="159" y="713" width="32" height="3" transform="rotate(180 159 713)" fill="black"/>
<rect x="126" y="677" width="38" height="3" transform="rotate(180 126 677)" fill="black"/>
<rect x="145" y="635" width="48" height="4" transform="rotate(180 145 635)" fill="black"/>
<rect x="71" y="677" width="14" height="3" transform="rotate(180 71 677)" fill="black"/>
<rect x="41" y="677" width="14" height="3" transform="rotate(180 41 677)" fill="black"/>
<rect x="13" y="677" width="8" height="3" transform="rotate(180 13 677)" fill="black"/>
<rect x="145" y="677" width="4" height="3" transform="rotate(180 145 677)" fill="black"/>
<rect x="110" y="713" width="38" height="3" transform="rotate(180 110 713)" fill="black"/>
<rect x="55" y="713" width="27" height="3" transform="rotate(180 55 713)" fill="black"/>
<rect x="14" y="713" width="9" height="3" transform="rotate(180 14 713)" fill="black"/>
<rect x="220" y="742" width="44" height="3" transform="rotate(180 220 742)" fill="black"/>
<rect x="1399" y="156" width="78" height="5" transform="rotate(180 1399 156)" fill="#346AF4"/>
<rect x="1399" y="151" width="5" height="149" transform="rotate(180 1399 151)" fill="#346AF4"/>
<rect x="1321" y="321" width="6" height="170" transform="rotate(180 1321 321)" fill="#346AF4"/>
<rect x="1315" y="321" width="13" height="4" transform="rotate(180 1315 321)" fill="#346AF4"/>
<rect x="1308" y="481" width="6" height="160" transform="rotate(180 1308 481)" fill="#346AF4"/>
<rect x="1320" y="481" width="12" height="4" transform="rotate(180 1320 481)" fill="#346AF4"/>
<rect x="1320" y="635" width="5" height="154" transform="rotate(180 1320 635)" fill="#346AF4"/>
<rect x="1432" y="635" width="112" height="5" transform="rotate(180 1432 635)" fill="#346AF4"/>
<rect x="1432" y="796" width="5" height="161" transform="rotate(180 1432 796)" fill="#346AF4"/>
<rect x="1427" y="796" width="241" height="4" transform="rotate(180 1427 796)" fill="#346AF4"/>
<rect x="1191" y="792" width="5" height="297" transform="rotate(180 1191 792)" fill="#346AF4"/>
<rect x="1215" y="499" width="24" height="4" transform="rotate(180 1215 499)" fill="#346AF4"/>
<rect x="1215" y="495" width="5" height="31" transform="rotate(180 1215 495)" fill="#346AF4"/>
<rect x="1215" y="464" width="390" height="5" transform="rotate(180 1215 464)" fill="#346AF4"/>
<rect x="830" y="459" width="5" height="26" transform="rotate(180 830 459)" fill="#346AF4"/>
<rect x="830" y="433" width="58" height="5" transform="rotate(180 830 433)" fill="#346AF4"/>
<rect x="634" y="433" width="50" height="5" transform="rotate(180 634 433)" fill="#346AF4"/>
<rect x="778" y="505" width="6" height="72" transform="rotate(180 778 505)" fill="#346AF4"/>
<rect x="634" y="505" width="6" height="72" transform="rotate(180 634 505)" fill="#346AF4"/>
<rect x="772" y="505" width="138" height="5" transform="rotate(180 772 505)" fill="#346AF4"/>
<rect x="589" y="463" width="5" height="30" transform="rotate(180 589 463)" fill="#346AF4"/>
<rect x="584" y="463" width="386" height="5" transform="rotate(180 584 463)" fill="#346AF4"/>
<rect x="203" y="506" width="5" height="43" transform="rotate(180 203 506)" fill="#346AF4"/>
<rect x="225" y="506" width="22" height="5" transform="rotate(180 225 506)" fill="#346AF4"/>
<rect x="225" y="790" width="5" height="284" transform="rotate(180 225 790)" fill="#346AF4"/>
<rect x="220" y="790" width="220" height="4" transform="rotate(180 220 790)" fill="#346AF4"/>
<rect x="5" y="786" width="5" height="156" transform="rotate(180 5 786)" fill="#346AF4"/>
<rect x="97" y="635" width="92" height="5" transform="rotate(180 97 635)" fill="#346AF4"/>
<rect x="97" y="630" width="5" height="158" transform="rotate(180 97 630)" fill="#346AF4"/>
<rect x="97" y="317" width="5" height="166" transform="rotate(180 97 317)" fill="#346AF4"/>
<rect x="110" y="475" width="13" height="3" transform="rotate(180 110 475)" fill="#346AF4"/>
<rect x="110" y="472" width="6" height="155" transform="rotate(180 110 472)" fill="#346AF4"/>
<rect x="110" y="317" width="13" height="3" transform="rotate(180 110 317)" fill="#346AF4"/>
<rect x="92" y="156" width="75" height="5" transform="rotate(180 92 156)" fill="#346AF4"/>
<rect x="21" y="151" width="4" height="151" transform="rotate(180 21 151)" fill="#346AF4"/>
<rect x="228" y="5" width="207" height="5" transform="rotate(180 228 5)" fill="#346AF4"/>
<rect x="228" y="323" width="4" height="318" transform="rotate(180 228 323)" fill="#346AF4"/>
<rect x="573" y="323" width="345" height="4" transform="rotate(180 573 323)" fill="#346AF4"/>
<rect x="573" y="319" width="5" height="35" transform="rotate(180 573 319)" fill="#346AF4"/>
<rect x="851" y="323" width="5" height="39" transform="rotate(180 851 323)" fill="#346AF4"/>
<rect x="846" y="289" width="273" height="5" transform="rotate(180 846 289)" fill="#346AF4"/>
<rect x="1193" y="323" width="342" height="4" transform="rotate(180 1193 323)" fill="#346AF4"/>
<rect x="1193" y="319" width="5" height="317" transform="rotate(180 1193 319)" fill="#346AF4"/>
<rect x="1394" y="7" width="201" height="5" transform="rotate(180 1394 7)" fill="#346AF4"/>
<rect x="196" y="428" width="21" height="1" transform="rotate(180 196 428)" fill="#D9D9D9"/>
<rect x="196" y="426" width="21" height="1" transform="rotate(180 196 426)" fill="#D9D9D9"/>
<rect x="196" y="430" width="21" height="1" transform="rotate(180 196 430)" fill="#D9D9D9"/>
<rect x="196" y="432" width="21" height="1" transform="rotate(180 196 432)" fill="#D9D9D9"/>
<rect x="196" y="434" width="21" height="1" transform="rotate(180 196 434)" fill="#D9D9D9"/>
<rect x="196" y="436" width="21" height="1" transform="rotate(180 196 436)" fill="#D9D9D9"/>
<rect x="196" y="438" width="21" height="1" transform="rotate(180 196 438)" fill="#D9D9D9"/>
<rect x="196" y="440" width="21" height="1" transform="rotate(180 196 440)" fill="#D9D9D9"/>
<rect x="196" y="442" width="21" height="1" transform="rotate(180 196 442)" fill="#D9D9D9"/>
<rect x="199" y="442" width="16" height="1" transform="rotate(90 199 442)" fill="#D9D9D9"/>
<rect x="197" y="442" width="16" height="1" transform="rotate(90 197 442)" fill="#D9D9D9"/>
<rect x="201" y="442" width="16" height="1" transform="rotate(90 201 442)" fill="#D9D9D9"/>
<rect x="203" y="442" width="16" height="1" transform="rotate(90 203 442)" fill="#D9D9D9"/>
<rect x="205" y="442" width="16" height="1" transform="rotate(90 205 442)" fill="#D9D9D9"/>
<rect x="207" y="442" width="16" height="1" transform="rotate(90 207 442)" fill="#D9D9D9"/>
<rect x="209" y="442" width="16" height="1" transform="rotate(90 209 442)" fill="#D9D9D9"/>
<rect x="211" y="442" width="16" height="1" transform="rotate(90 211 442)" fill="#D9D9D9"/>
<rect x="213" y="442" width="16" height="1" transform="rotate(90 213 442)" fill="#D9D9D9"/>
<rect x="233" y="440" width="20" height="1" transform="rotate(180 233 440)" fill="#D9D9D9"/>
<rect x="233" y="442" width="20" height="1" transform="rotate(180 233 442)" fill="#D9D9D9"/>
<rect x="233" y="438" width="20" height="1" transform="rotate(180 233 438)" fill="#D9D9D9"/>
<rect x="233" y="436" width="20" height="1" transform="rotate(180 233 436)" fill="#D9D9D9"/>
<rect x="233" y="434" width="20" height="1" transform="rotate(180 233 434)" fill="#D9D9D9"/>
<rect x="233" y="432" width="20" height="1" transform="rotate(180 233 432)" fill="#D9D9D9"/>
<rect x="233" y="430" width="20" height="1" transform="rotate(180 233 430)" fill="#D9D9D9"/>
<rect x="233" y="428" width="20" height="1" transform="rotate(180 233 428)" fill="#D9D9D9"/>
<rect x="233" y="426" width="22.7451" height="1.17241" transform="rotate(180 233 426)" fill="black"/>
<rect x="214" y="444" width="19" height="19" rx="2" transform="rotate(-180 214 444)" fill="black"/>
<rect width="23" height="0.999998" transform="matrix(1 -8.74228e-08 -8.74228e-08 -1 749 450)" fill="#D9D9D9"/>
<rect width="23" height="0.999998" transform="matrix(1 -8.74228e-08 -8.74228e-08 -1 634 450)" fill="#D9D9D9"/>
<rect width="22" height="0.999998" transform="matrix(1 -8.74228e-08 -8.74228e-08 -1 750 453)" fill="#D9D9D9"/>
<rect width="22" height="0.999998" transform="matrix(1 -8.74228e-08 -8.74228e-08 -1 634 453)" fill="#D9D9D9"/>
<rect width="22" height="0.999998" transform="matrix(1 -8.74228e-08 -8.74228e-08 -1 750 456)" fill="#D9D9D9"/>
<rect width="22" height="0.999998" transform="matrix(1 -8.74228e-08 -8.74228e-08 -1 634 456)" fill="#D9D9D9"/>
<rect width="22" height="0.999998" transform="matrix(1 -8.74228e-08 -8.74228e-08 -1 750 459)" fill="#D9D9D9"/>
<rect width="22" height="0.999998" transform="matrix(1 -8.74228e-08 -8.74228e-08 -1 634 459)" fill="#D9D9D9"/>
<rect width="22" height="0.999998" transform="matrix(1 -8.74228e-08 -8.74228e-08 -1 750 462)" fill="#D9D9D9"/>
<rect width="22" height="0.999998" transform="matrix(1 -8.74228e-08 -8.74228e-08 -1 634 462)" fill="#D9D9D9"/>
<rect width="22" height="0.999998" transform="matrix(1 -8.74228e-08 -8.74228e-08 -1 750 465)" fill="#D9D9D9"/>
<rect width="22" height="0.999998" transform="matrix(1 -8.74228e-08 -8.74228e-08 -1 634 465)" fill="#D9D9D9"/>
<rect width="22" height="0.999998" transform="matrix(1 -8.74228e-08 -8.74228e-08 -1 750 468)" fill="#D9D9D9"/>
<rect width="22" height="0.999998" transform="matrix(1 -8.74228e-08 -8.74228e-08 -1 634 468)" fill="#D9D9D9"/>
<rect width="22" height="0.999998" transform="matrix(1 -8.74228e-08 -8.74228e-08 -1 750 471)" fill="#D9D9D9"/>
<rect width="22" height="0.999998" transform="matrix(1 -8.74228e-08 -8.74228e-08 -1 634 471)" fill="#D9D9D9"/>
<rect width="22" height="0.999998" transform="matrix(1 -8.74228e-08 -8.74228e-08 -1 750 474)" fill="#D9D9D9"/>
<rect width="22" height="0.999998" transform="matrix(1 -8.74228e-08 -8.74228e-08 -1 634 474)" fill="#D9D9D9"/>
<rect width="22" height="0.999998" transform="matrix(1 -8.74228e-08 -8.74228e-08 -1 750 477)" fill="#D9D9D9"/>
<rect width="22" height="0.999998" transform="matrix(1 -8.74228e-08 -8.74228e-08 -1 634 477)" fill="#D9D9D9"/>
<rect width="22" height="0.999998" transform="matrix(1 -8.74228e-08 -8.74228e-08 -1 750 480)" fill="#D9D9D9"/>
<rect width="22" height="0.999998" transform="matrix(1 -8.74228e-08 -8.74228e-08 -1 634 480)" fill="#D9D9D9"/>
<rect width="22" height="0.999998" transform="matrix(1 -8.74228e-08 -8.74228e-08 -1 750 483)" fill="#D9D9D9"/>
<rect width="22" height="0.999998" transform="matrix(1 -8.74228e-08 -8.74228e-08 -1 634 483)" fill="#D9D9D9"/>
<rect width="49" height="0.999996" transform="matrix(1 -8.74228e-08 -8.74228e-08 -1 679 484)" fill="#D9D9D9"/>
<rect width="47" height="0.999996" transform="matrix(1 -8.74228e-08 -8.74228e-08 -1 680 481)" fill="#D9D9D9"/>
<rect width="48" height="0.999996" transform="matrix(1 -8.67933e-08 -8.80568e-08 -1 679 478)" fill="#D9D9D9"/>
<rect width="47" height="0.999996" transform="matrix(1 -8.67933e-08 -8.80568e-08 -1 680 475)" fill="#D9D9D9"/>
<rect width="48" height="0.999996" transform="matrix(1 -8.67933e-08 -8.80568e-08 -1 679 472)" fill="#D9D9D9"/>
<rect width="47" height="0.999996" transform="matrix(1 -7.56625e-08 -1.01011e-07 -1 680 469)" fill="#D9D9D9"/>
<rect width="47" height="0.999996" transform="matrix(1 -8.17562e-08 -9.34821e-08 -1 680 466)" fill="#D9D9D9"/>
<rect width="47" height="0.999997" transform="matrix(1 -7.40527e-08 -1.03207e-07 -1 680 463)" fill="#D9D9D9"/>
<rect width="47" height="0.999996" transform="matrix(1 -8.00167e-08 -9.55143e-08 -1 680 460)" fill="#D9D9D9"/>
<rect width="47" height="0.999996" transform="matrix(1 -8.47236e-08 -9.0208e-08 -1 680 457)" fill="#D9D9D9"/>
<rect width="47" height="0.999996" transform="matrix(1 -8.47236e-08 -9.0208e-08 -1 680 454)" fill="#D9D9D9"/>
<rect width="47" height="0.999996" transform="matrix(1 -8.47236e-08 -9.0208e-08 -1 680 451)" fill="#D9D9D9"/>
<rect width="51" height="2" transform="matrix(1 -8.74228e-08 -8.74228e-08 -1 678 450)" fill="black"/>
<rect width="25.8292" height="36.8004" rx="3" transform="matrix(0.999992 0.0039745 0.00569767 -0.999984 655.171 484.897)" fill="black"/>
<rect width="25.2761" height="36.9001" rx="3" transform="matrix(0.999992 0.0039745 0.00569767 -0.999984 725.724 484.9)" fill="black"/>
</svg>
