<svg width="4428" height="4270" viewBox="0 0 4428 4270" fill="none" xmlns="http://www.w3.org/2000/svg">
<rect width="4424" height="4262" transform="matrix(1 0 0 -1 0 4264)" fill="white"/>
<path d="M1363.5 1294H7L9 4269H800.5L1617.5 3785.5L1351.5 2757L1363.5 1294Z" fill="#EEECDE"/>
<path d="M1951.5 1084.5C1877.5 1084.5 646.333 1065.5 6 1056V0H2040C2040 0 2031 557 2040 599C2049 641 2073.5 635.5 2086 762C2098.5 888.5 2086 960.5 2086 1010C2086 1059.5 2025.5 1084.5 1951.5 1084.5Z" fill="#F7F6E8"/>
<path d="M2255 226.5V3L4423.5 1.5V1127L4305.5 1157H3999.5L4025 1107.5V659.5L3828.5 432H2580.5C2500.34 432.046 2437.5 435.5 2371.5 413.5C2319 396 2255 284 2255 226.5Z" fill="#F7F1D8"/>
<path d="M4146 1304C4231.67 1299.33 4406.8 1288.9 4422 1284.5L4428 4268.5H3571L3110 2508.5V1389.5C3110 1317 3156 1304 3237 1304H4146Z" fill="#F7F6E8"/>
<path d="M3339.5 4270L1382 4263L1698 4184L1347.5 2754L1362 1766C1399.45 1720.26 1415.57 1693.93 1426.5 1644.5V1308.5H2768.5C2851.14 1311.36 2874.54 1331.75 2875.5 1401.5C2873.58 1841.6 2856.3 2091.34 2886.5 2525.5C2898.31 2645.95 2907.31 2713.71 2958.5 2838C3102.8 3417.84 3190.37 3712.32 3339.5 4270Z" fill="#F7F6E8"/>
<path d="M3938.33 267C3936.84 341.5 3889.05 417.973 3793 457L4010 731V4H3938.33C3938.33 4 3939.82 192.5 3938.33 267Z" fill="white"/>
<path d="M1205 1854.5C1147 1886.5 27.3 2396.4 14.5 2394V2348L1164.5 1820C1259.74 1764.72 1370 1699.5 1370 1586V1279.5H1419.5V1597.5C1419.5 1717.5 1263 1822.5 1205 1854.5Z" fill="white"/>
<path d="M2039 1192C2029 1195 2241.5 1185.68 2251.5 1185.5C2261.5 1185.32 2192.16 1139.93 2163.5 1107.5C2116.58 1153.12 2049 1189 2039 1192Z" fill="#F7F6E8"/>
<path d="M2169.5 586C2208.2 534.245 2229.47 513.129 2267 482.5C2208.5 431.427 2188.88 390.913 2158.5 314.5C2159.92 407.996 2158.95 450.236 2169.5 586Z" fill="#F7F6E8"/>
<path d="M2996.5 1337.5C3010.07 1305.89 3019.06 1288.86 3038 1260C3004.41 1255.5 2986.4 1255.63 2955.5 1260C2974.64 1286.83 2984.14 1303.23 2996.5 1337.5Z" fill="#F7F6E8"/>
<path fill-rule="evenodd" clip-rule="evenodd" d="M3358.5 4263.5C3358.5 4243.1 3123.17 3365.33 3005.5 2929C2935.21 2678.88 2900.79 2399 2899.5 2306.5C2898.21 2214 2899.5 1368 2899.5 1368C2891.16 1295.03 2798.96 1278.48 2747.5 1277.5C2696.04 1276.52 24.5 1281.5 0 1276.5V1102C0 1102 1767 1121 1901 1121C2035 1121 2116 1069.5 2116 1035C2116 1000.5 2110 754 2110 754C2062.29 652.053 2065 597 2065 476V2H2226.5V215C2265.83 332.333 2295.18 386.302 2368 433.5C2431 437.5 2529.5 442.5 2566.5 456C2566.5 456 3705.5 457 3790 457C3817.85 457 3851.74 466.973 3884 484.5C3905.69 496.287 3926.37 511.259 3945 531C3982.72 570.963 4010 626.806 4010 699.5C4010 861.5 4009 963.5 4009 1043.5C4009 1123.5 3958 1170 3950 1184H4221C4294.5 1184 4423.5 1173 4423.5 1173V1255C4423.5 1255 4346.5 1273 4207 1273C3836 1273 3232.92 1268.33 3200 1276C3167.08 1283.67 3094.66 1303.47 3088 1368C3081.34 1432.53 3082.26 2305.21 3076.5 2306.5C3091.17 2489.92 3095.44 2584.45 3187 2929L3549.5 4263.5H3358.5ZM3038 1260C3019.06 1288.86 3010.07 1305.89 2996.5 1337.5C2984.14 1303.23 2974.64 1286.83 2955.5 1260C2986.4 1255.63 3004.41 1255.5 3038 1260ZM2267 482.5C2229.47 513.129 2208.2 534.245 2169.5 586C2158.95 450.236 2159.92 407.996 2158.5 314.5C2188.88 390.913 2208.5 431.427 2267 482.5ZM2251.5 1185.5C2241.5 1185.68 2029 1195 2039 1192C2049 1189 2116.58 1153.12 2163.5 1107.5C2192.16 1139.93 2261.5 1185.32 2251.5 1185.5ZM2508.5 1162C2375.5 1185.5 2237 1060.5 2227.5 1024.5C2218 988.5 2220 1011 2220 774C2220 537 2412.5 534 2490 537C2567.5 540 2822 607.5 2806 835.5C2790 1063.5 2641.5 1138.5 2508.5 1162ZM2906.5 835.5C2898 1022 2863.68 1057.12 2759 1162C2759 1162 3660.5 1175.87 3709.5 1173.5C3758.5 1171.13 3905.5 1163.5 3905.5 1027V699.5C3905.5 656 3854.5 551 3738 551C3621.5 551 2776 556 2776 556C2852.21 648.881 2899 716.5 2906.5 835.5Z" fill="#F4B55A"/>
<path d="M3884 484.5C3909.56 469.079 3945 433 3945 433V531C3926.37 511.259 3905.69 496.287 3884 484.5Z" fill="#F7F6E8"/>
<path d="M2780 814C2785.5 698.5 2615.63 571.583 2474.5 562C2251.5 546.858 2258.5 681 2259.5 861.5C2260.03 957.757 2255.34 1006.22 2305 1060.5C2348 1107.5 2384.5 1139.5 2508.5 1133C2632.5 1126.5 2706.29 1041.5 2721.5 1022C2736.71 1002.5 2774.5 929.5 2780 814Z" fill="#D0E9A9"/>
<path d="M2815 1137.5C2815 1137.5 2930.5 1063 2925.5 835.5C2920.5 608 2833.5 583 2833.5 583C2833.5 583 3711.5 578.5 3738 578.5C3764.5 578.5 3884 607.5 3884 735.5V972C3884 1061.5 3854.5 1140.5 3709.5 1140.5C3564.5 1140.5 2815 1137.5 2815 1137.5Z" fill="#D0E9A9"/>
<rect width="266" height="270" transform="matrix(1 0 0 -1 1714 2120)" fill="#D0E9A9"/>
<rect width="258" height="280" transform="matrix(1 0 0 -1 2330 2125)" fill="#D0E9A9"/>
<path d="M179 3234.5L570 3127L526.5 3036L152.5 3144.5L179 3234.5Z" fill="#FCFBED"/>
<path d="M1138.5 3115.5C1150.1 3113.1 1241.67 3086.5 1286 3073.5L1204.5 2771L1050.5 2815.5L1091.5 2951L1004.5 2988C985 2934 960 2921 874.5 2923.5C789 2926 760 2994 760 3046C760 3140.5 838.5 3175.1 890.5 3174.5C942.5 3173.9 981.5 3170 1004.5 3127.5C1027.5 3085 1014 3036 1014 3036C1014 3036 1098 3004.5 1103 3004.5C1108 3004.5 1128.5 3078.67 1138.5 3115.5Z" fill="#FCFBED"/>
<path d="M813 3831C695.667 3863.33 451.5 3930.9 413.5 3942.5L387.5 3857L792 3743C792 3743 813 3801.5 813 3831Z" fill="#FCFBED"/>
<path d="M589.5 2388.5C825.333 2283.67 1296.5 2072 1294.5 2064C1292.5 2056 1267 2003.33 1254 1978L547 2298.5L589.5 2388.5Z" fill="#FCFBED"/>
<path d="M12.5 2170L390.5 1989C381.833 1957.83 362.1 1896.6 352.5 1901C342.9 1905.4 121.833 2006.83 12.5 2057V2170Z" fill="#FCFBED"/>
<path d="M524 1934.5C533.6 1930.9 700.333 1852 782.5 1813L738 1729L485 1850L524 1934.5Z" fill="#FCFBED"/>
<path d="M473 1601H566.5V1454.5H1026C1028.5 1524.17 1032 1664 1026 1666C1020 1668 914.833 1716.83 863 1741L903.5 1833.5L1125 1729V1357.5L473 1347V1601Z" fill="#FCFBED"/>
<path d="M12.5 1442.5H352.5V1347H12.5V1442.5Z" fill="#FCFBED"/>
<path d="M1418 3565.5C1212.33 3623.67 792 3743 792 3743L719 3506L361.5 3597L322.5 3439L1311 3166L1333 3266L805.5 3418L857.5 3613.5L1388.5 3462.5L1418 3565.5Z" fill="#E4E0D3"/>
<path d="M83 2984.5C87 2982.9 106.333 2976.5 115.5 2973.5L127.5 3016L205.5 2997.5L223 3051L257 3046C257.167 3029.83 258.5 2997.5 262.5 2997.5H292C292.8 2997.5 269 2901.83 257 2854L179 2875L166 2834.5L89.5 2854L85 2879.5L15 2898V3069.5L98 3046L83 2984.5Z" fill="#E4E0D3"/>
<path d="M266.5 1741H352.5V1569.5H266.5V1741Z" fill="#E4E0D3"/>
<path d="M88.5 1783.5H200.5V1713H177.5V1637H206V1569.5H88.5V1783.5Z" fill="#E4E0D3"/>
<path d="M1121 4101.89C1126.2 4101.89 1405.5 4024.22 1544.5 3985.39L1507.4 3848.18L1498.65 3807L1495 3793.5L1066 3910L1068.54 3918.5L1114.57 4080.33L1121 4101.89Z" fill="#D8E0BD"/>
<path d="M1975.5 4161.5L2016.5 4148.5V4173H2080.5L2103.5 4247.5L2080.5 4265.5H1975.5L1965.5 4216.5L1935.5 4198.5L1965.5 4185.5L1975.5 4161.5Z" fill="#E4E0D3"/>
<path d="M1728 3996.5C1738 3996.5 1967.5 3940 1965.5 3932C1963.9 3925.6 1905.5 3694.33 1876.5 3579.5L1700 3630.5L1736.5 3749L1668.5 3785.5L1728 3996.5Z" fill="#E4E0D3"/>
<path d="M2490.5 3713L2600 3681L2533 3441.5L2547.5 3435L2360 2774.5L2159.5 2836.5L2244.5 3129.5L2139 3163.5L2089 3011L2151.5 2987.5L2111 2844L1679 2960.5V2716.5H1637.5V2652.5H1608.5V2716.5H1532.5V3055.5C1532.5 3098 1593.5 3125.5 1646 3125.5C1698.5 3125.5 1944.5 3051 1944.5 3051L2041.5 3402C2088 3390.17 2181.4 3365 2183 3359C2184.6 3353 2158.33 3257.5 2145 3210.5L2250 3173.5L2338.5 3502.5L2416 3480L2490.5 3713Z" fill="#E4E0D3"/>
<path d="M2877.5 3374C2893 3367 2984.5 3350.5 2988 3339C2990.8 3329.8 2870.5 2858 2862.5 2858C2854.5 2858 2803.5 2871 2803.5 2871C2803.5 2871 2726 2713.5 2695.5 2652.5H2654L2762 2886.5L2736 2897.5L2877.5 3374Z" fill="#E4E0D3"/>
<path d="M2935.5 4199.5C2940.7 4197.1 3079.67 4155 3145 4137L3121 4053.5H3089.5C3068.83 3982.33 3028.3 3838.9 3031.5 3834.5C3034.7 3830.1 3050.83 3818.33 3058.5 3813C3054.5 3779.67 3043.5 3713 3031.5 3713C3019.5 3713 2883.5 3751.67 2817 3771L2935.5 4199.5Z" fill="#FCFBED"/>
<path d="M2519.5 2962.5C2526.3 2962.5 2580.67 2943.17 2607 2933.5L2565 2774.5L2472.5 2806L2519.5 2962.5Z" fill="#FCFBED"/>
<path d="M98 4169.5L192 4150L15 3418L7 3801L98 4169.5Z" fill="#FCFBED"/>
<path d="M1721 4103.5L2681.5 3848L2666.5 3807L1983.5 3989.5L1975.5 3969L1712.5 4041.5L1721 4103.5Z" fill="#BEDD88"/>
<path d="M1736.5 4173C1851.83 4143.83 2015 4093 2089 4084C2163 4075 2204.5 4148.5 2204.5 4185.5V4265.5H2798.5L2693.5 3889.5L1736.5 4138.5V4173Z" fill="#BEDD88"/>
<path d="M3570.5 4265.5L3234.5 3011.5L3372.5 2973.77L3708.5 4265.5H3570.5Z" fill="#BEDD88"/>
<path d="M4419.5 2687.5V4265.5H3708.5L3372.5 2973.77L4419.5 2687.5Z" fill="#D8E0BD"/>
<path d="M3321 2860L3567 2795L3542 2703.5L3464.5 2725.5L3455.5 2687.5L3334.5 2717.5L3321 2670.5L3269.5 2687.5L3321 2860Z" fill="#E4E0D3"/>
<path d="M3282.5 2629.5C3292.9 2629.5 3356.5 2611.17 3387 2602L3385.43 2592.5L3374.49 2526.5L3372.5 2514.5C3363 2517.67 3344.3 2522.1 3345.5 2514.5C3346.7 2506.9 3346 2473.67 3345.5 2458H3215V2514.5L3269.5 2554.5L3282.5 2629.5Z" fill="#E4E0D3"/>
<path d="M3877 2778L3986.5 2747L3959 2643.5L3986.5 2629.5L3971 2546L3615 2643.5L3643 2725.5L3781 2687.5L3795 2717.5L3853.5 2703.5L3877 2778Z" fill="#E4E0D3"/>
<path d="M4295 2458C4305 2454.8 4328.83 2446.67 4339.5 2443V2416C4339.5 2412.8 4356.5 2408.67 4365 2407L4346.5 2357L4245.5 2394.5V2432.5H4295V2458Z" fill="#E4E0D3"/>
<path d="M4419.5 2595L4392 2481L4419.5 2467.5V2595Z" fill="#E4E0D3"/>
<path d="M3161.5 1939.5H3306V1757H3342.5V1710H3306V1523H3161.5V1939.5Z" fill="#E4E0D3"/>
<path d="M3467.5 1804.5H3510V1865.5H4087V1835H4133V1757H4095V1649H4133V1535.5L3580 1523V1797.5H3544.5V1733.5H3467.5V1804.5Z" fill="#E4E0D3"/>
<path d="M3553 2033.5V1908.5H4166V2044.5L3553 2033.5Z" fill="#E4E0D3"/>
<path d="M91 951H171C171 951 172 808.833 171 743.5H205.5V327.5H6.5V423.5H91V951Z" fill="#E4E0D3"/>
<path d="M705.5 592.5L304 951V631C304 603.5 334.5 592.5 369 592.5H705.5Z" fill="#D0E9A9"/>
<path d="M369 957.5H705.5V838.5H495L369 957.5Z" fill="#D0E9A9"/>
<path d="M544.5 798.5H705.5V696.5H643.5L544.5 798.5Z" fill="#D0E9A9"/>
<path d="M304 1058.5V1005L1199 1012C1214 1012 1225 1006 1225 989.5V876.5C1238.84 904.305 1249.06 915.801 1278 918.5H1814V999.5V1080.5L304 1058.5Z" fill="#D0E9A9"/>
<path d="M755 957.5L1178.5 967.5V847.5H755V957.5Z" fill="#D0E9A9"/>
<path d="M755 655H1178.5V598.5H755V655Z" fill="#D0E9A9"/>
<path d="M369 544H449.5V423.5H690V549.5H795V432.5H1056.5C1055.17 474 1053.3 556.7 1056.5 555.5C1059.7 554.3 1120.83 555 1151 555.5V340.5H795V293H690V340.5H369V544Z" fill="#E4E0D3"/>
<path d="M1406.5 847.5H1314.5V492H1271V399H1406.5V677.5H1814V399H1956.5L1963.5 912.5L1814 999.5V918.5V798.5H1705.5V836.5H1502V798.5H1406.5V847.5Z" fill="#E4E0D3"/>
<path d="M938 116H1273V26H1109.5V1.5H938V116Z" fill="#E4E0D3"/>
<path d="M319.5 266.5H530V55.5H319.5V266.5Z" fill="#D0E9A9"/>
<path d="M575 266.5H816V66C816 65.6 655.333 65.8333 575 66V266.5Z" fill="#D0E9A9"/>
<path d="M319.5 19H530V1.5H319.5V19Z" fill="#D0E9A9"/>
<path d="M575 21.5H768V1.5H575V21.5Z" fill="#D0E9A9"/>
<path d="M1886.5 375H1956.5V2H1886.5V375Z" fill="#E4E0D3"/>
<path d="M1705.5 639.5C1767.01 639.5 1782.5 560 1783 526C1783.5 492 1783 392.5 1705.5 392.5C1628 392.5 1619.5 467 1619.5 526C1619.5 585 1643.99 639.5 1705.5 639.5Z" fill="#D4E69E"/>
<path d="M1497.5 639.5C1573.5 639.5 1579.6 594.884 1582.5 526C1580.72 441.316 1575.66 398.045 1497.5 392.5C1425.54 400.844 1413.06 435.779 1416.5 526C1418.57 592.624 1421.5 639.5 1497.5 639.5Z" fill="#D4E69E"/>
<path d="M1574 287.5V197.5H1471L1353 287.5H1574Z" fill="#D4E69E"/>
<path d="M1437 159V2H1309.5L1314.5 287.5L1437 159Z" fill="#D4E69E"/>
<path d="M1619.5 287.5H1783L1846.5 232.5V2L1727.5 84V173L1706 197.5H1619.5V287.5Z" fill="#D4E69E"/>
<path d="M1574 159V2L1481.5 1.5V159H1574Z" fill="#D4E69E"/>
<path d="M1619.5 159H1685.5V2H1619.5V159Z" fill="#D4E69E"/>
<path d="M1778 2L1727.5 34.5V2H1778Z" fill="#D4E69E"/>
<path d="M2066.5 2693H2224V2652.5H2519.5L2515.5 2400H2182.5H2106.5H2066.5V2693Z" fill="#E4E0D3"/>
<path d="M1781 2652.5H1985V2415H1737V2463.5H1679V2529H1737V2584H1781V2652.5Z" fill="#E4E0D3"/>
<path d="M2362.5 322H2736.5V206.5H2596.5V2.5H2372V93.5H2401V206.5H2362.5V322Z" fill="#EADBB5"/>
<path d="M2779.5 337H2858V269.5H2880V145.5H2756V269.5H2779.5V337Z" fill="#D3CFC0"/>
<path d="M4241.5 976.5H4422V762H4306V501.5H4422V3H4241.5V483.5H4140V762H4241.5V976.5Z" fill="#D3CFC0"/>
<path d="M2907 307.5H3750L3808 269.5V3H3704V145.5H3505.5L3493 103.5H3445.5L3433.5 145.5H3289V103.5H3231V145.5H3088.5V103.5H3039V145.5H2907V307.5Z" fill="#FCFBED"/>
<path d="M1364.5 1793C1370.5 1791.4 1460.33 1792.33 1504.5 1793L1725 1598L1431.5 1344V1641C1413.58 1690.52 1399.84 1715.96 1364.5 1754.5V1793Z" fill="#D0E9A9"/>
<path d="M2030.5 1793C2029.7 1783.8 1996.17 1548.17 1979.5 1431.5L1795 1598L2030.5 1793Z" fill="#D0E9A9"/>
<path d="M1567.5 1793H1962.5L1759.5 1620.5L1567.5 1793Z" fill="#D0E9A9"/>
<path d="M1759.5 1562.5L1964.5 1390V1312.5H1464L1759.5 1562.5Z" fill="#D0E9A9"/>
<path d="M2069 1804H2232L2269 1407H2018.5L2069 1804Z" fill="#D0E9A9"/>
<path d="M2276 1804L2500 1598L2308 1431.5L2276 1804Z" fill="#D0E9A9"/>
<path d="M2335.5 1804H2744.5L2538.5 1626.5L2335.5 1804Z" fill="#D0E9A9"/>
<path d="M2818 1814H2863.5V1394C2862.19 1374.44 2858.89 1364.8 2845.5 1351.5L2567 1598L2818 1814Z" fill="#D0E9A9"/>
<path d="M2538.5 1571.5L2798.5 1335.5H2319V1390L2538.5 1571.5Z" fill="#D0E9A9"/>
<path d="M3744 2514.5L3385.43 2592.5L3374.49 2526.5L3848 2394.5L3853.5 2440L3950 2420.5V2366L4073.5 2332V2375L4081.5 2380C4082.83 2389.67 4084.7 2410.3 4081.5 2415.5C4078.3 2420.7 4068.17 2417.67 4063.5 2415.5L4073.5 2488.5L3986.5 2514.5L3971 2481.5L3749.5 2546L3744 2514.5Z" fill="#D6D6D6"/>
<path d="M1121 4101.89C1126.2 4101.89 1405.5 4024.22 1544.5 3985.39L1507.4 3848.18L1618 3785.5L1696.5 4181.39L1378 4261.39L809.5 4260.62L1114.57 4080.33L1121 4101.89Z" fill="#BEDD88"/>
<path d="M2106.5 2400V2340H2182.5V2400H2106.5Z" fill="#E4E0D3"/>
<circle cx="71.5" cy="71.5" r="71.5" transform="matrix(1 0 0 -1 2077 1686)" fill="#6DC5F2"/>
</svg>
